<svg width="587" height="62" viewBox="0 0 587 62" fill="none" xmlns="http://www.w3.org/2000/svg">
<path d="M0 25.024C0 21.76 0.476 18.7453 1.428 15.98C2.42533 13.2147 3.76267 10.8347 5.44 8.84C7.16267 6.8 9.15733 5.21333 11.424 4.08C13.6907 2.94667 16.1387 2.38 18.768 2.38C19.9013 2.38 20.9667 2.47067 21.964 2.652C23.0067 2.83333 23.936 3.06 24.752 3.332C25.6133 3.55867 26.316 3.83067 26.86 4.148C27.4493 4.42 27.8573 4.66933 28.084 4.896C28.3107 5.168 28.492 5.916 28.628 7.14C28.764 8.364 28.832 10.0187 28.832 12.104C28.832 12.6933 28.628 12.988 28.22 12.988C27.7667 12.988 27.472 12.6253 27.336 11.9C27.2 11.1747 26.8373 10.2907 26.248 9.248C24.4347 5.89333 21.7827 4.216 18.292 4.216C16.4787 4.216 14.7787 4.692 13.192 5.644C11.6507 6.596 10.2907 7.956 9.112 9.724C7.93333 11.492 7.004 13.668 6.324 16.252C5.644 18.836 5.304 21.76 5.304 25.024C5.304 28.0613 5.644 30.8493 6.324 33.388C7.004 35.9267 7.93333 38.1253 9.112 39.984C10.336 41.7973 11.7413 43.2253 13.328 44.268C14.9147 45.2653 16.6147 45.764 18.428 45.764C20.604 45.764 22.372 45.1293 23.732 43.86C25.092 42.5907 26.2253 40.6867 27.132 38.148C27.4947 37.1507 27.7213 36.38 27.812 35.836C27.948 35.2467 28.1973 34.952 28.56 34.952C29.0133 34.952 29.24 35.3373 29.24 36.108C29.24 38.3747 29.1947 40.1427 29.104 41.412C29.0587 42.636 28.9 43.452 28.628 43.86C28.356 44.268 27.9027 44.6987 27.268 45.152C26.6333 45.6053 25.8627 46.036 24.956 46.444C24.0493 46.8067 23.0293 47.1013 21.896 47.328C20.7627 47.6 19.516 47.736 18.156 47.736C15.572 47.736 13.1693 47.1693 10.948 46.036C8.72667 44.9027 6.8 43.316 5.168 41.276C3.536 39.236 2.26667 36.8333 1.36 34.068C0.453333 31.3027 0 28.288 0 25.024Z" fill="#FDFCF9"/>
<path d="M54.5976 22.984V40.052C54.5976 42.8627 55.2096 44.268 56.4336 44.268C56.9323 44.268 57.3856 44.0187 57.7936 43.52C58.247 43.0213 58.6096 42.772 58.8816 42.772C59.199 42.772 59.3576 42.9307 59.3576 43.248C59.3576 43.6107 59.1536 44.0413 58.7456 44.54C58.383 44.9933 57.9296 45.4467 57.3856 45.9C56.8416 46.3533 56.2523 46.716 55.6176 46.988C55.0283 47.3053 54.507 47.464 54.0536 47.464C53.147 47.464 52.4443 47.124 51.9456 46.444C51.4923 45.7187 51.0616 44.5627 50.6536 42.976H50.3816C48.659 44.4267 47.1176 45.5827 45.7576 46.444C44.443 47.3053 43.0603 47.736 41.6096 47.736C39.9776 47.736 38.7083 47.26 37.8016 46.308C36.895 45.3107 36.4416 43.996 36.4416 42.364C36.4416 41.0947 36.7363 39.916 37.3256 38.828C37.915 37.6947 38.799 36.6067 39.9776 35.564C41.2016 34.476 42.6976 33.3653 44.4656 32.232C46.2336 31.0987 48.2736 29.8747 50.5856 28.56V22.576C50.5856 20.4907 50.359 18.9947 49.9056 18.088C49.4976 17.1813 48.591 16.728 47.1856 16.728C46.007 16.728 44.8963 17.136 43.8536 17.952C42.811 18.768 42.0856 19.7427 41.6776 20.876C41.179 22.2813 40.6803 23.4827 40.1816 24.48C39.683 25.432 38.799 25.908 37.5296 25.908C37.2123 25.908 36.9403 25.8173 36.7136 25.636C36.487 25.4093 36.3736 25.1147 36.3736 24.752C36.3736 23.936 36.6683 22.984 37.2576 21.896C37.847 20.808 38.6856 19.7653 39.7736 18.768C40.8616 17.7707 42.1536 16.932 43.6496 16.252C45.1456 15.572 46.7776 15.232 48.5456 15.232C49.951 15.232 51.0616 15.4133 51.8776 15.776C52.6936 16.1387 53.3056 16.66 53.7136 17.34C54.1216 18.02 54.371 18.836 54.4616 19.788C54.5523 20.74 54.5976 21.8053 54.5976 22.984ZM50.6536 31.28C50.6536 30.8267 50.5176 30.6 50.2456 30.6C50.1096 30.6 49.883 30.6907 49.5656 30.872L47.5256 32.028C42.9016 34.7027 40.5896 37.536 40.5896 40.528C40.5896 41.7973 40.907 42.8173 41.5416 43.588C42.1763 44.3133 43.0603 44.676 44.1936 44.676C44.8736 44.676 45.5763 44.5173 46.3016 44.2C47.0723 43.8827 47.775 43.4293 48.4096 42.84C49.0896 42.2053 49.6336 41.4573 50.0416 40.596C50.4496 39.6893 50.6536 38.6693 50.6536 37.536V31.28Z" fill="#FDFCF9"/>
<path d="M70.8008 16.932V20.808C70.8008 21.1253 70.8914 21.284 71.0728 21.284C71.2088 21.284 71.3674 21.1707 71.5488 20.944L72.7728 19.176C74.6768 16.592 76.6941 15.3 78.8248 15.3C79.9581 15.3 80.8421 15.6173 81.4768 16.252C82.1114 16.8413 82.4287 17.5893 82.4287 18.496C82.4287 19.4027 82.1794 20.1507 81.6808 20.74C81.2274 21.284 80.7061 21.556 80.1168 21.556C79.6634 21.556 79.2554 21.42 78.8928 21.148C78.5754 20.876 78.2354 20.5813 77.8728 20.264C77.5554 19.9013 77.2154 19.584 76.8528 19.312C76.4901 19.04 76.0368 18.904 75.4928 18.904C74.9941 18.904 74.4727 19.108 73.9287 19.516C73.4301 19.924 72.9541 20.5813 72.5008 21.488C72.0474 22.3493 71.6848 23.46 71.4128 24.82C71.1408 26.18 71.0048 27.812 71.0048 29.716V40.936C71.0048 42.1147 71.0954 42.9533 71.2767 43.452C71.4581 43.9507 71.8888 44.336 72.5688 44.608C73.1581 44.8347 73.6794 44.9707 74.1328 45.016C74.5861 45.0613 74.9714 45.1067 75.2887 45.152C75.6061 45.152 75.8328 45.1973 75.9688 45.288C76.1501 45.3333 76.2408 45.5147 76.2408 45.832C76.2408 46.3307 75.8781 46.58 75.1528 46.58C74.5634 46.58 73.7474 46.5347 72.7048 46.444C71.7074 46.308 70.5061 46.24 69.1008 46.24C68.1941 46.24 67.3554 46.2853 66.5848 46.376C65.8594 46.4667 65.2248 46.512 64.6808 46.512C64.3181 46.512 64.0461 46.4893 63.8648 46.444C63.7288 46.3533 63.6608 46.1493 63.6608 45.832C63.6608 45.3787 63.8194 45.152 64.1367 45.152C64.4994 45.152 65.0661 45.016 65.8368 44.744C66.4261 44.5173 66.7888 44.132 66.9248 43.588C67.1061 42.9987 67.1968 42.1147 67.1968 40.936V22.916C67.1968 22.1 67.0381 21.556 66.7207 21.284C66.4487 21.012 66.1314 20.8533 65.7688 20.808C65.4514 20.7627 65.1568 20.74 64.8848 20.74C64.6128 20.74 64.4768 20.5813 64.4768 20.264C64.4768 19.9013 64.7034 19.6293 65.1568 19.448C65.6554 19.2213 66.1994 18.904 66.7887 18.496C67.8314 17.7707 68.6248 17.068 69.1688 16.388C69.7128 15.6627 70.1208 15.3 70.3928 15.3C70.6194 15.3 70.7327 15.4587 70.7327 15.776C70.7781 16.048 70.8008 16.4333 70.8008 16.932Z" fill="#FDFCF9"/>
<path d="M108.345 22.78L102.633 38.964C100.548 44.8573 99.0973 49.3227 98.2813 52.36C97.5106 55.3973 97.0799 57.0973 96.9893 57.46C96.7626 58.2307 96.5813 58.8653 96.4453 59.364C96.3546 59.8627 96.1959 60.2707 95.9693 60.588C95.7879 60.9053 95.4933 61.1093 95.0853 61.2C94.6773 61.336 94.0879 61.404 93.3173 61.404C92.5013 61.404 91.9119 61.2 91.5493 60.792C91.2319 60.4293 91.0733 59.8627 91.0733 59.092C91.0733 58.3667 91.1639 57.8453 91.3453 57.528C91.5266 57.2107 91.7759 56.984 92.0933 56.848C92.4559 56.712 92.8639 56.644 93.3173 56.644C93.8159 56.644 94.3826 56.5987 95.0173 56.508C95.3799 56.4627 95.6519 56.2133 95.8333 55.76C96.0146 55.3067 96.2639 54.6493 96.5813 53.788C97.2613 51.8387 97.7146 50.2067 97.9413 48.892C98.2133 47.6227 98.3493 46.784 98.3493 46.376C98.3493 46.0133 98.1906 45.356 97.8733 44.404L90.1893 20.128C89.9173 19.3573 89.5999 18.836 89.2373 18.564C88.8746 18.292 88.5119 18.1107 88.1493 18.02C87.7866 17.9293 87.4919 17.8613 87.2653 17.816C86.9933 17.7253 86.8573 17.4987 86.8573 17.136C86.8573 16.8187 86.9253 16.6373 87.0613 16.592C87.1519 16.5013 87.3559 16.456 87.6733 16.456C87.8999 16.456 88.3079 16.5013 88.8973 16.592C89.5319 16.6827 90.4159 16.728 91.5493 16.728C92.9999 16.728 94.1559 16.6827 95.0173 16.592C95.8786 16.5013 96.4906 16.456 96.8533 16.456C97.4426 16.456 97.7373 16.6827 97.7373 17.136C97.7373 17.4533 97.5559 17.68 97.1933 17.816C96.8759 17.9067 96.5133 17.9973 96.1053 18.088C95.7426 18.1787 95.3799 18.3147 95.0173 18.496C94.6999 18.6773 94.5413 18.972 94.5413 19.38C94.5413 19.8787 94.6093 20.4227 94.7453 21.012C94.8813 21.556 95.0626 22.2133 95.2893 22.984L100.117 39.372C100.299 39.9613 100.457 40.256 100.593 40.256C100.775 40.256 100.979 39.9387 101.205 39.304L106.373 23.324C106.555 22.78 106.713 22.2133 106.849 21.624C107.031 21.0347 107.121 20.3773 107.121 19.652C107.121 19.0627 106.917 18.6773 106.509 18.496C106.147 18.2693 105.739 18.1333 105.285 18.088C104.877 17.9973 104.469 17.9067 104.061 17.816C103.699 17.7253 103.517 17.4987 103.517 17.136C103.517 16.8187 103.585 16.6373 103.721 16.592C103.903 16.5013 104.175 16.456 104.537 16.456C104.719 16.456 105.149 16.5013 105.829 16.592C106.509 16.6827 107.439 16.728 108.617 16.728C109.705 16.728 110.567 16.6827 111.201 16.592C111.836 16.5013 112.221 16.456 112.357 16.456C112.856 16.456 113.105 16.6827 113.105 17.136C113.105 17.6347 112.947 17.884 112.629 17.884C112.312 17.884 111.768 18.0653 110.997 18.428C110.499 18.6547 110.045 19.108 109.637 19.788C109.229 20.468 108.799 21.4653 108.345 22.78Z" fill="#FDFCF9"/>
<path d="M126.457 15.3C127.862 15.3 128.95 15.3907 129.721 15.572C130.537 15.708 131.126 15.9347 131.489 16.252C131.897 16.524 132.146 16.864 132.237 17.272C132.328 17.6347 132.373 18.0427 132.373 18.496V21.284C132.373 22.1907 132.169 22.644 131.761 22.644C131.353 22.644 131.126 22.372 131.081 21.828C131.036 21.2387 130.718 20.4453 130.129 19.448C129.54 18.4507 128.814 17.7027 127.953 17.204C127.092 16.7053 126.185 16.456 125.233 16.456C123.918 16.456 122.808 16.932 121.901 17.884C120.994 18.7907 120.541 19.992 120.541 21.488C120.541 23.0747 120.994 24.3213 121.901 25.228C122.808 26.0893 124.168 26.9733 125.981 27.88C127.16 28.4693 128.225 29.036 129.177 29.58C130.129 30.124 130.945 30.736 131.625 31.416C132.305 32.096 132.826 32.912 133.189 33.864C133.597 34.7707 133.801 35.9267 133.801 37.332C133.801 40.5507 132.917 43.0893 131.149 44.948C129.381 46.8067 126.888 47.736 123.669 47.736C122.762 47.736 121.856 47.6453 120.949 47.464C120.088 47.2827 119.294 47.0107 118.569 46.648C117.889 46.3307 117.322 45.968 116.869 45.56C116.416 45.1067 116.189 44.608 116.189 44.064C116.189 43.7013 116.212 43.044 116.257 42.092C116.302 41.0947 116.325 39.8027 116.325 38.216C116.325 37.4453 116.574 37.06 117.073 37.06C117.481 37.06 117.73 37.4227 117.821 38.148C117.957 38.828 118.229 39.9613 118.637 41.548C119.09 43.18 119.702 44.4267 120.473 45.288C121.289 46.104 122.536 46.512 124.213 46.512C126.117 46.512 127.636 45.9 128.769 44.676C129.948 43.4067 130.537 41.752 130.537 39.712C130.537 37.8987 130.038 36.4933 129.041 35.496C128.044 34.4533 126.525 33.456 124.485 32.504C121.992 31.3253 120.133 30.124 118.909 28.9C117.73 27.676 117.141 26.0667 117.141 24.072C117.141 21.488 117.957 19.38 119.589 17.748C121.221 16.116 123.51 15.3 126.457 15.3Z" fill="#FDFCF9"/>
<path d="M174.974 17.884C177.603 16.2973 178.918 14.0307 178.918 11.084C178.918 8.908 178.329 7.11733 177.15 5.712C175.971 4.30667 174.498 3.604 172.73 3.604C171.143 3.604 169.851 4.148 168.854 5.236C167.902 6.27867 167.426 7.72933 167.426 9.588C167.426 11.8547 168.174 14.008 169.67 16.048L171.438 18.496C171.755 18.9493 172.073 19.176 172.39 19.176C172.662 19.176 172.957 19.0853 173.274 18.904L174.974 17.884ZM176.198 19.04L174.294 20.196C173.795 20.5133 173.546 20.7853 173.546 21.012C173.546 21.2387 173.614 21.4427 173.75 21.624L181.026 31.688C181.343 32.1413 181.593 32.368 181.774 32.368C181.955 32.368 182.25 32.028 182.658 31.348L184.562 28.084C185.151 27.0413 185.559 26.1573 185.786 25.432C186.058 24.6613 186.194 24.0493 186.194 23.596C186.194 23.0067 185.99 22.6213 185.582 22.44C185.174 22.2133 184.721 22.0773 184.222 22.032C183.769 21.9413 183.338 21.8507 182.93 21.76C182.522 21.624 182.318 21.3747 182.318 21.012C182.318 20.3773 182.771 20.06 183.678 20.06C184.086 20.06 184.766 20.128 185.718 20.264C186.67 20.4 187.871 20.468 189.322 20.468C190.138 20.468 190.818 20.4227 191.362 20.332C191.951 20.2413 192.405 20.196 192.722 20.196C193.221 20.196 193.47 20.4453 193.47 20.944C193.47 21.4427 193.221 21.7373 192.722 21.828C192.269 21.8733 191.657 22.1 190.886 22.508C189.979 23.0067 189.027 23.9133 188.03 25.228C187.078 26.4973 185.99 28.22 184.766 30.396L183.134 33.252C182.953 33.6147 182.862 33.8867 182.862 34.068C182.862 34.2493 182.998 34.4987 183.27 34.816L186.534 39.44C187.259 40.4373 187.939 41.344 188.574 42.16C189.209 42.976 190.047 43.6107 191.09 44.064C191.861 44.3813 192.427 44.5627 192.79 44.608C193.198 44.6533 193.402 44.9027 193.402 45.356C193.402 46.0813 192.926 46.444 191.974 46.444C191.203 46.444 190.342 46.376 189.39 46.24C188.438 46.0587 187.441 45.968 186.398 45.968C185.355 45.968 184.358 46.0587 183.406 46.24C182.499 46.376 181.638 46.444 180.822 46.444C179.87 46.444 179.394 46.1267 179.394 45.492C179.394 45.1747 179.575 44.9707 179.938 44.88C180.301 44.7893 180.709 44.7213 181.162 44.676C181.615 44.5853 182.023 44.4493 182.386 44.268C182.749 44.0867 182.93 43.724 182.93 43.18C182.93 42.9533 182.862 42.6133 182.726 42.16C182.59 41.7067 182.341 41.2307 181.978 40.732L180.822 39.032C180.686 38.8507 180.459 38.76 180.142 38.76C179.825 38.76 179.439 39.1453 178.986 39.916C178.533 40.6413 177.785 41.5707 176.742 42.704C173.75 45.968 170.486 47.6 166.95 47.6C165.545 47.6 164.253 47.3053 163.074 46.716C161.895 46.1267 160.875 45.3107 160.014 44.268C159.198 43.2253 158.563 41.9787 158.11 40.528C157.657 39.0773 157.43 37.468 157.43 35.7C157.43 33.3427 158.042 31.1667 159.266 29.172C160.49 27.1773 162.303 25.4547 164.706 24.004L167.29 22.44C167.471 22.3493 167.585 22.236 167.63 22.1C167.721 21.964 167.766 21.8507 167.766 21.76C167.766 21.488 167.698 21.2613 167.562 21.08L166.406 19.448C165.499 18.1787 164.819 16.9547 164.366 15.776C163.958 14.5973 163.754 13.2827 163.754 11.832C163.754 10.5173 163.981 9.29333 164.434 8.16C164.933 6.98133 165.613 5.984 166.474 5.168C167.335 4.30667 168.31 3.62667 169.398 3.128C170.531 2.62933 171.755 2.38 173.07 2.38C174.475 2.38 175.767 2.60667 176.946 3.06C178.125 3.468 179.122 4.05733 179.938 4.828C180.754 5.55333 181.389 6.43733 181.842 7.48C182.295 8.52267 182.522 9.63333 182.522 10.812C182.522 11.764 182.386 12.6253 182.114 13.396C181.842 14.1213 181.434 14.8013 180.89 15.436C180.391 16.0707 179.734 16.6827 178.918 17.272C178.147 17.816 177.241 18.4053 176.198 19.04ZM169.67 24.072C169.443 23.8 169.217 23.664 168.99 23.664C168.673 23.664 168.401 23.7547 168.174 23.936L166.338 25.228C165.567 25.772 164.887 26.316 164.298 26.86C163.709 27.404 163.21 28.016 162.802 28.696C162.394 29.3307 162.077 30.056 161.85 30.872C161.669 31.688 161.578 32.6627 161.578 33.796C161.578 35.292 161.782 36.6747 162.19 37.944C162.598 39.2133 163.165 40.324 163.89 41.276C164.615 42.1827 165.454 42.8853 166.406 43.384C167.403 43.8827 168.469 44.132 169.602 44.132C170.735 44.132 171.846 43.86 172.934 43.316C174.067 42.7267 175.065 42.0467 175.926 41.276C176.787 40.5053 177.49 39.7347 178.034 38.964C178.578 38.1933 178.85 37.5813 178.85 37.128C178.85 36.856 178.759 36.584 178.578 36.312L169.67 24.072Z" fill="#FDFCF9"/>
<path d="M217.49 3.604H224.153C224.471 3.604 224.72 3.62667 224.901 3.672C225.128 3.71733 225.287 3.92133 225.378 4.284L235.509 35.292C235.645 35.6547 235.804 35.836 235.985 35.836C236.167 35.836 236.326 35.632 236.462 35.224L246.322 4.828C246.412 4.46533 246.525 4.17067 246.661 3.944C246.797 3.71733 247.047 3.604 247.41 3.604H254.277C254.957 3.604 255.298 3.92133 255.298 4.556C255.298 4.91867 255.184 5.168 254.957 5.304C254.776 5.39467 254.527 5.46267 254.21 5.508C253.938 5.508 253.597 5.53067 253.189 5.576C252.781 5.576 252.374 5.66667 251.965 5.848C251.467 6.07467 251.15 6.392 251.014 6.8C250.878 7.16267 250.809 7.86533 250.809 8.908V10.336L251.693 40.052C251.693 40.6867 251.693 41.2307 251.693 41.684C251.739 42.092 251.784 42.4547 251.829 42.772C251.92 43.044 252.056 43.2707 252.238 43.452C252.419 43.6333 252.691 43.8147 253.053 43.996C253.461 44.1773 253.869 44.2907 254.277 44.336C254.685 44.336 255.026 44.3587 255.298 44.404C255.615 44.4493 255.864 44.54 256.046 44.676C256.227 44.812 256.318 45.084 256.318 45.492C256.318 46.1267 255.864 46.444 254.957 46.444C254.459 46.444 253.756 46.3987 252.85 46.308C251.943 46.172 250.832 46.104 249.518 46.104C248.158 46.104 247.047 46.172 246.186 46.308C245.324 46.3987 244.644 46.444 244.145 46.444C243.193 46.444 242.717 46.0813 242.717 45.356C242.717 44.9933 242.831 44.7667 243.057 44.676C243.284 44.54 243.556 44.4493 243.873 44.404C244.236 44.3587 244.621 44.3133 245.029 44.268C245.483 44.2227 245.936 44.064 246.389 43.792C246.843 43.5653 247.115 43.2027 247.205 42.704C247.341 42.16 247.41 41.2987 247.41 40.12V38.488L246.729 11.492C246.729 10.8573 246.684 10.54 246.593 10.54C246.412 10.54 246.276 10.6987 246.186 11.016L235.102 44.54C234.966 44.9027 234.807 45.084 234.625 45.084C234.444 45.084 234.285 44.9027 234.149 44.54L223.133 10.812C223.043 10.6307 222.884 10.54 222.658 10.54C222.522 10.54 222.453 10.8573 222.453 11.492L221.434 33.524C221.388 34.2947 221.343 35.088 221.298 35.904C221.298 36.6747 221.298 37.4453 221.298 38.216C221.298 40.3467 221.411 41.9333 221.637 42.976C221.909 43.9733 222.612 44.472 223.745 44.472C223.972 44.472 224.176 44.472 224.357 44.472C224.584 44.4267 224.811 44.404 225.037 44.404C225.627 44.404 225.921 44.7667 225.921 45.492C225.921 46.172 225.377 46.512 224.289 46.512C223.655 46.512 223.02 46.4667 222.385 46.376C221.751 46.2853 221.116 46.24 220.481 46.24C219.665 46.24 218.917 46.2853 218.237 46.376C217.603 46.4667 217.013 46.512 216.469 46.512C215.427 46.512 214.905 46.1267 214.905 45.356C214.905 44.7213 215.291 44.404 216.061 44.404C216.243 44.404 216.379 44.4267 216.469 44.472C216.605 44.472 216.741 44.472 216.877 44.472C217.421 44.472 217.852 44.2907 218.169 43.928C218.532 43.52 218.804 42.8853 218.985 42.024C219.212 41.1627 219.371 40.052 219.462 38.692C219.598 37.2867 219.711 35.564 219.801 33.524L221.025 9.18V8.432C221.025 6.98133 220.527 6.09733 219.529 5.78C219.121 5.644 218.713 5.576 218.305 5.576C217.943 5.53067 217.626 5.508 217.354 5.508C217.082 5.46267 216.855 5.39467 216.673 5.304C216.537 5.168 216.469 4.91867 216.469 4.556C216.469 3.92133 216.81 3.604 217.49 3.604Z" fill="#FDFCF9"/>
<path d="M279.959 22.984V40.052C279.959 42.8627 280.571 44.268 281.795 44.268C282.294 44.268 282.747 44.0187 283.155 43.52C283.609 43.0213 283.971 42.772 284.243 42.772C284.561 42.772 284.719 42.9307 284.719 43.248C284.719 43.6107 284.515 44.0413 284.107 44.54C283.745 44.9933 283.291 45.4467 282.747 45.9C282.203 46.3533 281.614 46.716 280.979 46.988C280.39 47.3053 279.869 47.464 279.415 47.464C278.509 47.464 277.806 47.124 277.307 46.444C276.854 45.7187 276.423 44.5627 276.015 42.976H275.743C274.021 44.4267 272.479 45.5827 271.119 46.444C269.805 47.3053 268.422 47.736 266.971 47.736C265.339 47.736 264.07 47.26 263.163 46.308C262.257 45.3107 261.803 43.996 261.803 42.364C261.803 41.0947 262.098 39.916 262.687 38.828C263.277 37.6947 264.161 36.6067 265.339 35.564C266.563 34.476 268.059 33.3653 269.827 32.232C271.595 31.0987 273.635 29.8747 275.947 28.56V22.576C275.947 20.4907 275.721 18.9947 275.267 18.088C274.859 17.1813 273.953 16.728 272.547 16.728C271.369 16.728 270.258 17.136 269.215 17.952C268.173 18.768 267.447 19.7427 267.039 20.876C266.541 22.2813 266.042 23.4827 265.543 24.48C265.045 25.432 264.161 25.908 262.891 25.908C262.574 25.908 262.302 25.8173 262.075 25.636C261.849 25.4093 261.735 25.1147 261.735 24.752C261.735 23.936 262.03 22.984 262.619 21.896C263.209 20.808 264.047 19.7653 265.135 18.768C266.223 17.7707 267.515 16.932 269.011 16.252C270.507 15.572 272.139 15.232 273.907 15.232C275.313 15.232 276.423 15.4133 277.239 15.776C278.055 16.1387 278.667 16.66 279.075 17.34C279.483 18.02 279.733 18.836 279.823 19.788C279.914 20.74 279.959 21.8053 279.959 22.984ZM276.015 31.28C276.015 30.8267 275.879 30.6 275.607 30.6C275.471 30.6 275.245 30.6907 274.927 30.872L272.887 32.028C268.263 34.7027 265.951 37.536 265.951 40.528C265.951 41.7973 266.269 42.8173 266.903 43.588C267.538 44.3133 268.422 44.676 269.555 44.676C270.235 44.676 270.938 44.5173 271.663 44.2C272.434 43.8827 273.137 43.4293 273.771 42.84C274.451 42.2053 274.995 41.4573 275.403 40.596C275.811 39.6893 276.015 38.6693 276.015 37.536V31.28Z" fill="#FDFCF9"/>
<path d="M296.162 16.932V20.808C296.162 21.1253 296.253 21.284 296.434 21.284C296.57 21.284 296.729 21.1707 296.91 20.944L298.134 19.176C300.038 16.592 302.056 15.3 304.186 15.3C305.32 15.3 306.204 15.6173 306.838 16.252C307.473 16.8413 307.79 17.5893 307.79 18.496C307.79 19.4027 307.541 20.1507 307.042 20.74C306.589 21.284 306.068 21.556 305.478 21.556C305.025 21.556 304.617 21.42 304.254 21.148C303.937 20.876 303.597 20.5813 303.234 20.264C302.917 19.9013 302.577 19.584 302.214 19.312C301.852 19.04 301.398 18.904 300.854 18.904C300.356 18.904 299.834 19.108 299.29 19.516C298.792 19.924 298.316 20.5813 297.862 21.488C297.409 22.3493 297.046 23.46 296.774 24.82C296.502 26.18 296.366 27.812 296.366 29.716V40.936C296.366 42.1147 296.457 42.9533 296.638 43.452C296.82 43.9507 297.25 44.336 297.93 44.608C298.52 44.8347 299.041 44.9707 299.494 45.016C299.948 45.0613 300.333 45.1067 300.65 45.152C300.968 45.152 301.194 45.1973 301.33 45.288C301.512 45.3333 301.602 45.5147 301.602 45.832C301.602 46.3307 301.24 46.58 300.514 46.58C299.925 46.58 299.109 46.5347 298.066 46.444C297.069 46.308 295.868 46.24 294.462 46.24C293.556 46.24 292.717 46.2853 291.946 46.376C291.221 46.4667 290.586 46.512 290.042 46.512C289.68 46.512 289.408 46.4893 289.226 46.444C289.09 46.3533 289.022 46.1493 289.022 45.832C289.022 45.3787 289.181 45.152 289.498 45.152C289.861 45.152 290.428 45.016 291.198 44.744C291.788 44.5173 292.15 44.132 292.286 43.588C292.468 42.9987 292.558 42.1147 292.558 40.936V22.916C292.558 22.1 292.4 21.556 292.082 21.284C291.81 21.012 291.493 20.8533 291.13 20.808C290.813 20.7627 290.518 20.74 290.246 20.74C289.974 20.74 289.838 20.5813 289.838 20.264C289.838 19.9013 290.065 19.6293 290.518 19.448C291.017 19.2213 291.561 18.904 292.15 18.496C293.193 17.7707 293.986 17.068 294.53 16.388C295.074 15.6627 295.482 15.3 295.754 15.3C295.981 15.3 296.094 15.4587 296.094 15.776C296.14 16.048 296.162 16.4333 296.162 16.932Z" fill="#FDFCF9"/>
<path d="M325.403 15.3C327.715 15.3 329.529 15.6627 330.843 16.388C332.203 17.1133 332.883 18.1333 332.883 19.448C332.883 22.2587 332.543 23.664 331.863 23.664C331.41 23.664 331.093 23.4147 330.911 22.916C330.73 22.372 330.39 21.624 329.891 20.672C329.121 19.312 328.327 18.292 327.511 17.612C326.741 16.932 325.766 16.592 324.587 16.592C323.454 16.592 322.366 16.9093 321.323 17.544C320.326 18.1333 319.442 19.04 318.671 20.264C317.901 21.488 317.289 23.0067 316.835 24.82C316.382 26.6333 316.155 28.7187 316.155 31.076C316.155 35.7 317.039 39.2587 318.807 41.752C320.575 44.2 322.887 45.424 325.743 45.424C326.877 45.424 327.851 45.2427 328.667 44.88C329.529 44.5173 330.254 44.132 330.843 43.724C331.433 43.2707 331.886 42.8627 332.203 42.5C332.521 42.1373 332.747 41.956 332.883 41.956C333.201 41.956 333.359 42.092 333.359 42.364C333.359 42.6813 333.133 43.1573 332.679 43.792C332.271 44.3813 331.682 44.9707 330.911 45.56C330.141 46.1493 329.211 46.648 328.123 47.056C327.035 47.5093 325.811 47.736 324.451 47.736C322.683 47.736 321.029 47.3507 319.487 46.58C317.991 45.8093 316.677 44.7213 315.543 43.316C314.41 41.8653 313.526 40.1427 312.891 38.148C312.257 36.1533 311.939 33.932 311.939 31.484C311.939 29.036 312.302 26.8147 313.027 24.82C313.798 22.8253 314.795 21.1253 316.019 19.72C317.289 18.3147 318.739 17.2267 320.371 16.456C322.003 15.6853 323.681 15.3 325.403 15.3Z" fill="#FDFCF9"/>
<path d="M352.624 15.3C354.755 15.3 356.659 15.6853 358.336 16.456C360.059 17.2267 361.487 18.3147 362.62 19.72C363.799 21.1253 364.683 22.8253 365.272 24.82C365.907 26.8147 366.224 29.0133 366.224 31.416C366.224 33.864 365.907 36.108 365.272 38.148C364.637 40.1427 363.708 41.8653 362.484 43.316C361.305 44.7213 359.855 45.8093 358.132 46.58C356.409 47.3507 354.46 47.736 352.284 47.736C350.335 47.736 348.567 47.328 346.98 46.512C345.393 45.7413 344.033 44.6533 342.9 43.248C341.767 41.7973 340.883 40.0747 340.248 38.08C339.613 36.0853 339.296 33.8867 339.296 31.484C339.296 29.036 339.613 26.8147 340.248 24.82C340.928 22.8253 341.857 21.1253 343.036 19.72C344.26 18.3147 345.688 17.2267 347.32 16.456C348.952 15.6853 350.72 15.3 352.624 15.3ZM352.76 16.524C349.904 16.524 347.637 17.7707 345.96 20.264C344.328 22.712 343.512 26.316 343.512 31.076C343.512 33.4787 343.739 35.632 344.192 37.536C344.645 39.3947 345.28 41.004 346.096 42.364C346.912 43.6787 347.864 44.6987 348.952 45.424C350.085 46.104 351.309 46.444 352.624 46.444C355.525 46.444 357.792 45.2427 359.424 42.84C361.056 40.392 361.872 36.8333 361.872 32.164C361.872 27.1773 361.033 23.324 359.356 20.604C357.724 17.884 355.525 16.524 352.76 16.524Z" fill="#FDFCF9"/>
<path d="M404.264 6.256L414.328 38.42C414.872 40.1427 415.348 41.48 415.756 42.432C416.21 43.384 416.754 44.0413 417.388 44.404C417.66 44.54 417.955 44.6307 418.272 44.676C418.59 44.7213 418.884 44.7667 419.156 44.812C419.428 44.8573 419.655 44.948 419.836 45.084C420.063 45.1747 420.176 45.356 420.176 45.628C420.176 46.2173 419.723 46.512 418.816 46.512C418.454 46.512 417.751 46.444 416.708 46.308C415.666 46.172 414.238 46.104 412.424 46.104C411.382 46.104 410.43 46.172 409.568 46.308C408.707 46.3987 407.891 46.444 407.12 46.444C406.622 46.444 406.259 46.3987 406.032 46.308C405.806 46.2173 405.692 45.9907 405.692 45.628C405.692 44.948 406.418 44.5627 407.868 44.472C408.775 44.3813 409.41 44.2907 409.772 44.2C410.18 44.064 410.384 43.6333 410.384 42.908C410.384 42.772 410.339 42.432 410.248 41.888C410.203 41.2987 410.067 40.6187 409.84 39.848L407.188 31.348C407.052 30.804 406.758 30.532 406.304 30.532H396.036C395.81 30.532 395.606 30.6227 395.424 30.804C395.243 30.94 395.107 31.1667 395.016 31.484L392.84 39.644C392.523 40.7773 392.364 41.7067 392.364 42.432C392.364 43.112 392.523 43.588 392.84 43.86C393.203 44.0867 393.702 44.2453 394.336 44.336C395.334 44.472 396.059 44.6307 396.512 44.812C397.011 44.9933 397.26 45.3333 397.26 45.832C397.26 46.376 396.852 46.648 396.036 46.648C395.538 46.648 394.835 46.5573 393.928 46.376C393.067 46.1947 392.024 46.104 390.8 46.104C389.894 46.104 389.055 46.1947 388.284 46.376C387.559 46.512 386.902 46.58 386.312 46.58C385.587 46.58 385.224 46.2853 385.224 45.696C385.224 45.288 385.36 45.0387 385.632 44.948C385.859 44.8573 386.176 44.7893 386.584 44.744C386.947 44.6533 387.355 44.5627 387.808 44.472C388.262 44.336 388.692 44.0413 389.1 43.588C389.463 43.1347 389.803 42.4093 390.12 41.412C390.483 40.3693 390.914 39.032 391.412 37.4L401.408 4.012C401.59 3.51333 401.726 3.128 401.816 2.856C401.907 2.53867 402.134 2.38 402.496 2.38C402.995 2.38 403.312 2.74267 403.448 3.468C403.63 4.148 403.902 5.07733 404.264 6.256ZM401.34 13.192C401.204 12.784 401.068 12.58 400.932 12.58C400.796 12.58 400.66 12.7613 400.524 13.124L396.376 27.336C396.286 27.608 396.24 27.7893 396.24 27.88C396.24 28.1973 396.444 28.356 396.852 28.356H405.216C405.715 28.356 405.964 28.1293 405.964 27.676C405.964 27.4493 405.942 27.2907 405.896 27.2L401.34 13.192Z" fill="#FDFCF9"/>
<path d="M429.559 16.932V20.128C429.559 20.6267 429.65 20.876 429.831 20.876C430.013 20.876 430.285 20.5587 430.647 19.924C431.055 19.244 431.69 18.5187 432.551 17.748C433.458 16.932 434.365 16.32 435.271 15.912C436.223 15.504 437.243 15.3 438.331 15.3C440.87 15.3 442.91 16.2293 444.451 18.088C445.993 19.9467 446.763 22.4627 446.763 25.636V42.296C446.763 43.248 446.945 43.9053 447.307 44.268C447.67 44.5853 448.078 44.812 448.531 44.948C448.985 45.0387 449.393 45.1293 449.755 45.22C450.118 45.2653 450.299 45.4693 450.299 45.832C450.299 46.1493 450.209 46.3533 450.027 46.444C449.891 46.4893 449.642 46.512 449.279 46.512C448.962 46.512 448.441 46.4667 447.715 46.376C446.99 46.2853 446.038 46.24 444.859 46.24C443.907 46.24 443.069 46.2853 442.343 46.376C441.663 46.4667 441.074 46.512 440.575 46.512C440.167 46.512 439.872 46.4893 439.691 46.444C439.51 46.3987 439.419 46.1947 439.419 45.832C439.419 45.4693 439.6 45.2653 439.963 45.22C440.326 45.1293 440.734 45.016 441.187 44.88C441.64 44.744 442.048 44.5173 442.411 44.2C442.774 43.8373 442.955 43.2027 442.955 42.296V28.628C442.955 25.092 442.502 22.44 441.595 20.672C440.689 18.904 439.057 18.02 436.699 18.02C434.251 18.02 432.483 19.0173 431.395 21.012C430.307 22.9613 429.763 25.908 429.763 29.852V42.296C429.763 43.248 429.945 43.9053 430.307 44.268C430.67 44.5853 431.078 44.812 431.531 44.948C431.985 45.0387 432.393 45.1293 432.755 45.22C433.118 45.2653 433.299 45.4693 433.299 45.832C433.299 46.1493 433.209 46.3533 433.027 46.444C432.891 46.4893 432.642 46.512 432.279 46.512C431.962 46.512 431.441 46.4667 430.715 46.376C429.99 46.2853 429.038 46.24 427.859 46.24C426.998 46.24 426.205 46.2853 425.479 46.376C424.754 46.4667 424.074 46.512 423.439 46.512C423.077 46.512 422.805 46.4893 422.623 46.444C422.487 46.3533 422.419 46.1493 422.419 45.832C422.419 45.4693 422.6 45.2653 422.963 45.22C423.326 45.1293 423.734 45.016 424.187 44.88C424.64 44.744 425.048 44.5173 425.411 44.2C425.774 43.8373 425.955 43.2027 425.955 42.296V22.576C425.955 21.896 425.797 21.4653 425.479 21.284C425.207 21.0573 424.89 20.9213 424.527 20.876C424.21 20.8307 423.915 20.7853 423.643 20.74C423.371 20.6947 423.235 20.536 423.235 20.264C423.235 19.856 423.462 19.584 423.915 19.448C424.414 19.2667 424.912 18.9947 425.411 18.632C426.59 17.816 427.451 17.068 427.995 16.388C428.539 15.6627 428.925 15.3 429.151 15.3C429.378 15.3 429.491 15.4587 429.491 15.776C429.537 16.048 429.559 16.4333 429.559 16.932Z" fill="#FDFCF9"/>
<path d="M462.96 15.368C462.96 15.8213 463.006 16.1387 463.096 16.32C463.232 16.456 463.504 16.524 463.912 16.524H468.944C469.352 16.524 469.602 16.592 469.692 16.728C469.783 16.8187 469.828 17.0453 469.828 17.408V17.68C469.828 18.088 469.76 18.3827 469.624 18.564C469.534 18.7453 469.307 18.836 468.944 18.836H463.844C463.436 18.836 463.164 18.9267 463.028 19.108C462.938 19.244 462.892 19.5387 462.892 19.992V39.848C462.892 43.2933 463.98 45.016 466.156 45.016C466.746 45.016 467.29 44.88 467.788 44.608C468.287 44.336 468.718 44.064 469.08 43.792C469.488 43.4747 469.828 43.18 470.1 42.908C470.372 42.636 470.576 42.5 470.712 42.5C470.894 42.5 470.984 42.6813 470.984 43.044C470.984 43.2707 470.803 43.656 470.44 44.2C470.123 44.6987 469.647 45.22 469.012 45.764C468.423 46.2627 467.72 46.716 466.904 47.124C466.134 47.532 465.318 47.736 464.456 47.736C462.688 47.736 461.306 47.0333 460.308 45.628C459.356 44.2227 458.88 42.16 458.88 39.44V36.244L459.084 19.992C459.084 19.5387 459.016 19.244 458.88 19.108C458.79 18.9267 458.54 18.836 458.132 18.836H457.112C456.432 18.836 456.092 18.632 456.092 18.224C456.092 17.8613 456.432 17.4307 457.112 16.932C457.838 16.388 458.699 15.5267 459.696 14.348C460.694 13.1693 461.351 12.1493 461.668 11.288C462.031 10.4267 462.371 9.996 462.688 9.996C462.87 9.996 462.96 10.268 462.96 10.812V15.368Z" fill="#FDFCF9"/>
<path d="M489.607 15.3C491.738 15.3 493.642 15.6853 495.319 16.456C497.042 17.2267 498.47 18.3147 499.603 19.72C500.782 21.1253 501.666 22.8253 502.255 24.82C502.89 26.8147 503.207 29.0133 503.207 31.416C503.207 33.864 502.89 36.108 502.255 38.148C501.62 40.1427 500.691 41.8653 499.467 43.316C498.288 44.7213 496.838 45.8093 495.115 46.58C493.392 47.3507 491.443 47.736 489.267 47.736C487.318 47.736 485.55 47.328 483.963 46.512C482.376 45.7413 481.016 44.6533 479.883 43.248C478.75 41.7973 477.866 40.0747 477.231 38.08C476.596 36.0853 476.279 33.8867 476.279 31.484C476.279 29.036 476.596 26.8147 477.231 24.82C477.911 22.8253 478.84 21.1253 480.019 19.72C481.243 18.3147 482.671 17.2267 484.303 16.456C485.935 15.6853 487.703 15.3 489.607 15.3ZM489.743 16.524C486.887 16.524 484.62 17.7707 482.943 20.264C481.311 22.712 480.495 26.316 480.495 31.076C480.495 33.4787 480.722 35.632 481.175 37.536C481.628 39.3947 482.263 41.004 483.079 42.364C483.895 43.6787 484.847 44.6987 485.935 45.424C487.068 46.104 488.292 46.444 489.607 46.444C492.508 46.444 494.775 45.2427 496.407 42.84C498.039 40.392 498.855 36.8333 498.855 32.164C498.855 27.1773 498.016 23.324 496.339 20.604C494.707 17.884 492.508 16.524 489.743 16.524ZM488.519 0H491.103L497.019 11.628H495.727L489.811 3.876L483.895 11.628H482.603L488.519 0Z" fill="#FDFCF9"/>
<path d="M516.211 16.932V20.128C516.211 20.6267 516.302 20.876 516.483 20.876C516.665 20.876 516.937 20.5587 517.299 19.924C517.707 19.244 518.342 18.5187 519.203 17.748C520.11 16.932 521.017 16.32 521.923 15.912C522.875 15.504 523.895 15.3 524.983 15.3C527.522 15.3 529.562 16.2293 531.103 18.088C532.645 19.9467 533.415 22.4627 533.415 25.636V42.296C533.415 43.248 533.597 43.9053 533.959 44.268C534.322 44.5853 534.73 44.812 535.183 44.948C535.637 45.0387 536.045 45.1293 536.407 45.22C536.77 45.2653 536.951 45.4693 536.951 45.832C536.951 46.1493 536.861 46.3533 536.679 46.444C536.543 46.4893 536.294 46.512 535.931 46.512C535.614 46.512 535.093 46.4667 534.367 46.376C533.642 46.2853 532.69 46.24 531.511 46.24C530.559 46.24 529.721 46.2853 528.995 46.376C528.315 46.4667 527.726 46.512 527.227 46.512C526.819 46.512 526.525 46.4893 526.343 46.444C526.162 46.3987 526.071 46.1947 526.071 45.832C526.071 45.4693 526.253 45.2653 526.615 45.22C526.978 45.1293 527.386 45.016 527.839 44.88C528.293 44.744 528.701 44.5173 529.063 44.2C529.426 43.8373 529.607 43.2027 529.607 42.296V28.628C529.607 25.092 529.154 22.44 528.247 20.672C527.341 18.904 525.709 18.02 523.351 18.02C520.903 18.02 519.135 19.0173 518.047 21.012C516.959 22.9613 516.415 25.908 516.415 29.852V42.296C516.415 43.248 516.597 43.9053 516.959 44.268C517.322 44.5853 517.73 44.812 518.183 44.948C518.637 45.0387 519.045 45.1293 519.407 45.22C519.77 45.2653 519.951 45.4693 519.951 45.832C519.951 46.1493 519.861 46.3533 519.679 46.444C519.543 46.4893 519.294 46.512 518.931 46.512C518.614 46.512 518.093 46.4667 517.367 46.376C516.642 46.2853 515.69 46.24 514.511 46.24C513.65 46.24 512.857 46.2853 512.131 46.376C511.406 46.4667 510.726 46.512 510.091 46.512C509.729 46.512 509.457 46.4893 509.275 46.444C509.139 46.3533 509.071 46.1493 509.071 45.832C509.071 45.4693 509.253 45.2653 509.615 45.22C509.978 45.1293 510.386 45.016 510.839 44.88C511.293 44.744 511.701 44.5173 512.063 44.2C512.426 43.8373 512.607 43.2027 512.607 42.296V22.576C512.607 21.896 512.449 21.4653 512.131 21.284C511.859 21.0573 511.542 20.9213 511.179 20.876C510.862 20.8307 510.567 20.7853 510.295 20.74C510.023 20.6947 509.887 20.536 509.887 20.264C509.887 19.856 510.114 19.584 510.567 19.448C511.066 19.2667 511.565 18.9947 512.063 18.632C513.242 17.816 514.103 17.068 514.647 16.388C515.191 15.6627 515.577 15.3 515.803 15.3C516.03 15.3 516.143 15.4587 516.143 15.776C516.189 16.048 516.211 16.4333 516.211 16.932Z" fill="#FDFCF9"/>
<path d="M547.913 3.604C548.547 3.604 549.114 3.944 549.613 4.624C550.111 5.304 550.361 6.09733 550.361 7.004C550.361 7.86533 550.111 8.636 549.613 9.316C549.159 9.95067 548.593 10.268 547.913 10.268C547.278 10.268 546.711 9.95067 546.213 9.316C545.759 8.68134 545.533 7.91067 545.533 7.004C545.533 6.09733 545.759 5.304 546.213 4.624C546.711 3.944 547.278 3.604 547.913 3.604ZM550.021 16.932V42.296C550.021 43.248 550.202 43.9053 550.565 44.268C550.973 44.5853 551.403 44.812 551.857 44.948C552.355 45.0387 552.786 45.1293 553.149 45.22C553.557 45.2653 553.761 45.4693 553.761 45.832C553.761 46.1947 553.67 46.3987 553.489 46.444C553.353 46.4893 553.103 46.512 552.741 46.512C552.469 46.512 551.925 46.4667 551.109 46.376C550.338 46.2853 549.295 46.24 547.981 46.24C546.938 46.24 546.009 46.2853 545.193 46.376C544.422 46.4667 543.787 46.512 543.289 46.512C542.926 46.512 542.631 46.4893 542.405 46.444C542.223 46.3533 542.133 46.1493 542.133 45.832C542.133 45.4693 542.337 45.2653 542.745 45.22C543.198 45.1293 543.674 45.0387 544.173 44.948C544.671 44.812 545.125 44.5627 545.533 44.2C545.986 43.8373 546.213 43.2027 546.213 42.296V23.596C546.213 21.9187 545.51 21.08 544.105 21.08C543.742 21.08 543.447 21.0573 543.221 21.012C542.994 20.9213 542.881 20.7173 542.881 20.4C542.881 19.9467 543.13 19.6293 543.629 19.448C544.173 19.2667 544.739 18.9267 545.329 18.428C546.598 17.7027 547.55 17.0453 548.185 16.456C548.819 15.8667 549.273 15.572 549.545 15.572C549.771 15.572 549.907 15.6853 549.953 15.912C549.998 16.0933 550.021 16.4333 550.021 16.932Z" fill="#FDFCF9"/>
<path d="M572.607 15.3C574.737 15.3 576.641 15.6853 578.319 16.456C580.041 17.2267 581.469 18.3147 582.603 19.72C583.781 21.1253 584.665 22.8253 585.255 24.82C585.889 26.8147 586.207 29.0133 586.207 31.416C586.207 33.864 585.889 36.108 585.255 38.148C584.62 40.1427 583.691 41.8653 582.467 43.316C581.288 44.7213 579.837 45.8093 578.115 46.58C576.392 47.3507 574.443 47.736 572.267 47.736C570.317 47.736 568.549 47.328 566.963 46.512C565.376 45.7413 564.016 44.6533 562.883 43.248C561.749 41.7973 560.865 40.0747 560.231 38.08C559.596 36.0853 559.279 33.8867 559.279 31.484C559.279 29.036 559.596 26.8147 560.231 24.82C560.911 22.8253 561.84 21.1253 563.019 19.72C564.243 18.3147 565.671 17.2267 567.303 16.456C568.935 15.6853 570.703 15.3 572.607 15.3ZM572.743 16.524C569.887 16.524 567.62 17.7707 565.943 20.264C564.311 22.712 563.495 26.316 563.495 31.076C563.495 33.4787 563.721 35.632 564.175 37.536C564.628 39.3947 565.263 41.004 566.079 42.364C566.895 43.6787 567.847 44.6987 568.935 45.424C570.068 46.104 571.292 46.444 572.607 46.444C575.508 46.444 577.775 45.2427 579.407 42.84C581.039 40.392 581.855 36.8333 581.855 32.164C581.855 27.1773 581.016 23.324 579.339 20.604C577.707 17.884 575.508 16.524 572.743 16.524Z" fill="#FDFCF9"/>
</svg>
