<svg xmlns="http://www.w3.org/2000/svg" xmlns:xlink="http://www.w3.org/1999/xlink" xmlns:inkscape="http://www.inkscape.org/namespaces/inkscape" version="1.1" width="4640.48" height="908.748" viewBox="0 0 4640.48 908.748">
<path transform="matrix(1,0,0,-1,0,908.748)" d="M5.9069 250.671C-6.9432 302.072 1.1727 361.926 30.2544 430.234 59.3362 498.543 102.621 566.175 160.108 633.131 160.784 635.16 161.122 636.85 161.122 638.203L160.108 643.275C145.229 657.478 134.07 671.005 126.63 683.855 119.191 696.705 114.287 713.105 111.92 733.057 109.553 753.008 114.456 774.143 126.63 796.462 132.041 799.167 135.422 800.52 136.775 800.52 138.804 800.52 139.818 798.153 139.818 793.419 110.06 744.047 119.191 697.381 167.209 653.42L174.311 649.362C194.6 672.357 220.47 696.536 251.919 721.898 283.367 747.26 309.913 767.042 331.555 781.245L363.004 802.549C413.728 833.66 465.129 857.162 517.205 873.055 569.282 888.949 614.257 896.388 652.131 895.374 690.005 894.359 722.807 887.765 750.536 875.591 808.699 845.833 822.902 805.592 793.144 754.868 765.415 707.526 710.633 665.256 628.798 628.058 525.321 580.716 425.226 562.117 328.512 572.262 272.377 577.672 224.358 593.904 184.456 620.957 184.456 620.28 183.779 619.604 182.427 618.928L180.398 616.899C171.605 604.049 158.417 585.619 140.833 561.61 123.249 537.6 110.398 519.678 102.283 507.842 94.1667 496.007 84.0219 479.437 71.8482 458.133 59.6744 436.829 50.7131 418.23 44.9644 402.336 39.2157 386.443 34.1433 367.167 29.7472 344.511 25.3511 321.854 23.1531 298.352 23.1531 274.004 23.1531 244.246 34.9887 214.826 58.6599 185.745 82.3311 156.663 108.708 142.122 137.789 142.122 177.692 140.769 216.074 150.069 252.933 170.02 289.792 189.972 331.555 220.237 378.221 260.816H382.279V256.758C338.318 216.179 297.739 184.899 260.542 162.919 223.344 140.938 181.412 129.948 134.746 129.948 104.988 129.948 78.4423 141.953 55.1092 165.962 31.7762 189.972 15.3754 218.208 5.9069 250.671ZM792.13 830.954C746.14 897.234 647.397 903.321 495.901 849.215 458.027 837.041 413.39 813.37 361.99 778.201 310.589 743.033 262.909 704.821 218.948 663.565 218.272 663.565 216.919 662.381 214.89 660.014 212.861 657.647 209.987 654.266 206.267 649.869 202.547 645.473 199.335 640.908 196.629 636.174 233.151 607.092 279.986 589.508 337.135 583.421 394.284 577.334 450.757 581.73 506.553 596.609 562.35 611.488 614.426 631.102 662.783 655.449 711.14 679.797 747.661 708.202 772.347 740.666 797.033 773.129 803.627 803.225 792.13 830.954Z"/>
<path transform="matrix(1,0,0,-1,0,908.748)" d="M661.262 321.685C642.325 311.54 628.798 305.453 620.682 303.424 596.335 296.661 576.721 297.676 561.842 306.468 546.963 315.26 543.92 333.182 552.712 360.235 552.036 362.94 554.234 369.027 559.306 378.496 564.379 387.964 568.606 394.728 571.987 398.785H567.929C555.756 392.699 547.64 389.655 543.582 389.655 538.848 388.979 535.804 388.641 534.451 388.641 533.099 388.641 531.07 388.81 528.365 389.148 525.659 389.486 523.968 389.655 523.292 389.655 520.587 389.655 519.234 391.346 519.234 394.728 517.882 398.785 517.205 401.829 517.205 403.858L519.234 414.003C519.234 417.384 520.587 420.428 523.292 423.133L543.582 447.481C548.316 454.92 556.432 463.036 567.929 471.828L592.277 491.103C616.624 512.069 646.382 527.455 681.551 537.262 716.72 547.069 738.362 548.252 746.478 540.813L757.637 539.798C759.666 540.475 767.951 544.025 782.492 550.45 797.033 556.875 804.98 560.088 806.332 560.088 809.038 561.441 816.139 562.117 827.636 562.117L825.607 552.987C818.168 550.281 807.685 545.04 794.159 537.262 780.632 529.484 768.627 522.214 758.144 515.451 747.661 508.688 735.15 500.403 720.609 490.596 706.068 480.789 697.445 474.872 694.739 472.843L676.479 460.669 660.247 447.481 635.9 428.205C630.489 423.471 617.301 410.621 596.335 389.655 592.953 386.95 587.712 379.849 580.61 368.351 573.509 356.854 569.958 350.09 569.958 348.061L566.915 338.931C560.828 319.994 568.267 309.849 589.233 308.497 608.847 307.82 631.503 315.26 657.204 330.815L863.143 461.683C865.172 462.36 870.921 465.741 880.389 471.828 889.858 477.915 895.268 480.958 896.621 480.958 899.326 483.664 901.017 485.016 901.693 485.016L905.751 472.843C894.93 468.785 882.418 462.36 868.216 453.567 867.539 453.567 860.269 449.002 846.404 439.872 832.54 430.742 817.323 420.766 800.753 409.945 784.183 399.124 773.531 392.36 768.797 389.655ZM718.072 526.61H703.87L698.797 525.596C696.092 525.596 687.976 522.214 674.45 515.451 672.421 514.774 662.614 510.04 645.03 501.248 627.446 491.103 612.905 481.297 601.407 471.828L567.929 444.437 538.509 414.003C535.128 410.621 533.437 407.239 533.437 403.858V397.771C534.113 397.771 535.804 397.94 538.509 398.278 541.215 398.616 542.905 398.785 543.582 398.785L583.147 418.061 596.335 428.205 635.9 460.669 657.204 476.901C658.556 478.253 661.769 480.789 666.841 484.509 671.914 488.229 676.986 491.78 682.058 495.161 687.131 498.543 690.005 500.572 690.681 501.248L718.072 520.523 723.145 525.596Z"/>
<path transform="matrix(1,0,0,-1,0,908.748)" d="M947.345 518.494C947.345 512.407 946.669 508.011 945.316 505.306L943.287 501.248C941.258 498.543 939.229 496.007 937.2 493.639 935.171 491.272 934.157 489.751 934.157 489.074L922.998 466.756V439.365C922.998 435.307 919.616 429.896 912.853 423.133 910.824 421.104 900.341 412.65 881.404 397.771 862.467 382.892 852.322 374.776 850.969 373.423L834.738 357.192C830.68 353.134 826.96 347.723 823.578 340.96 822.226 338.255 820.873 335.719 819.521 333.351 818.168 330.984 817.83 329.801 818.506 329.801L823.578 327.772 828.651 329.801 846.912 334.873C851.646 336.902 883.433 354.148 942.273 386.612 1001.11 419.075 1032.56 436.321 1036.62 438.35V432.263C1036.62 431.587 1027.15 425.5 1008.21 414.003 1004.16 410.621 973.891 393.713 917.418 363.279 860.945 332.844 831.356 317.289 828.651 316.613 820.535 312.555 815.124 310.526 812.419 310.526H807.347C797.878 310.526 794.497 314.922 797.202 323.714 797.202 327.772 798.555 333.182 801.26 339.946 801.26 343.327 803.289 347.047 807.347 351.105L818.506 368.351 850.969 400.814 884.447 429.22C897.297 439.365 904.737 446.466 906.766 450.524V456.611C904.737 465.403 902.708 470.814 900.679 472.843H896.621C896.621 478.929 901.017 486.538 909.809 495.668 918.602 504.799 925.027 510.04 929.084 511.393 929.761 511.393 930.944 512.069 932.635 513.422 934.326 514.774 935.848 515.789 937.2 516.465 938.553 517.142 939.567 517.48 940.244 517.48 940.92 517.48 942.273 517.818 944.302 518.494Z"/>
<path transform="matrix(1,0,0,-1,0,908.748)" d="M641.986 25.4565 643.001 30.5289C643.001 37.9685 646.721 47.7751 654.16 59.9489L662.276 73.1371 675.464 91.3978 691.696 109.658C729.57 152.267 770.149 190.479 813.434 224.295L834.738 240.526C835.414 241.203 838.288 243.063 843.361 246.106 848.433 249.15 851.308 251.009 851.984 251.686 855.366 253.715 861.791 257.434 871.259 262.845 880.728 268.256 888.843 273.159 895.607 277.555 902.37 281.951 906.428 284.149 907.78 284.149 946.331 305.115 972.031 317.965 984.881 322.699L1027.49 366.322C1011.93 373.085 1006.19 384.583 1010.24 400.814 1013.62 415.693 1026.81 435.476 1049.81 460.162 1072.8 484.847 1089.03 499.895 1098.5 505.306L1103.58 511.393 1111.69 517.48 1161.4 550.958 1193.86 567.189C1196.57 567.866 1198.09 567.697 1198.43 566.682 1198.77 565.668 1199.61 563.131 1200.97 559.073L1199.95 555.016 1189.81 544.871C1187.78 542.842 1181.35 538.108 1170.53 530.668 1159.71 523.228 1153.28 518.832 1151.26 517.48 1139.08 508.011 1131.3 502.601 1127.92 501.248L1101.55 478.929 1090.39 468.785C1083.62 462.021 1077.03 455.427 1070.6 449.002 1064.18 442.577 1057.25 435.307 1049.81 427.191 1042.37 419.075 1036.28 411.636 1031.55 404.872 1026.81 398.109 1024.45 393.375 1024.45 390.67L1025.46 387.626C1027.49 385.597 1029.86 384.583 1032.56 384.583 1035.27 384.583 1038.31 385.259 1041.69 386.612 1045.07 387.964 1048.29 389.486 1051.33 391.177 1054.37 392.868 1057.59 394.728 1060.97 396.757 1064.35 398.785 1066.72 400.138 1068.07 400.814L1090.39 417.046C1089.71 417.722 1093.77 421.949 1102.56 429.727 1111.35 437.505 1122.85 446.973 1137.05 458.133 1151.26 469.292 1165.97 480.789 1181.18 492.625 1196.4 504.461 1210.94 515.282 1224.81 525.088 1238.67 534.895 1248.98 541.489 1255.75 544.871L1299.37 567.189C1309.51 569.895 1316.28 568.542 1319.66 563.131 1320.34 561.779 1320.34 560.426 1319.66 559.073L1315.6 555.016C1312.22 553.663 1302.92 547.407 1287.7 536.248 1272.49 525.088 1263.86 518.832 1261.83 517.48L1193.86 466.756 1167.49 445.452C1119.47 406.901 1082.27 375.114 1055.89 350.09 1056.57 350.767 1032.56 328.786 1032.56 328.786 1023.09 319.994 999.76 295.985 962.562 256.758 925.365 217.532 888.505 181.01 851.984 147.194 848.602 143.136 832.709 128.257 804.303 102.557 790.777 89.0307 779.279 79.9003 769.811 75.1661L759.666 67.0502C756.961 64.345 744.111 56.2291 721.116 42.7027 698.121 29.1763 682.904 21.3986 675.464 19.3696 668.701 15.988 664.305 14.2972 662.276 14.2972L658.218 13.2828H654.16L648.073 14.2972C647.397 14.2972 646.382 15.1426 645.03 16.8334 643.677 18.5242 643.001 19.7078 643.001 20.3841 642.325 23.0894 641.986 24.7802 641.986 25.4565ZM962.562 300.381 907.78 274.004 869.23 251.686 851.984 240.526 817.492 214.15C805.318 205.358 780.463 182.363 742.927 145.165 705.391 107.968 682.227 82.6056 673.435 69.0792 672.759 68.4029 671.406 66.0358 669.377 61.9778 667.348 57.9199 665.15 53.3548 662.783 48.2823 660.416 43.2099 658.556 39.6593 657.204 37.6303V32.5579C657.88 32.5579 659.233 32.2197 661.262 31.5434L664.305 30.5289 697.783 46.7606 714.015 58.9344C727.541 67.7266 736.671 75.1661 741.406 81.253 767.106 101.543 780.294 112.702 780.97 114.731L912.853 246.613C931.113 262.845 947.683 280.768 962.562 300.381Z"/>
<path transform="matrix(1,0,0,-1,0,908.748)" d="M1562.42 557.383 1560.4 551.296C1561.07 550.619 1559.55 547.576 1555.83 542.165 1552.11 536.755 1547.55 530.499 1542.14 523.398 1536.72 516.296 1532.33 511.055 1528.95 507.673 1523.54 500.91 1516.94 493.809 1509.16 486.369 1501.39 478.929 1494.96 472.843 1489.89 468.108 1484.82 463.374 1482.28 460.669 1482.28 459.992 1483.63 458.64 1501.05 457.625 1534.53 456.949 1568 456.273 1605.71 457.964 1647.64 462.021 1689.57 466.079 1719.33 472.843 1736.92 482.311L1747.06 487.383 1752.13 491.441H1758.22C1757.54 489.412 1755.01 486.369 1750.61 482.311 1746.21 478.253 1743.34 475.886 1741.99 475.21L1734.89 471.152C1719.33 465.741 1701.75 461.345 1682.13 457.964 1679.43 457.964 1675.37 457.456 1669.96 456.442 1664.55 455.427 1659.81 454.582 1655.76 453.906 1651.7 453.229 1649.33 452.891 1648.66 452.891 1638.51 451.538 1614.5 449.51 1576.63 446.804H1470.11L1460.98 441.732 1438.66 419.413C1419.04 402.505 1399.77 389.655 1380.83 380.863 1370.01 375.452 1361.9 372.747 1356.49 372.747L1339.24 370.718H1326.05L1316.92 371.733C1289.19 376.467 1275.33 387.288 1275.33 404.196 1275.33 404.872 1275.66 406.563 1276.34 409.268V413.326C1279.72 423.471 1289.7 432.602 1306.27 440.717 1322.84 448.833 1341.94 454.582 1363.59 457.964L1387.93 462.021 1498.51 535.064C1500.54 536.417 1503.58 538.446 1507.64 541.151 1511.7 543.856 1515.08 546.223 1517.79 548.252L1521.85 551.296 1539.09 563.47C1545.18 566.851 1550.25 568.542 1554.31 568.542 1561.07 568.542 1563.78 564.822 1562.42 557.383ZM1306.78 387.964C1309.48 386.612 1314.89 385.935 1323.01 385.935H1333.15C1341.94 385.935 1350.4 387.964 1358.51 392.022L1372.72 397.095 1398.08 413.326 1427.5 436.659C1428.17 438.012 1430.2 440.21 1433.59 443.254 1436.97 446.297 1438.66 448.157 1438.66 448.833H1415.32L1399.09 446.804 1383.88 443.761C1383.2 443.084 1378.3 439.703 1369.17 433.616 1360.04 427.529 1350.57 420.935 1340.76 413.834 1330.95 406.732 1324.02 401.491 1319.96 398.109 1317.93 398.109 1313.54 394.728 1306.78 387.964ZM1518.8 528.977 1498.51 518.832 1429.53 475.21 1412.28 463.036H1445.76C1453.2 463.036 1456.92 465.065 1456.92 469.123L1510.69 518.832 1511.7 520.861C1513.05 522.89 1514.41 524.75 1515.76 526.441 1517.11 528.132 1518.13 528.977 1518.8 528.977ZM1354.46 442.746C1349.05 442.746 1342.96 442.07 1336.2 440.717 1319.29 438.012 1304.41 430.911 1291.56 419.413 1286.82 416.708 1284.46 412.988 1284.46 408.254 1284.46 406.901 1284.63 405.041 1284.96 402.674 1285.3 400.307 1285.81 398.616 1286.49 397.602 1287.16 396.587 1287.84 396.08 1288.51 396.08L1292.57 397.095C1297.31 397.095 1303.39 400.814 1310.83 408.254L1364.6 442.746Z"/>
<path transform="matrix(1,0,0,-1,0,908.748)" d="M2052.47 404.346C2049.61 404.346 2047.47 403.87 2046.04 402.917L2014.59 382.191 2006.01 377.189C2003.63 375.759 1996.96 372.543 1986 367.541 1975.05 362.538 1968.61 360.036 1966.71 360.036 1964.33 358.607 1960.04 357.892 1953.84 357.892L1943.12 357.178 1933.12 357.892C1928.83 357.892 1925.26 358.607 1922.4 360.036 1920.97 360.513 1918.59 361.823 1915.25 363.967 1911.92 366.111 1910.01 367.66 1909.53 368.613 1909.06 368.613 1907.87 369.565 1905.96 371.471 1904.05 373.377 1902.86 374.568 1902.39 375.045 1902.39 376.95 1901.2 379.095 1898.81 381.477 1896.91 387.194 1895.95 390.768 1895.95 392.197V399.344C1895.95 402.679 1896.43 405.776 1897.38 408.635L1899.53 415.781 1903.82 423.643C1911.92 442.701 1928.59 460.806 1953.84 477.958 1954.32 478.435 1955.63 479.388 1957.77 480.817 1959.92 482.246 1961.94 483.676 1963.85 485.105L1966.71 487.249C1970.04 489.631 1976.95 493.562 1987.43 499.041 1997.91 504.521 2004.82 507.498 2008.16 507.975L2012.45 509.404C2015.31 510.357 2018.4 511.429 2021.74 512.62 2025.07 513.811 2027.45 514.645 2028.88 515.122L2052.47 521.554C2069.62 525.842 2078.91 527.986 2080.34 527.986L2103.21 535.847C2104.16 536.324 2108.21 540.85 2115.36 549.426L2117.5 553C2119.41 554.905 2121.32 556.93 2123.22 559.074 2125.13 561.218 2126.32 562.29 2126.8 562.29 2133.47 570.39 2139.42 575.155 2144.66 576.584L2147.52 577.299C2149.43 577.775 2150.62 578.013 2151.09 578.013L2157.53 576.584C2160.39 575.155 2161.81 573.011 2161.81 570.152 2161.81 565.387 2160.86 561.814 2158.96 559.432L2155.38 553 2147.52 545.138 2133.94 535.847C2132.51 533.465 2130.37 532.274 2127.51 532.274 2127.03 531.797 2125.25 531.083 2122.15 530.13 2119.05 529.177 2117.5 528.462 2117.5 527.986L2110.36 525.842C2110.36 523.46 2107.98 519.886 2103.21 515.122 2100.83 512.739 2097.49 506.069 2093.21 495.111 2092.73 494.158 2092.25 492.847 2091.78 491.18 2091.3 489.512 2090.7 487.964 2089.99 486.534 2089.27 485.105 2088.68 483.795 2088.2 482.604 2087.73 481.413 2087.49 480.341 2087.49 479.388L2086.77 477.958C2086.77 477.482 2086.42 476.41 2085.7 474.742 2084.99 473.075 2084.39 471.526 2083.91 470.097 2083.44 468.668 2083.2 467.715 2083.2 467.238L2076.05 443.654 2072.48 433.648V429.36L2080.34 433.648C2082.25 433.648 2086.54 436.983 2093.21 443.654 2095.11 445.56 2097.49 446.513 2100.35 446.513L2107.5 447.227C2107.5 444.845 2107.26 443.654 2106.78 443.654L2100.35 440.08 2072.48 420.069 2065.33 412.208 2063.9 408.635C2062.95 406.729 2062 404.466 2061.04 401.845 2060.09 399.225 2059.38 397.2 2058.9 395.77 2058.9 395.294 2058.54 394.222 2057.83 392.554 2057.11 390.887 2056.52 389.338 2056.04 387.909L2055.33 385.765 2042.46 330.735H2036.75C2036.75 332.164 2037.34 335.737 2038.53 341.455 2039.72 347.172 2040.32 350.507 2040.32 351.46 2040.32 360.513 2041.99 368.374 2045.32 375.045 2045.32 375.521 2045.56 376.236 2046.04 377.189 2047.94 388.624 2050.09 397.676 2052.47 404.346ZM1909.53 387.194 1912.39 378.618 1919.54 371.471C1922.87 369.089 1926.69 367.421 1930.97 366.469 1938.12 365.516 1942.17 365.039 1943.12 365.039H1949.56C1957.65 365.039 1963.37 366.23 1966.71 368.613 1970.04 368.613 1977.19 370.995 1988.15 375.759L2008.16 385.765C2029.12 398.153 2046.04 409.587 2058.9 420.069L2080.34 480.817C2080.34 481.294 2080.82 482.604 2081.77 484.748 2082.72 486.892 2083.68 489.393 2084.63 492.252 2085.58 495.111 2086.3 497.016 2086.77 497.969L2097.49 521.554H2093.21C2092.73 521.554 2089.87 521.196 2084.63 520.482 2079.39 519.767 2076.53 519.171 2076.05 518.695L2045.32 510.119C2019.12 501.066 1995.29 490.346 1973.85 477.958 1960.04 467.953 1950.51 459.853 1945.27 453.659 1945.27 454.136 1944.55 453.421 1943.12 451.515 1941.69 449.609 1939.79 447.346 1937.41 444.726 1935.02 442.105 1932.64 439.366 1930.26 436.507 1927.88 433.648 1925.85 430.909 1924.18 428.288 1922.52 425.668 1921.44 423.881 1920.97 422.928 1918.11 421.022 1915.25 414.352 1912.39 402.917L1910.96 397.2C1910.01 393.388 1909.53 390.053 1909.53 387.194ZM2121.79 545.138 2120.36 542.279H2123.94L2130.37 545.138 2144.66 555.858 2147.52 559.432C2149.9 560.861 2151.09 563.005 2151.09 565.864 2153 570.628 2149.9 570.39 2141.8 565.149 2132.27 558.479 2126.32 553 2123.94 548.712Z"/>
<path transform="matrix(1,0,0,-1,0,908.748)" d="M3157.17 182.126C3157.17 269.371 3187.94 354.588 3249.49 437.775 3267.07 465.504 3289.73 496.615 3317.46 531.107 3345.19 565.6 3369.87 595.02 3391.51 619.367 3413.16 643.715 3442.75 676.178 3480.28 716.757 3517.82 757.337 3544.36 786.418 3559.92 804.003L3560.93 807.046C3561.61 808.399 3562.45 809.752 3563.47 811.104 3564.48 812.457 3564.99 813.471 3564.99 814.148H3559.92C3556.54 814.148 3550.79 812.795 3542.67 810.09 3512.24 795.211 3458.47 771.37 3381.37 738.569 3304.27 705.767 3234.95 673.135 3173.4 640.671 3111.86 608.208 3057.07 572.025 3009.05 532.122 3008.38 531.446 3002.29 526.204 2990.79 516.397 2979.3 506.591 2966.62 495.939 2952.75 484.441 2938.89 472.944 2928.57 464.49 2921.81 459.079 2921.13 458.403 2919.44 456.543 2916.74 453.5 2914.03 450.456 2912.34 448.596 2911.66 447.92 2902.2 441.157 2893.4 431.688 2885.29 419.515L2852.82 373.863 2823.4 339.371C2823.4 336.665 2820.7 335.313 2815.29 335.313 2813.94 335.989 2811.91 337.68 2809.2 340.385 2806.5 343.09 2805.14 344.781 2805.14 345.457L2821.38 374.877C2919.44 529.755 3044.56 692.072 3196.73 861.828 3146.69 845.596 3075.5 799.269 2983.19 722.844 2890.87 646.42 2799.06 559.513 2707.75 462.123 2702.34 456.712 2692.54 446.229 2678.33 430.674 2578.91 321.786 2500.8 248.744 2443.99 211.546 2347.95 147.972 2286.07 158.455 2258.34 242.995 2226.55 341.061 2253.6 408.355 2339.5 444.877 2382.11 463.137 2425.39 470.915 2469.35 468.21 2478.82 467.533 2483.22 466.181 2482.54 464.152 2481.19 462.123 2466.98 460.77 2439.93 460.094 2406.79 459.417 2377.03 450.625 2350.66 433.717 2324.28 416.809 2304.84 396.181 2292.32 371.834 2279.81 347.486 2271.53 322.463 2267.47 296.762 2263.41 271.062 2266.12 247.56 2275.58 226.256 2285.05 204.952 2299.93 190.58 2320.22 183.14 2347.27 178.406 2377.54 184.831 2411.02 202.416 2444.5 220 2479.33 245.531 2515.51 279.009 2551.69 312.487 2589.57 350.53 2629.13 393.138 2668.7 435.746 2711.81 481.398 2758.48 530.093 2805.14 578.788 2852.32 625.454 2900 670.091 2947.68 714.728 3000.94 757.168 3059.78 797.409 3118.62 837.65 3176.78 869.268 3234.27 892.263 3234.95 892.263 3236.64 892.939 3239.34 894.292 3242.05 895.644 3244.75 896.997 3247.46 898.349L3251.52 901.393C3254.22 902.746 3258.11 904.436 3263.18 906.465 3268.25 908.494 3270.79 909.171 3270.79 908.494L3275.86 904.436C3274.51 902.407 3268.42 896.659 3257.6 887.19 3246.78 877.722 3240.69 871.973 3239.34 869.944 3192.68 825.307 3134.17 755.646 3063.84 660.961 2993.5 566.276 2945.14 504.055 2918.77 474.296L2917.75 471.253 2918.77 469.224C2976.25 515.214 3009.73 542.605 3019.2 551.397 3055.72 583.184 3106.78 616.155 3172.39 650.309 3237.99 684.463 3309.85 718.448 3387.96 752.264 3466.08 786.08 3507.5 804.003 3512.24 806.032 3515.62 807.384 3523.4 810.766 3535.57 816.177 3547.74 821.587 3558.73 826.49 3568.54 830.887 3578.35 835.283 3584.27 838.157 3586.29 839.51L3623.83 867.915C3630.59 874.678 3636 878.06 3640.06 878.06 3640.74 878.736 3644.12 879.074 3650.21 879.074L3649.19 871.973C3616.05 825.307 3550.11 749.897 3451.37 645.744 3352.63 541.59 3284.99 456.712 3248.47 391.109 3239.68 374.201 3232.41 359.998 3226.66 348.501 3220.91 337.003 3214.49 323.139 3207.39 306.907 3200.28 290.675 3194.87 275.627 3191.15 261.763 3187.43 247.898 3184.05 233.188 3181.01 217.633 3177.97 202.077 3176.78 186.522 3177.46 170.967 3178.13 155.411 3180.5 139.856 3184.56 124.301 3197.41 86.4267 3224.46 55.6541 3265.72 31.9828 3306.97 8.3116 3347.89 1.5484 3388.47 11.6932 3390.5 11.6932 3395.4 13.0459 3403.18 15.7512 3410.96 18.4564 3415.52 19.8091 3416.88 19.8091V14.7367C3404.7 5.2682 3385.09 .3649 3358.04 .0267 3330.98-.3115 3310.69 2.5629 3297.17 8.6498 3256.59 22.1762 3223.11 43.8185 3196.73 73.5766 3170.36 103.335 3157.17 139.518 3157.17 182.126Z"/>
<path transform="matrix(1,0,0,-1,0,908.748)" d="M3624.84 401.254C3605.91 391.109 3592.38 385.022 3584.27 382.993 3559.92 376.23 3540.3 377.244 3525.43 386.037 3510.55 394.829 3507.5 412.751 3516.29 439.804 3515.62 442.509 3517.82 448.596 3522.89 458.065 3527.96 467.533 3532.19 474.296 3535.57 478.354H3531.51C3519.34 472.268 3511.22 469.224 3507.16 469.224 3502.43 468.548 3499.39 468.21 3498.03 468.21 3496.68 468.21 3494.65 468.379 3491.95 468.717 3489.24 469.055 3487.55 469.224 3486.87 469.224 3484.17 469.224 3482.82 470.915 3482.82 474.296 3481.46 478.354 3480.79 481.398 3480.79 483.427L3482.82 493.572C3482.82 496.953 3484.17 499.997 3486.87 502.702L3507.16 527.05C3511.9 534.489 3520.01 542.605 3531.51 551.397L3555.86 570.672C3580.21 591.638 3609.97 607.024 3645.13 616.831 3680.3 626.638 3701.94 627.821 3710.06 620.382L3721.22 619.367C3723.25 620.044 3731.53 623.594 3746.07 630.019 3760.62 636.444 3768.56 639.657 3769.92 639.657 3772.62 641.01 3779.72 641.686 3791.22 641.686L3789.19 632.556C3781.75 629.85 3771.27 624.609 3757.74 616.831 3744.21 609.053 3732.21 601.783 3721.73 595.02 3711.24 588.257 3698.73 579.972 3684.19 570.165 3669.65 560.358 3661.03 554.44 3658.32 552.412L3640.06 540.238 3623.83 527.05 3599.48 507.774C3594.07 503.04 3580.88 490.19 3559.92 469.224 3556.54 466.519 3551.29 459.417 3544.19 447.92 3537.09 436.423 3533.54 429.659 3533.54 427.63L3530.5 418.5C3524.41 399.563 3531.85 389.418 3552.82 388.066 3572.43 387.389 3595.09 394.829 3620.79 410.384L3826.73 541.252C3828.76 541.929 3834.5 545.31 3843.97 551.397 3853.44 557.484 3858.85 560.527 3860.2 560.527 3862.91 563.233 3864.6 564.585 3865.28 564.585L3869.33 552.412C3858.51 548.354 3846 541.929 3831.8 533.136 3831.12 533.136 3823.85 528.571 3809.99 519.441 3796.12 510.311 3780.91 500.335 3764.34 489.514 3747.77 478.693 3737.11 471.929 3732.38 469.224ZM3681.66 606.179H3667.45L3662.38 605.165C3659.67 605.165 3651.56 601.783 3638.03 595.02 3636 594.343 3626.2 589.609 3608.61 580.817 3591.03 570.672 3576.49 560.866 3564.99 551.397L3531.51 524.006 3502.09 493.572C3498.71 490.19 3497.02 486.808 3497.02 483.427V477.34C3497.7 477.34 3499.39 477.509 3502.09 477.847 3504.8 478.185 3506.49 478.354 3507.16 478.354L3546.73 497.63 3559.92 507.774 3599.48 540.238 3620.79 556.469C3622.14 557.822 3625.35 560.358 3630.42 564.078 3635.5 567.798 3640.57 571.349 3645.64 574.73 3650.71 578.112 3653.59 580.141 3654.26 580.817L3681.66 600.092 3686.73 605.165Z"/>
<path transform="matrix(1,0,0,-1,0,908.748)" d="M3910.93 598.063C3910.93 591.976 3910.25 587.58 3908.9 584.875L3906.87 580.817C3904.84 578.112 3902.81 575.576 3900.78 573.208 3898.75 570.841 3897.74 569.32 3897.74 568.643L3886.58 546.325V518.934C3886.58 514.876 3883.2 509.465 3876.44 502.702 3874.41 500.673 3863.92 492.219 3844.99 477.34 3826.05 462.461 3815.9 454.345 3814.55 452.992L3798.32 436.761C3794.26 432.703 3790.54 427.292 3787.16 420.529 3785.81 417.824 3784.46 415.288 3783.1 412.92 3781.75 410.553 3781.41 409.37 3782.09 409.37L3787.16 407.341 3792.23 409.37 3810.49 414.442C3815.23 416.471 3847.02 433.717 3905.86 466.181 3964.7 498.644 3996.14 515.89 4000.2 517.919V511.832C4000.2 511.156 3990.73 505.069 3971.8 493.572 3967.74 490.19 3937.47 473.282 3881 442.848 3824.53 412.413 3794.94 396.858 3792.23 396.181 3784.12 392.124 3778.71 390.095 3776 390.095H3770.93C3761.46 390.095 3758.08 394.491 3760.78 403.283 3760.78 407.341 3762.14 412.751 3764.84 419.515 3764.84 422.896 3766.87 426.616 3770.93 430.674L3782.09 447.92 3814.55 480.383 3848.03 508.789C3860.88 518.934 3868.32 526.035 3870.35 530.093V536.18C3868.32 544.972 3866.29 550.383 3864.26 552.412H3860.2C3860.2 558.498 3864.6 566.107 3873.39 575.237 3882.18 584.368 3888.61 589.609 3892.67 590.962 3893.34 590.962 3894.53 591.638 3896.22 592.991 3897.91 594.343 3899.43 595.358 3900.78 596.034 3902.14 596.711 3903.15 597.049 3903.83 597.049 3904.5 597.049 3905.86 597.387 3907.88 598.063Z"/>
<path transform="matrix(1,0,0,-1,0,908.748)" d="M3976.87 446.906V463.137C3977.55 465.166 3979.07 468.886 3981.43 474.296 3983.8 479.707 3986.68 485.456 3990.06 491.543L3994.12 499.659 4005.27 513.861C4005.95 515.89 4008.99 520.286 4014.41 527.05 4019.82 533.813 4022.86 537.194 4023.54 537.194 4037.06 552.75 4048.22 563.571 4057.01 569.658 4077.98 586.566 4101.31 600.768 4127.01 612.266L4135.13 616.324 4141.22 617.338C4145.27 618.015 4147.98 618.353 4149.33 618.353L4163.53 616.324 4173.68 611.251C4176.38 610.575 4178.92 608.884 4181.29 606.179 4183.65 603.474 4186.02 600.599 4188.39 597.556 4190.76 594.512 4192.28 592.653 4192.95 591.976 4194.98 589.947 4196 586.904 4196 582.846H4187.88L4180.78 589.947 4171.65 598.063 4160.49 603.136C4156.43 606.517 4138 596.203 4105.2 572.194 4072.4 548.185 4053.63 533.813 4048.9 529.078L4039.77 520.963 4022.52 503.716 4008.32 487.485 3998.17 470.239C3994.79 463.475 3993.1 458.741 3993.1 456.036V447.92C3993.1 436.423 3997.5 430.336 4006.29 429.659H4014.41C4016.43 429.659 4022.52 431.181 4032.67 434.225 4042.81 437.268 4048.22 438.79 4048.9 438.79H4047.88L4075.27 450.963 4115.85 468.21C4120.59 469.562 4141.89 478.354 4179.77 494.586L4259.91 526.035 4278.17 532.122C4290.34 536.18 4297.78 538.209 4300.49 538.209L4303.53 539.223C4306.24 539.9 4307.93 540.238 4308.6 540.238L4311.65 539.223C4313 538.547 4314.02 538.209 4314.69 538.209L4306.58 534.151 4274.11 524.006C4272.76 523.33 4268.87 521.808 4262.45 519.441 4256.02 517.074 4248.24 514.03 4239.11 510.311 4229.98 506.591 4222.04 503.378 4215.27 500.673 4148.32 472.944 4114.5 459.079 4113.82 459.079L4047.88 430.674 4030.64 425.601C4029.96 424.925 4028.61 424.418 4026.58 424.08 4024.55 423.742 4022.35 423.234 4019.98 422.558 4017.62 421.882 4016.1 421.543 4015.42 421.543 3999.19 418.162 3987.69 422.896 3980.93 435.746L3978.9 440.819C3977.55 444.2 3976.87 446.229 3976.87 446.906Z"/>
<path transform="matrix(1,0,0,-1,0,908.748)" d="M4234.55 428.645 4232.52 434.732C4231.17 435.408 4230.49 437.775 4230.49 441.833 4230.49 456.036 4237.93 471.591 4252.81 488.499L4270.05 510.818C4274.11 516.228 4280.03 523.499 4287.81 532.629 4295.59 541.759 4300.83 548.015 4303.53 551.397L4302.52 554.44 4292.37 568.643C4288.31 572.701 4286.29 577.435 4286.29 582.846 4284.26 589.609 4283.24 594.682 4283.24 598.063L4284.26 610.237C4286.96 623.763 4296.09 635.261 4311.65 644.729 4322.47 650.14 4330.25 652.845 4334.98 652.845L4350.2 655.889C4371.16 657.241 4386.72 654.874 4396.86 648.787L4402.95 641.686C4407.01 637.628 4409.04 634.246 4409.04 631.541 4413.1 618.691 4412.76 603.812 4408.02 586.904L4401.94 565.6H4410.05L4418.17 566.614C4424.26 567.291 4454.18 573.039 4507.95 583.86 4561.72 594.682 4602.8 599.416 4631.21 598.063 4636.62 598.063 4639.66 597.049 4640.34 595.02 4641.02 592.991 4639.33 591.3 4635.27 589.947L4621.06 587.918C4599.42 588.595 4560.2 582.846 4503.38 570.672 4446.57 558.498 4414.79 552.073 4408.02 551.397L4396.86 549.368 4390.78 543.281 4374.55 520.963C4358.99 500.673 4341.74 481.736 4322.81 464.152 4303.87 446.567 4286.62 434.055 4271.07 426.616 4269.72 425.94 4268.03 424.925 4266 423.572L4262.95 422.558C4256.87 421.205 4253.48 420.529 4252.81 420.529L4242.66 421.543C4241.31 421.543 4239.62 422.558 4237.59 424.587 4235.56 426.616 4234.55 427.969 4234.55 428.645ZM4363.39 591.976C4364.06 591.976 4364.57 590.624 4364.91 587.918 4365.25 585.213 4365.08 583.522 4364.4 582.846 4360.34 574.73 4358.31 568.981 4358.31 565.6L4357.3 557.484C4364.74 557.484 4372.52 558.498 4380.63 560.527 4384.01 560.527 4387.4 563.909 4390.78 570.672 4396.19 585.551 4399.23 594.682 4399.91 598.063 4401.26 612.942 4400.25 624.102 4396.86 631.541 4393.48 638.981 4385.37 643.377 4372.52 644.729 4369.14 645.406 4363.22 645.406 4354.76 644.729 4346.31 644.053 4341.74 643.377 4341.07 642.7 4328.22 635.937 4321.12 632.217 4319.76 631.541 4319.09 630.865 4316.38 628.329 4311.65 623.932 4306.91 619.536 4303.87 616.662 4302.52 615.309L4296.43 605.165 4295.42 595.02 4296.43 586.904C4301.84 577.435 4309.62 572.025 4319.76 570.672H4324.84L4347.15 586.904C4351.21 590.962 4354.93 592.991 4358.31 592.991 4360.34 592.314 4362.03 591.976 4363.39 591.976ZM4374.55 543.281C4374.55 546.663 4360 546.663 4330.92 543.281 4322.13 539.223 4314.69 533.136 4308.6 525.021L4275.13 486.47 4258.89 463.137 4249.76 443.862C4247.74 442.509 4246.89 440.48 4247.23 437.775 4247.57 435.07 4249.09 433.717 4251.79 433.717H4258.89C4280.54 437.775 4306.58 458.065 4337.01 494.586L4352.23 510.818 4361.36 521.977 4368.46 533.136C4372.52 537.194 4374.55 540.576 4374.55 543.281Z"/>
<path transform="matrix(1,0,0,-1,0,908.748)" d="M1292.88 394.214C1292.6 394.125 1292.31 394.037 1292.19 394.013 1288.86 393.357 1286.06 392.401 1282.95 391.404 1276.32 389.279 1269.71 386.95 1263.25 384.691 1242.81 377.549 1223.6 370.28 1203.48 363.018 1180.68 354.784 1156.8 345.58 1131.33 338.922 1089.67 328.031 1044.25 320.567 1001.53 312.162 998.824 311.63 997.059 308.999 997.591 306.291 998.124 303.584 1000.75 301.818 1003.46 302.351 1046.38 310.795 1092 318.306 1133.86 329.247 1159.63 335.984 1183.8 345.28 1206.88 353.612 1226.96 360.862 1246.14 368.12 1266.55 375.251 1272.93 377.482 1279.45 379.783 1286 381.881 1288.74 382.758 1291.19 383.624 1294.12 384.201 1295.1 384.393 1298.18 385.606 1298.47 385.814 1300.15 387.043 1300.41 388.53 1300.5 389.324 1300.7 391.263 1300.17 393.224 1297.62 394.403 1297.38 394.514 1296.36 395.134 1294.36 394.75 1293.82 394.648 1293.33 394.465 1292.88 394.214Z" fill-rule="evenodd"/>
</svg>
