<svg width="211" height="200" viewBox="0 0 211 200" fill="none" xmlns="http://www.w3.org/2000/svg">
<mask id="path-1-outside-1_45_2013" maskUnits="userSpaceOnUse" x="-0.999847" y="0" width="212" height="200" fill="black">
<rect fill="white" x="-0.999847" width="212" height="200"/>
<path d="M1.87218 95.5386C-0.0248605 88.0024 1.17327 79.2266 5.46655 69.2114C9.75985 59.1962 16.1499 49.28 24.6366 39.4624C24.7364 39.1663 24.7863 38.9185 24.7863 38.7191L24.6366 37.9757C22.44 35.8938 20.7927 33.91 19.6943 32.026C18.5961 30.1419 17.8721 27.7374 17.5227 24.8124C17.1733 21.8873 17.8971 18.7878 19.6943 15.5153C20.4931 15.1194 20.9923 14.9215 21.192 14.9215C21.4915 14.9215 21.6412 15.2675 21.6412 15.9625C17.2481 23.201 18.5961 30.0422 25.6849 36.489L26.7334 37.0828C29.7286 33.7121 33.5477 30.1669 38.1905 26.4486C42.8331 22.7304 46.752 19.8288 49.947 17.7468L54.5898 14.6239C62.0781 10.0626 69.6663 6.61557 77.3542 4.2858C85.0422 1.95604 91.6818 0.865189 97.2731 1.01328C102.864 1.16283 107.707 2.12904 111.8 3.91339C120.387 8.27675 122.484 14.1767 118.091 21.6146C113.997 28.5555 105.91 34.7531 93.8285 40.2073C78.5523 47.1482 63.7755 49.8753 49.4978 48.3871C41.2107 47.5939 34.1217 45.2143 28.2311 41.2482C28.2311 41.3465 28.1311 41.4462 27.9315 41.5459L27.632 41.8435C26.3339 43.7276 24.387 46.4297 21.7911 49.95C19.1952 53.4696 17.298 56.0975 16.1 57.8327C14.9018 59.5681 13.4042 61.9975 11.607 65.1211C9.80977 68.2446 8.48683 70.9716 7.63816 73.3018C6.78949 75.6321 6.04067 78.4582 5.39168 81.7801C4.74269 85.1019 4.4182 88.5479 4.4182 92.1176C4.4182 96.4806 6.16547 100.794 9.66001 105.058C13.1545 109.322 17.0485 111.454 21.3417 111.454C27.2325 111.652 32.8988 110.289 38.3402 107.364C43.7816 104.438 49.947 100.001 56.8362 94.0512H57.4353V94.6462C50.9454 100.596 44.9548 105.182 39.4635 108.405C33.972 111.627 27.7817 113.239 20.8925 113.239C16.4993 113.239 12.5804 111.479 9.13582 107.959C5.69121 104.438 3.26999 100.298 1.87218 95.5386ZM117.941 10.4584C111.151 0.74057 96.5742 -0.152336 74.2091 7.78117C68.6179 9.56552 62.0282 13.0374 54.4401 18.1925C46.8518 23.3491 39.8129 28.9514 33.323 35.0008C33.2233 35.0008 33.0235 35.1739 32.724 35.5214C32.4244 35.8688 32.0002 36.3644 31.451 37.0095C30.9018 37.6532 30.4276 38.3232 30.0281 39.0167C35.4198 43.2804 42.334 45.8594 50.7708 46.7508C59.2076 47.6437 67.5446 47.0001 75.7817 44.8184C84.0189 42.6367 91.7068 39.7601 98.8456 36.1914C105.984 32.6212 111.376 28.4558 115.02 23.6966C118.665 18.9374 119.638 14.5241 117.941 10.4584Z"/>
<path d="M91.0945 81.4047C90.6668 81.4047 90.346 81.4746 90.1323 81.6143L85.4278 84.652L84.1448 85.3853C83.7885 85.5947 82.7905 86.0661 81.1511 86.7994C79.5116 87.5327 78.5494 87.8992 78.2644 87.8992C77.9079 88.1088 77.2664 88.2135 76.3398 88.2135L74.736 88.3183L73.2392 88.2135C72.5977 88.2135 72.0631 88.1088 71.6353 87.8992C71.4216 87.8295 71.0652 87.6375 70.5663 87.3232C70.0674 87.009 69.7822 86.7819 69.7109 86.6423C69.6397 86.6423 69.4615 86.5026 69.1763 86.2232C68.8912 85.944 68.713 85.7693 68.6416 85.6995C68.6416 85.4201 68.4635 85.1059 68.1071 84.7568C67.822 83.9188 67.6794 83.395 67.6794 83.1855V82.138C67.6794 81.6492 67.7508 81.1953 67.8933 80.7762L68.2141 79.7287L68.8556 78.5765C70.0674 75.7831 72.562 73.1295 76.3398 70.6154C76.4111 70.5456 76.6071 70.4059 76.9279 70.1965C77.2486 69.9869 77.5515 69.7774 77.8367 69.568L78.2644 69.2537C78.7633 68.9045 79.7968 68.3284 81.3649 67.5252C82.9331 66.7222 83.9667 66.2857 84.4656 66.2159L85.1071 66.0065C85.5348 65.8668 85.9981 65.7097 86.4971 65.5349C86.996 65.3604 87.3523 65.2383 87.5663 65.1684L91.0945 64.2256C93.6605 63.5971 95.0505 63.2829 95.2642 63.2829L98.6857 62.1306C98.8282 62.0608 99.4341 61.3974 100.503 60.1404L100.824 59.6166C101.109 59.3372 101.394 59.0404 101.679 58.7262C101.965 58.4119 102.143 58.2548 102.214 58.2548C103.212 57.0677 104.103 56.3693 104.887 56.1599L105.315 56.0551C105.6 55.9853 105.778 55.9503 105.849 55.9503L106.811 56.1599C107.239 56.3693 107.453 56.6836 107.453 57.1026C107.453 57.8009 107.31 58.3247 107.025 58.6738L106.491 59.6166L105.315 60.7689L103.283 62.1306C103.069 62.4798 102.749 62.6544 102.321 62.6544C102.25 62.7242 101.982 62.829 101.519 62.9686C101.056 63.1083 100.824 63.213 100.824 63.2829L99.7549 63.5971C99.7549 63.9463 99.3985 64.4701 98.6857 65.1684C98.3293 65.5175 97.8304 66.4953 97.1889 68.1014C97.1175 68.2411 97.0463 68.4331 96.9749 68.6776C96.9037 68.9219 96.8146 69.1489 96.7078 69.3584C96.6008 69.568 96.5116 69.76 96.4404 69.9345C96.3691 70.1091 96.3334 70.2662 96.3334 70.4059L96.2265 70.6154C96.2265 70.6853 96.1731 70.8424 96.0661 71.0867C95.9593 71.3312 95.8701 71.5581 95.7989 71.7677C95.7276 71.9771 95.6919 72.1168 95.6919 72.1868L94.6227 75.6435L94.0882 77.1099V77.7384L95.2642 77.1099C95.5494 77.1099 96.1909 76.6211 97.1889 75.6435C97.4739 75.3641 97.8304 75.2244 98.2579 75.2244L99.3271 75.1198C99.3271 75.4689 99.2915 75.6435 99.2202 75.6435L98.2579 76.1672L94.0882 79.1002L93.019 80.2525L92.8052 80.7762C92.6626 81.0556 92.5201 81.3873 92.3775 81.7714C92.2349 82.1554 92.128 82.4522 92.0567 82.6617C92.0567 82.7316 92.0033 82.8887 91.8964 83.1331C91.7894 83.3775 91.7004 83.6044 91.629 83.814L91.5222 84.1283L89.5976 92.194H88.7423C88.7423 91.9846 88.8315 91.4608 89.0096 90.6228C89.1878 89.7847 89.2768 89.2959 89.2768 89.1562C89.2768 87.8295 89.5264 86.6771 90.0253 85.6995C90.0253 85.6297 90.0609 85.525 90.1323 85.3853C90.4174 83.7092 90.7381 82.3825 91.0945 81.4047ZM69.7109 83.9188L70.1386 85.1758L71.2078 86.2232C71.7067 86.5725 72.277 86.8168 72.9185 86.9565C73.9876 87.0962 74.5935 87.1661 74.736 87.1661H75.6983C76.91 87.1661 77.7653 86.9914 78.2644 86.6423C78.7633 86.6423 79.8324 86.2931 81.4719 85.5947L84.4656 84.1283C87.6019 82.3126 90.1323 80.6365 92.0567 79.1002L95.2642 70.1965C95.2642 70.1266 95.3356 69.9345 95.4782 69.6203C95.6207 69.3061 95.7633 68.9395 95.9057 68.5204C96.0483 68.1014 96.1553 67.822 96.2265 67.6824L97.8304 64.2256H97.1889C97.1175 64.2256 96.6898 64.278 95.9057 64.3828C95.1217 64.4875 94.6941 64.5748 94.6227 64.6447L90.0253 65.9017C86.1049 67.2284 82.5411 68.7998 79.3335 70.6154C77.2664 72.0819 75.8408 73.2692 75.0568 74.1769C75.0568 74.1071 74.9498 74.2119 74.736 74.4911C74.5222 74.7705 74.2371 75.1022 73.8807 75.4863C73.5242 75.8704 73.1679 76.272 72.8115 76.691C72.4552 77.1099 72.1522 77.5115 71.9027 77.8957C71.6533 78.2797 71.4929 78.5416 71.4216 78.6813C70.9939 78.9605 70.5663 79.9383 70.1386 81.6143L69.9248 82.4522C69.7822 83.011 69.7109 83.4998 69.7109 83.9188ZM101.466 60.7689L101.252 61.1878H101.786L102.749 60.7689L104.887 59.1975L105.315 58.6738C105.671 58.4644 105.849 58.1501 105.849 57.7311C106.134 57.0327 105.671 57.0677 104.459 57.8359C103.034 58.8135 102.143 59.6166 101.786 60.2451L101.466 60.7689Z"/>
<path d="M136.143 171.875C136.143 159.079 140.705 146.581 149.828 134.38C152.434 130.313 155.792 125.75 159.903 120.691C164.013 115.632 167.672 111.317 170.881 107.746C174.089 104.175 178.475 99.4139 184.038 93.4623C189.602 87.5105 193.538 83.2453 195.843 80.6662L195.994 80.2198C196.093 80.0214 196.219 79.823 196.369 79.6247C196.52 79.4262 196.594 79.2775 196.594 79.1782H195.843C195.342 79.1782 194.489 79.3767 193.286 79.7734C188.775 81.9557 180.805 85.4524 169.376 90.2632C157.948 95.0742 147.672 99.8602 138.549 104.622C129.426 109.383 121.306 114.69 114.188 120.542C114.088 120.641 113.186 121.41 111.481 122.849C109.777 124.287 107.897 125.849 105.842 127.535C103.787 129.222 102.258 130.462 101.256 131.255C101.156 131.354 100.905 131.627 100.504 132.073C100.103 132.52 99.8523 132.793 99.752 132.892C98.3485 133.884 97.0453 135.273 95.8423 137.058L91.0301 143.754L86.6692 148.812C86.6692 149.209 86.2682 149.408 85.4663 149.408C85.2657 149.308 84.965 149.06 84.564 148.664C84.1629 148.267 83.9625 148.019 83.9625 147.92L86.3686 143.605C100.905 120.889 119.451 97.0828 142.008 72.1851C134.589 74.5658 124.038 81.3605 110.354 92.5695C96.6692 103.778 83.0602 116.525 69.5263 130.809C68.7242 131.602 67.2705 133.14 65.1654 135.421C50.4284 151.392 38.8494 162.104 30.4283 167.56C16.1925 176.884 7.01956 175.347 2.90924 162.948C-1.80256 148.565 2.20749 138.695 14.9394 133.338C21.2552 130.66 27.6714 129.519 34.1877 129.916C35.5912 130.015 36.2428 130.214 36.1426 130.511C35.942 130.809 33.8369 131.007 29.8268 131.106C24.9144 131.206 20.5034 132.495 16.5935 134.975C12.6838 137.455 9.80153 140.48 7.94687 144.051C6.09223 147.622 4.86415 151.292 4.26265 155.062C3.66113 158.831 4.06214 162.278 5.46566 165.403C6.86918 168.527 9.0747 170.635 12.0822 171.726C16.0923 172.421 20.5785 171.478 25.541 168.899C30.5034 166.32 35.6663 162.576 41.0299 157.666C46.3933 152.755 52.0074 147.176 57.872 140.927C63.7367 134.677 70.1278 127.982 77.0452 120.84C83.9625 113.698 90.9549 106.853 98.0227 100.307C105.09 93.7599 112.985 87.5353 121.707 81.6333C130.429 75.7312 139.051 71.0939 147.572 67.7213C147.672 67.7213 147.923 67.6222 148.324 67.4237C148.725 67.2254 149.127 67.027 149.527 66.8287L150.129 66.3822C150.529 66.1838 151.105 65.9359 151.857 65.6383C152.61 65.3407 152.985 65.2415 152.985 65.3407L153.738 65.9359C153.536 66.2335 152.635 67.0766 151.031 68.4653C149.426 69.854 148.524 70.6972 148.324 70.9948C141.406 77.5416 132.735 87.7585 122.309 101.646C111.882 115.533 104.714 124.659 100.805 129.023L100.654 129.47L100.805 129.767C109.326 123.022 114.288 119.005 115.692 117.715C121.106 113.053 128.675 108.217 138.399 103.208C148.123 98.1988 158.775 93.2143 170.355 88.2546C181.933 83.2949 188.074 80.6662 188.775 80.3686C189.276 80.1703 190.429 79.6742 192.233 78.8806C194.039 78.0872 195.668 77.368 197.121 76.7232C198.575 76.0784 199.452 75.6569 199.753 75.4584L205.316 71.2924C206.32 70.3004 207.122 69.8044 207.722 69.8044C207.823 69.7053 208.324 69.6557 209.227 69.6557L209.075 70.6972C204.165 77.5415 194.389 88.6017 179.752 103.878C165.116 119.154 155.091 131.602 149.676 141.224C148.374 143.704 147.296 145.787 146.444 147.473C145.592 149.16 144.64 151.193 143.587 153.574C142.534 155.955 141.732 158.162 141.181 160.195C140.63 162.229 140.128 164.386 139.677 166.667C139.226 168.949 139.051 171.23 139.151 173.512C139.251 175.793 139.602 178.075 140.203 180.356C142.108 185.911 146.118 190.424 152.233 193.896C158.349 197.368 164.414 198.36 170.429 196.872C170.73 196.872 171.457 196.674 172.609 196.277C173.762 195.88 174.44 195.682 174.64 195.682V196.426C172.835 197.814 169.928 198.534 165.918 198.583C161.908 198.633 158.901 198.211 156.895 197.318C150.88 195.335 145.918 192.16 142.008 187.796C138.098 183.431 136.143 178.124 136.143 171.875Z"/>
</mask>
<path d="M1.87218 95.5386C-0.0248605 88.0024 1.17327 79.2266 5.46655 69.2114C9.75985 59.1962 16.1499 49.28 24.6366 39.4624C24.7364 39.1663 24.7863 38.9185 24.7863 38.7191L24.6366 37.9757C22.44 35.8938 20.7927 33.91 19.6943 32.026C18.5961 30.1419 17.8721 27.7374 17.5227 24.8124C17.1733 21.8873 17.8971 18.7878 19.6943 15.5153C20.4931 15.1194 20.9923 14.9215 21.192 14.9215C21.4915 14.9215 21.6412 15.2675 21.6412 15.9625C17.2481 23.201 18.5961 30.0422 25.6849 36.489L26.7334 37.0828C29.7286 33.7121 33.5477 30.1669 38.1905 26.4486C42.8331 22.7304 46.752 19.8288 49.947 17.7468L54.5898 14.6239C62.0781 10.0626 69.6663 6.61557 77.3542 4.2858C85.0422 1.95604 91.6818 0.865189 97.2731 1.01328C102.864 1.16283 107.707 2.12904 111.8 3.91339C120.387 8.27675 122.484 14.1767 118.091 21.6146C113.997 28.5555 105.91 34.7531 93.8285 40.2073C78.5523 47.1482 63.7755 49.8753 49.4978 48.3871C41.2107 47.5939 34.1217 45.2143 28.2311 41.2482C28.2311 41.3465 28.1311 41.4462 27.9315 41.5459L27.632 41.8435C26.3339 43.7276 24.387 46.4297 21.7911 49.95C19.1952 53.4696 17.298 56.0975 16.1 57.8327C14.9018 59.5681 13.4042 61.9975 11.607 65.1211C9.80977 68.2446 8.48683 70.9716 7.63816 73.3018C6.78949 75.6321 6.04067 78.4582 5.39168 81.7801C4.74269 85.1019 4.4182 88.5479 4.4182 92.1176C4.4182 96.4806 6.16547 100.794 9.66001 105.058C13.1545 109.322 17.0485 111.454 21.3417 111.454C27.2325 111.652 32.8988 110.289 38.3402 107.364C43.7816 104.438 49.947 100.001 56.8362 94.0512H57.4353V94.6462C50.9454 100.596 44.9548 105.182 39.4635 108.405C33.972 111.627 27.7817 113.239 20.8925 113.239C16.4993 113.239 12.5804 111.479 9.13582 107.959C5.69121 104.438 3.26999 100.298 1.87218 95.5386ZM117.941 10.4584C111.151 0.74057 96.5742 -0.152336 74.2091 7.78117C68.6179 9.56552 62.0282 13.0374 54.4401 18.1925C46.8518 23.3491 39.8129 28.9514 33.323 35.0008C33.2233 35.0008 33.0235 35.1739 32.724 35.5214C32.4244 35.8688 32.0002 36.3644 31.451 37.0095C30.9018 37.6532 30.4276 38.3232 30.0281 39.0167C35.4198 43.2804 42.334 45.8594 50.7708 46.7508C59.2076 47.6437 67.5446 47.0001 75.7817 44.8184C84.0189 42.6367 91.7068 39.7601 98.8456 36.1914C105.984 32.6212 111.376 28.4558 115.02 23.6966C118.665 18.9374 119.638 14.5241 117.941 10.4584Z" fill="#F7F5EF"/>
<path d="M91.0945 81.4047C90.6668 81.4047 90.346 81.4746 90.1323 81.6143L85.4278 84.652L84.1448 85.3853C83.7885 85.5947 82.7905 86.0661 81.1511 86.7994C79.5116 87.5327 78.5494 87.8992 78.2644 87.8992C77.9079 88.1088 77.2664 88.2135 76.3398 88.2135L74.736 88.3183L73.2392 88.2135C72.5977 88.2135 72.0631 88.1088 71.6353 87.8992C71.4216 87.8295 71.0652 87.6375 70.5663 87.3232C70.0674 87.009 69.7822 86.7819 69.7109 86.6423C69.6397 86.6423 69.4615 86.5026 69.1763 86.2232C68.8912 85.944 68.713 85.7693 68.6416 85.6995C68.6416 85.4201 68.4635 85.1059 68.1071 84.7568C67.822 83.9188 67.6794 83.395 67.6794 83.1855V82.138C67.6794 81.6492 67.7508 81.1953 67.8933 80.7762L68.2141 79.7287L68.8556 78.5765C70.0674 75.7831 72.562 73.1295 76.3398 70.6154C76.4111 70.5456 76.6071 70.4059 76.9279 70.1965C77.2486 69.9869 77.5515 69.7774 77.8367 69.568L78.2644 69.2537C78.7633 68.9045 79.7968 68.3284 81.3649 67.5252C82.9331 66.7222 83.9667 66.2857 84.4656 66.2159L85.1071 66.0065C85.5348 65.8668 85.9981 65.7097 86.4971 65.5349C86.996 65.3604 87.3523 65.2383 87.5663 65.1684L91.0945 64.2256C93.6605 63.5971 95.0505 63.2829 95.2642 63.2829L98.6857 62.1306C98.8282 62.0608 99.4341 61.3974 100.503 60.1404L100.824 59.6166C101.109 59.3372 101.394 59.0404 101.679 58.7262C101.965 58.4119 102.143 58.2548 102.214 58.2548C103.212 57.0677 104.103 56.3693 104.887 56.1599L105.315 56.0551C105.6 55.9853 105.778 55.9503 105.849 55.9503L106.811 56.1599C107.239 56.3693 107.453 56.6836 107.453 57.1026C107.453 57.8009 107.31 58.3247 107.025 58.6738L106.491 59.6166L105.315 60.7689L103.283 62.1306C103.069 62.4798 102.749 62.6544 102.321 62.6544C102.25 62.7242 101.982 62.829 101.519 62.9686C101.056 63.1083 100.824 63.213 100.824 63.2829L99.7549 63.5971C99.7549 63.9463 99.3985 64.4701 98.6857 65.1684C98.3293 65.5175 97.8304 66.4953 97.1889 68.1014C97.1175 68.2411 97.0463 68.4331 96.9749 68.6776C96.9037 68.9219 96.8146 69.1489 96.7078 69.3584C96.6008 69.568 96.5116 69.76 96.4404 69.9345C96.3691 70.1091 96.3334 70.2662 96.3334 70.4059L96.2265 70.6154C96.2265 70.6853 96.1731 70.8424 96.0661 71.0867C95.9593 71.3312 95.8701 71.5581 95.7989 71.7677C95.7276 71.9771 95.6919 72.1168 95.6919 72.1868L94.6227 75.6435L94.0882 77.1099V77.7384L95.2642 77.1099C95.5494 77.1099 96.1909 76.6211 97.1889 75.6435C97.4739 75.3641 97.8304 75.2244 98.2579 75.2244L99.3271 75.1198C99.3271 75.4689 99.2915 75.6435 99.2202 75.6435L98.2579 76.1672L94.0882 79.1002L93.019 80.2525L92.8052 80.7762C92.6626 81.0556 92.5201 81.3873 92.3775 81.7714C92.2349 82.1554 92.128 82.4522 92.0567 82.6617C92.0567 82.7316 92.0033 82.8887 91.8964 83.1331C91.7894 83.3775 91.7004 83.6044 91.629 83.814L91.5222 84.1283L89.5976 92.194H88.7423C88.7423 91.9846 88.8315 91.4608 89.0096 90.6228C89.1878 89.7847 89.2768 89.2959 89.2768 89.1562C89.2768 87.8295 89.5264 86.6771 90.0253 85.6995C90.0253 85.6297 90.0609 85.525 90.1323 85.3853C90.4174 83.7092 90.7381 82.3825 91.0945 81.4047ZM69.7109 83.9188L70.1386 85.1758L71.2078 86.2232C71.7067 86.5725 72.277 86.8168 72.9185 86.9565C73.9876 87.0962 74.5935 87.1661 74.736 87.1661H75.6983C76.91 87.1661 77.7653 86.9914 78.2644 86.6423C78.7633 86.6423 79.8324 86.2931 81.4719 85.5947L84.4656 84.1283C87.6019 82.3126 90.1323 80.6365 92.0567 79.1002L95.2642 70.1965C95.2642 70.1266 95.3356 69.9345 95.4782 69.6203C95.6207 69.3061 95.7633 68.9395 95.9057 68.5204C96.0483 68.1014 96.1553 67.822 96.2265 67.6824L97.8304 64.2256H97.1889C97.1175 64.2256 96.6898 64.278 95.9057 64.3828C95.1217 64.4875 94.6941 64.5748 94.6227 64.6447L90.0253 65.9017C86.1049 67.2284 82.5411 68.7998 79.3335 70.6154C77.2664 72.0819 75.8408 73.2692 75.0568 74.1769C75.0568 74.1071 74.9498 74.2119 74.736 74.4911C74.5222 74.7705 74.2371 75.1022 73.8807 75.4863C73.5242 75.8704 73.1679 76.272 72.8115 76.691C72.4552 77.1099 72.1522 77.5115 71.9027 77.8957C71.6533 78.2797 71.4929 78.5416 71.4216 78.6813C70.9939 78.9605 70.5663 79.9383 70.1386 81.6143L69.9248 82.4522C69.7822 83.011 69.7109 83.4998 69.7109 83.9188ZM101.466 60.7689L101.252 61.1878H101.786L102.749 60.7689L104.887 59.1975L105.315 58.6738C105.671 58.4644 105.849 58.1501 105.849 57.7311C106.134 57.0327 105.671 57.0677 104.459 57.8359C103.034 58.8135 102.143 59.6166 101.786 60.2451L101.466 60.7689Z" fill="#F7F5EF"/>
<path d="M136.143 171.875C136.143 159.079 140.705 146.581 149.828 134.38C152.434 130.313 155.792 125.75 159.903 120.691C164.013 115.632 167.672 111.317 170.881 107.746C174.089 104.175 178.475 99.4139 184.038 93.4623C189.602 87.5105 193.538 83.2453 195.843 80.6662L195.994 80.2198C196.093 80.0214 196.219 79.823 196.369 79.6247C196.52 79.4262 196.594 79.2775 196.594 79.1782H195.843C195.342 79.1782 194.489 79.3767 193.286 79.7734C188.775 81.9557 180.805 85.4524 169.376 90.2632C157.948 95.0742 147.672 99.8602 138.549 104.622C129.426 109.383 121.306 114.69 114.188 120.542C114.088 120.641 113.186 121.41 111.481 122.849C109.777 124.287 107.897 125.849 105.842 127.535C103.787 129.222 102.258 130.462 101.256 131.255C101.156 131.354 100.905 131.627 100.504 132.073C100.103 132.52 99.8523 132.793 99.752 132.892C98.3485 133.884 97.0453 135.273 95.8423 137.058L91.0301 143.754L86.6692 148.812C86.6692 149.209 86.2682 149.408 85.4663 149.408C85.2657 149.308 84.965 149.06 84.564 148.664C84.1629 148.267 83.9625 148.019 83.9625 147.92L86.3686 143.605C100.905 120.889 119.451 97.0828 142.008 72.1851C134.589 74.5658 124.038 81.3605 110.354 92.5695C96.6692 103.778 83.0602 116.525 69.5263 130.809C68.7242 131.602 67.2705 133.14 65.1654 135.421C50.4284 151.392 38.8494 162.104 30.4283 167.56C16.1925 176.884 7.01956 175.347 2.90924 162.948C-1.80256 148.565 2.20749 138.695 14.9394 133.338C21.2552 130.66 27.6714 129.519 34.1877 129.916C35.5912 130.015 36.2428 130.214 36.1426 130.511C35.942 130.809 33.8369 131.007 29.8268 131.106C24.9144 131.206 20.5034 132.495 16.5935 134.975C12.6838 137.455 9.80153 140.48 7.94687 144.051C6.09223 147.622 4.86415 151.292 4.26265 155.062C3.66113 158.831 4.06214 162.278 5.46566 165.403C6.86918 168.527 9.0747 170.635 12.0822 171.726C16.0923 172.421 20.5785 171.478 25.541 168.899C30.5034 166.32 35.6663 162.576 41.0299 157.666C46.3933 152.755 52.0074 147.176 57.872 140.927C63.7367 134.677 70.1278 127.982 77.0452 120.84C83.9625 113.698 90.9549 106.853 98.0227 100.307C105.09 93.7599 112.985 87.5353 121.707 81.6333C130.429 75.7312 139.051 71.0939 147.572 67.7213C147.672 67.7213 147.923 67.6222 148.324 67.4237C148.725 67.2254 149.127 67.027 149.527 66.8287L150.129 66.3822C150.529 66.1838 151.105 65.9359 151.857 65.6383C152.61 65.3407 152.985 65.2415 152.985 65.3407L153.738 65.9359C153.536 66.2335 152.635 67.0766 151.031 68.4653C149.426 69.854 148.524 70.6972 148.324 70.9948C141.406 77.5416 132.735 87.7585 122.309 101.646C111.882 115.533 104.714 124.659 100.805 129.023L100.654 129.47L100.805 129.767C109.326 123.022 114.288 119.005 115.692 117.715C121.106 113.053 128.675 108.217 138.399 103.208C148.123 98.1988 158.775 93.2143 170.355 88.2546C181.933 83.2949 188.074 80.6662 188.775 80.3686C189.276 80.1703 190.429 79.6742 192.233 78.8806C194.039 78.0872 195.668 77.368 197.121 76.7232C198.575 76.0784 199.452 75.6569 199.753 75.4584L205.316 71.2924C206.32 70.3004 207.122 69.8044 207.722 69.8044C207.823 69.7053 208.324 69.6557 209.227 69.6557L209.075 70.6972C204.165 77.5415 194.389 88.6017 179.752 103.878C165.116 119.154 155.091 131.602 149.676 141.224C148.374 143.704 147.296 145.787 146.444 147.473C145.592 149.16 144.64 151.193 143.587 153.574C142.534 155.955 141.732 158.162 141.181 160.195C140.63 162.229 140.128 164.386 139.677 166.667C139.226 168.949 139.051 171.23 139.151 173.512C139.251 175.793 139.602 178.075 140.203 180.356C142.108 185.911 146.118 190.424 152.233 193.896C158.349 197.368 164.414 198.36 170.429 196.872C170.73 196.872 171.457 196.674 172.609 196.277C173.762 195.88 174.44 195.682 174.64 195.682V196.426C172.835 197.814 169.928 198.534 165.918 198.583C161.908 198.633 158.901 198.211 156.895 197.318C150.88 195.335 145.918 192.16 142.008 187.796C138.098 183.431 136.143 178.124 136.143 171.875Z" fill="#F7F5EF"/>
<path d="M1.87218 95.5386C-0.0248605 88.0024 1.17327 79.2266 5.46655 69.2114C9.75985 59.1962 16.1499 49.28 24.6366 39.4624C24.7364 39.1663 24.7863 38.9185 24.7863 38.7191L24.6366 37.9757C22.44 35.8938 20.7927 33.91 19.6943 32.026C18.5961 30.1419 17.8721 27.7374 17.5227 24.8124C17.1733 21.8873 17.8971 18.7878 19.6943 15.5153C20.4931 15.1194 20.9923 14.9215 21.192 14.9215C21.4915 14.9215 21.6412 15.2675 21.6412 15.9625C17.2481 23.201 18.5961 30.0422 25.6849 36.489L26.7334 37.0828C29.7286 33.7121 33.5477 30.1669 38.1905 26.4486C42.8331 22.7304 46.752 19.8288 49.947 17.7468L54.5898 14.6239C62.0781 10.0626 69.6663 6.61557 77.3542 4.2858C85.0422 1.95604 91.6818 0.865189 97.2731 1.01328C102.864 1.16283 107.707 2.12904 111.8 3.91339C120.387 8.27675 122.484 14.1767 118.091 21.6146C113.997 28.5555 105.91 34.7531 93.8285 40.2073C78.5523 47.1482 63.7755 49.8753 49.4978 48.3871C41.2107 47.5939 34.1217 45.2143 28.2311 41.2482C28.2311 41.3465 28.1311 41.4462 27.9315 41.5459L27.632 41.8435C26.3339 43.7276 24.387 46.4297 21.7911 49.95C19.1952 53.4696 17.298 56.0975 16.1 57.8327C14.9018 59.5681 13.4042 61.9975 11.607 65.1211C9.80977 68.2446 8.48683 70.9716 7.63816 73.3018C6.78949 75.6321 6.04067 78.4582 5.39168 81.7801C4.74269 85.1019 4.4182 88.5479 4.4182 92.1176C4.4182 96.4806 6.16547 100.794 9.66001 105.058C13.1545 109.322 17.0485 111.454 21.3417 111.454C27.2325 111.652 32.8988 110.289 38.3402 107.364C43.7816 104.438 49.947 100.001 56.8362 94.0512H57.4353V94.6462C50.9454 100.596 44.9548 105.182 39.4635 108.405C33.972 111.627 27.7817 113.239 20.8925 113.239C16.4993 113.239 12.5804 111.479 9.13582 107.959C5.69121 104.438 3.26999 100.298 1.87218 95.5386ZM117.941 10.4584C111.151 0.74057 96.5742 -0.152336 74.2091 7.78117C68.6179 9.56552 62.0282 13.0374 54.4401 18.1925C46.8518 23.3491 39.8129 28.9514 33.323 35.0008C33.2233 35.0008 33.0235 35.1739 32.724 35.5214C32.4244 35.8688 32.0002 36.3644 31.451 37.0095C30.9018 37.6532 30.4276 38.3232 30.0281 39.0167C35.4198 43.2804 42.334 45.8594 50.7708 46.7508C59.2076 47.6437 67.5446 47.0001 75.7817 44.8184C84.0189 42.6367 91.7068 39.7601 98.8456 36.1914C105.984 32.6212 111.376 28.4558 115.02 23.6966C118.665 18.9374 119.638 14.5241 117.941 10.4584Z" stroke="white" stroke-width="2" mask="url(#path-1-outside-1_45_2013)"/>
<path d="M91.0945 81.4047C90.6668 81.4047 90.346 81.4746 90.1323 81.6143L85.4278 84.652L84.1448 85.3853C83.7885 85.5947 82.7905 86.0661 81.1511 86.7994C79.5116 87.5327 78.5494 87.8992 78.2644 87.8992C77.9079 88.1088 77.2664 88.2135 76.3398 88.2135L74.736 88.3183L73.2392 88.2135C72.5977 88.2135 72.0631 88.1088 71.6353 87.8992C71.4216 87.8295 71.0652 87.6375 70.5663 87.3232C70.0674 87.009 69.7822 86.7819 69.7109 86.6423C69.6397 86.6423 69.4615 86.5026 69.1763 86.2232C68.8912 85.944 68.713 85.7693 68.6416 85.6995C68.6416 85.4201 68.4635 85.1059 68.1071 84.7568C67.822 83.9188 67.6794 83.395 67.6794 83.1855V82.138C67.6794 81.6492 67.7508 81.1953 67.8933 80.7762L68.2141 79.7287L68.8556 78.5765C70.0674 75.7831 72.562 73.1295 76.3398 70.6154C76.4111 70.5456 76.6071 70.4059 76.9279 70.1965C77.2486 69.9869 77.5515 69.7774 77.8367 69.568L78.2644 69.2537C78.7633 68.9045 79.7968 68.3284 81.3649 67.5252C82.9331 66.7222 83.9667 66.2857 84.4656 66.2159L85.1071 66.0065C85.5348 65.8668 85.9981 65.7097 86.4971 65.5349C86.996 65.3604 87.3523 65.2383 87.5663 65.1684L91.0945 64.2256C93.6605 63.5971 95.0505 63.2829 95.2642 63.2829L98.6857 62.1306C98.8282 62.0608 99.4341 61.3974 100.503 60.1404L100.824 59.6166C101.109 59.3372 101.394 59.0404 101.679 58.7262C101.965 58.4119 102.143 58.2548 102.214 58.2548C103.212 57.0677 104.103 56.3693 104.887 56.1599L105.315 56.0551C105.6 55.9853 105.778 55.9503 105.849 55.9503L106.811 56.1599C107.239 56.3693 107.453 56.6836 107.453 57.1026C107.453 57.8009 107.31 58.3247 107.025 58.6738L106.491 59.6166L105.315 60.7689L103.283 62.1306C103.069 62.4798 102.749 62.6544 102.321 62.6544C102.25 62.7242 101.982 62.829 101.519 62.9686C101.056 63.1083 100.824 63.213 100.824 63.2829L99.7549 63.5971C99.7549 63.9463 99.3985 64.4701 98.6857 65.1684C98.3293 65.5175 97.8304 66.4953 97.1889 68.1014C97.1175 68.2411 97.0463 68.4331 96.9749 68.6776C96.9037 68.9219 96.8146 69.1489 96.7078 69.3584C96.6008 69.568 96.5116 69.76 96.4404 69.9345C96.3691 70.1091 96.3334 70.2662 96.3334 70.4059L96.2265 70.6154C96.2265 70.6853 96.1731 70.8424 96.0661 71.0867C95.9593 71.3312 95.8701 71.5581 95.7989 71.7677C95.7276 71.9771 95.6919 72.1168 95.6919 72.1868L94.6227 75.6435L94.0882 77.1099V77.7384L95.2642 77.1099C95.5494 77.1099 96.1909 76.6211 97.1889 75.6435C97.4739 75.3641 97.8304 75.2244 98.2579 75.2244L99.3271 75.1198C99.3271 75.4689 99.2915 75.6435 99.2202 75.6435L98.2579 76.1672L94.0882 79.1002L93.019 80.2525L92.8052 80.7762C92.6626 81.0556 92.5201 81.3873 92.3775 81.7714C92.2349 82.1554 92.128 82.4522 92.0567 82.6617C92.0567 82.7316 92.0033 82.8887 91.8964 83.1331C91.7894 83.3775 91.7004 83.6044 91.629 83.814L91.5222 84.1283L89.5976 92.194H88.7423C88.7423 91.9846 88.8315 91.4608 89.0096 90.6228C89.1878 89.7847 89.2768 89.2959 89.2768 89.1562C89.2768 87.8295 89.5264 86.6771 90.0253 85.6995C90.0253 85.6297 90.0609 85.525 90.1323 85.3853C90.4174 83.7092 90.7381 82.3825 91.0945 81.4047ZM69.7109 83.9188L70.1386 85.1758L71.2078 86.2232C71.7067 86.5725 72.277 86.8168 72.9185 86.9565C73.9876 87.0962 74.5935 87.1661 74.736 87.1661H75.6983C76.91 87.1661 77.7653 86.9914 78.2644 86.6423C78.7633 86.6423 79.8324 86.2931 81.4719 85.5947L84.4656 84.1283C87.6019 82.3126 90.1323 80.6365 92.0567 79.1002L95.2642 70.1965C95.2642 70.1266 95.3356 69.9345 95.4782 69.6203C95.6207 69.3061 95.7633 68.9395 95.9057 68.5204C96.0483 68.1014 96.1553 67.822 96.2265 67.6824L97.8304 64.2256H97.1889C97.1175 64.2256 96.6898 64.278 95.9057 64.3828C95.1217 64.4875 94.6941 64.5748 94.6227 64.6447L90.0253 65.9017C86.1049 67.2284 82.5411 68.7998 79.3335 70.6154C77.2664 72.0819 75.8408 73.2692 75.0568 74.1769C75.0568 74.1071 74.9498 74.2119 74.736 74.4911C74.5222 74.7705 74.2371 75.1022 73.8807 75.4863C73.5242 75.8704 73.1679 76.272 72.8115 76.691C72.4552 77.1099 72.1522 77.5115 71.9027 77.8957C71.6533 78.2797 71.4929 78.5416 71.4216 78.6813C70.9939 78.9605 70.5663 79.9383 70.1386 81.6143L69.9248 82.4522C69.7822 83.011 69.7109 83.4998 69.7109 83.9188ZM101.466 60.7689L101.252 61.1878H101.786L102.749 60.7689L104.887 59.1975L105.315 58.6738C105.671 58.4644 105.849 58.1501 105.849 57.7311C106.134 57.0327 105.671 57.0677 104.459 57.8359C103.034 58.8135 102.143 59.6166 101.786 60.2451L101.466 60.7689Z" stroke="white" stroke-width="2" mask="url(#path-1-outside-1_45_2013)"/>
<path d="M136.143 171.875C136.143 159.079 140.705 146.581 149.828 134.38C152.434 130.313 155.792 125.75 159.903 120.691C164.013 115.632 167.672 111.317 170.881 107.746C174.089 104.175 178.475 99.4139 184.038 93.4623C189.602 87.5105 193.538 83.2453 195.843 80.6662L195.994 80.2198C196.093 80.0214 196.219 79.823 196.369 79.6247C196.52 79.4262 196.594 79.2775 196.594 79.1782H195.843C195.342 79.1782 194.489 79.3767 193.286 79.7734C188.775 81.9557 180.805 85.4524 169.376 90.2632C157.948 95.0742 147.672 99.8602 138.549 104.622C129.426 109.383 121.306 114.69 114.188 120.542C114.088 120.641 113.186 121.41 111.481 122.849C109.777 124.287 107.897 125.849 105.842 127.535C103.787 129.222 102.258 130.462 101.256 131.255C101.156 131.354 100.905 131.627 100.504 132.073C100.103 132.52 99.8523 132.793 99.752 132.892C98.3485 133.884 97.0453 135.273 95.8423 137.058L91.0301 143.754L86.6692 148.812C86.6692 149.209 86.2682 149.408 85.4663 149.408C85.2657 149.308 84.965 149.06 84.564 148.664C84.1629 148.267 83.9625 148.019 83.9625 147.92L86.3686 143.605C100.905 120.889 119.451 97.0828 142.008 72.1851C134.589 74.5658 124.038 81.3605 110.354 92.5695C96.6692 103.778 83.0602 116.525 69.5263 130.809C68.7242 131.602 67.2705 133.14 65.1654 135.421C50.4284 151.392 38.8494 162.104 30.4283 167.56C16.1925 176.884 7.01956 175.347 2.90924 162.948C-1.80256 148.565 2.20749 138.695 14.9394 133.338C21.2552 130.66 27.6714 129.519 34.1877 129.916C35.5912 130.015 36.2428 130.214 36.1426 130.511C35.942 130.809 33.8369 131.007 29.8268 131.106C24.9144 131.206 20.5034 132.495 16.5935 134.975C12.6838 137.455 9.80153 140.48 7.94687 144.051C6.09223 147.622 4.86415 151.292 4.26265 155.062C3.66113 158.831 4.06214 162.278 5.46566 165.403C6.86918 168.527 9.0747 170.635 12.0822 171.726C16.0923 172.421 20.5785 171.478 25.541 168.899C30.5034 166.32 35.6663 162.576 41.0299 157.666C46.3933 152.755 52.0074 147.176 57.872 140.927C63.7367 134.677 70.1278 127.982 77.0452 120.84C83.9625 113.698 90.9549 106.853 98.0227 100.307C105.09 93.7599 112.985 87.5353 121.707 81.6333C130.429 75.7312 139.051 71.0939 147.572 67.7213C147.672 67.7213 147.923 67.6222 148.324 67.4237C148.725 67.2254 149.127 67.027 149.527 66.8287L150.129 66.3822C150.529 66.1838 151.105 65.9359 151.857 65.6383C152.61 65.3407 152.985 65.2415 152.985 65.3407L153.738 65.9359C153.536 66.2335 152.635 67.0766 151.031 68.4653C149.426 69.854 148.524 70.6972 148.324 70.9948C141.406 77.5416 132.735 87.7585 122.309 101.646C111.882 115.533 104.714 124.659 100.805 129.023L100.654 129.47L100.805 129.767C109.326 123.022 114.288 119.005 115.692 117.715C121.106 113.053 128.675 108.217 138.399 103.208C148.123 98.1988 158.775 93.2143 170.355 88.2546C181.933 83.2949 188.074 80.6662 188.775 80.3686C189.276 80.1703 190.429 79.6742 192.233 78.8806C194.039 78.0872 195.668 77.368 197.121 76.7232C198.575 76.0784 199.452 75.6569 199.753 75.4584L205.316 71.2924C206.32 70.3004 207.122 69.8044 207.722 69.8044C207.823 69.7053 208.324 69.6557 209.227 69.6557L209.075 70.6972C204.165 77.5415 194.389 88.6017 179.752 103.878C165.116 119.154 155.091 131.602 149.676 141.224C148.374 143.704 147.296 145.787 146.444 147.473C145.592 149.16 144.64 151.193 143.587 153.574C142.534 155.955 141.732 158.162 141.181 160.195C140.63 162.229 140.128 164.386 139.677 166.667C139.226 168.949 139.051 171.23 139.151 173.512C139.251 175.793 139.602 178.075 140.203 180.356C142.108 185.911 146.118 190.424 152.233 193.896C158.349 197.368 164.414 198.36 170.429 196.872C170.73 196.872 171.457 196.674 172.609 196.277C173.762 195.88 174.44 195.682 174.64 195.682V196.426C172.835 197.814 169.928 198.534 165.918 198.583C161.908 198.633 158.901 198.211 156.895 197.318C150.88 195.335 145.918 192.16 142.008 187.796C138.098 183.431 136.143 178.124 136.143 171.875Z" stroke="white" stroke-width="2" mask="url(#path-1-outside-1_45_2013)"/>
</svg>
