<?xml version="1.0" encoding="UTF-8" standalone="no"?>
<!DOCTYPE svg PUBLIC "-//W3C//DTD SVG 1.1//EN" "http://www.w3.org/Graphics/SVG/1.1/DTD/svg11.dtd">
<svg width="100%" height="100%" viewBox="0 0 211 200" version="1.1" xmlns="http://www.w3.org/2000/svg" xmlns:xlink="http://www.w3.org/1999/xlink" xml:space="preserve" xmlns:serif="http://www.serif.com/" style="fill-rule:evenodd;clip-rule:evenodd;stroke-linejoin:round;stroke-miterlimit:2;">
    <path d="M28.369,42.536C34.248,46.315 41.256,48.602 49.399,49.382C63.84,50.887 78.789,48.139 94.241,41.118C106.56,35.557 114.778,29.2 118.952,22.123C121.331,18.094 121.891,14.472 120.755,11.276C119.637,8.13 116.832,5.349 112.253,3.022L112.2,2.997C108.001,1.166 103.035,0.167 97.3,0.014L97.3,0.014C91.62,-0.137 84.874,0.962 77.064,3.329C69.299,5.682 61.633,9.163 54.07,13.77L54.05,13.782C54.032,13.794 49.394,16.913 49.394,16.913C46.179,19.009 42.236,21.928 37.565,25.668C33.148,29.206 29.469,32.59 26.527,35.817C26.527,35.817 26.276,35.674 26.276,35.674C22.968,32.646 20.971,29.542 20.338,26.329C19.71,23.137 20.446,19.858 22.496,16.481L22.641,16.242L22.641,15.963C22.641,14.428 21.853,13.922 21.192,13.922C20.936,13.922 20.273,14.112 19.25,14.619L18.969,14.759L18.818,15.034C16.906,18.516 16.158,21.819 16.53,24.931C16.898,28.014 17.673,30.544 18.83,32.53L18.83,32.53C19.93,34.416 21.557,36.404 23.719,38.482C23.718,38.482 23.781,38.794 23.781,38.794C23.775,38.847 23.762,38.903 23.745,38.964C15.252,48.817 8.855,58.769 4.547,68.817C0.151,79.073 -1.04,88.065 0.902,95.783L0.907,95.802C2.358,100.74 4.861,105.019 8.421,108.658L8.421,108.658C12.073,112.39 16.235,114.239 20.892,114.239C27.97,114.239 34.328,112.578 39.97,109.268L39.97,109.267C45.512,106.014 51.561,101.389 58.111,95.383L58.435,95.086L58.435,93.051L56.464,93.051L56.183,93.294C49.359,99.187 43.256,103.585 37.867,106.483C32.587,109.321 27.091,110.647 21.375,110.455L21.359,110.454C17.324,110.454 13.704,108.415 10.433,104.424C7.107,100.366 5.418,96.27 5.418,92.118C5.418,88.614 5.736,85.232 6.373,81.972C7.011,78.709 7.744,75.933 8.578,73.644C9.41,71.358 10.711,68.684 12.474,65.62L12.474,65.62C14.254,62.526 15.736,60.12 16.923,58.401L16.923,58.401C18.117,56.671 20.008,54.052 22.596,50.544L22.596,50.544C25.143,47.089 27.068,44.42 28.369,42.536ZM33.642,36.001L33.717,36.001L34.005,35.732C40.458,29.717 47.457,24.147 55.002,19.02C62.493,13.931 68.994,10.495 74.513,8.734L74.528,8.729C85.568,4.813 94.669,3.059 101.855,3.499C108.743,3.92 113.823,6.375 117.056,10.939L117.059,10.944C118.573,14.682 117.573,18.718 114.226,23.089L114.226,23.089C110.662,27.743 105.38,31.805 98.398,35.297C91.319,38.836 83.694,41.688 75.526,43.852C67.408,46.002 59.191,46.636 50.876,45.756L50.876,45.756C43.017,44.926 36.507,42.608 31.358,38.777C31.617,38.395 31.901,38.022 32.212,37.659L33.481,36.174C33.532,36.115 33.591,36.053 33.642,36.001ZM27.376,42.214L27.333,42.275L27.632,42.844L27.376,42.214ZM27.932,42.546L27.849,42.195L27.759,42.136L27.932,42.546ZM27.74,41.736L27.805,42.007L27.724,42.05L27.636,41.84L27.74,41.736Z" style="fill:rgb(247,245,239);fill-rule:nonzero;"/>
    <path d="M105.198,56.084L105.192,56.085L105.065,55.087L104.659,55.186L104.775,56.193L104.761,56.198L104.629,55.194C103.74,55.431 102.701,56.159 101.576,57.462C101.429,57.565 101.21,57.755 100.939,58.053L100.939,58.054C100.667,58.354 100.395,58.636 100.124,58.903L100.036,58.989L99.691,59.551C98.973,60.393 98.368,61.045 98.178,61.246L95,62.317C94.439,62.412 93.055,62.716 90.857,63.254L87.282,64.209L86.167,64.591C85.675,64.763 85.218,64.918 84.797,65.056C84.797,65.056 84.223,65.243 84.223,65.243C83.649,65.354 82.535,65.802 80.909,66.635L80.909,66.635C79.28,67.469 78.209,68.072 77.691,68.434L77.245,68.762C76.974,68.961 76.686,69.16 76.381,69.359C76.075,69.559 75.863,69.714 75.737,69.816C71.811,72.436 69.231,75.227 67.955,78.14C67.959,78.132 67.289,79.335 67.289,79.335L66.941,80.472C66.768,80.985 66.679,81.54 66.679,82.138C66.679,82.138 66.679,83.186 66.679,83.186C66.679,83.437 66.818,84.074 67.16,85.079L67.237,85.304L67.407,85.471C67.504,85.566 67.61,85.714 67.642,85.76L67.642,86.12L68.477,86.938C68.751,87.207 68.971,87.377 69.118,87.468C69.319,87.666 69.617,87.907 70.033,88.169C70.583,88.516 70.995,88.729 71.257,88.826C71.779,89.071 72.433,89.211 73.215,89.213C73.203,89.213 74.734,89.321 74.734,89.321L76.374,89.213C77.418,89.21 78.166,89.059 78.631,88.836C79.152,88.706 80.137,88.348 81.559,87.712L81.559,87.712C83.254,86.954 84.283,86.464 84.651,86.247C84.641,86.253 85.948,85.507 85.948,85.507L89.549,83.182C89.416,83.758 89.289,84.394 89.169,85.088C89.124,85.191 89.091,85.29 89.069,85.379C88.551,86.444 88.28,87.695 88.277,89.128C88.268,89.184 88.171,89.76 88.031,90.415L88.031,90.415C87.83,91.363 87.742,91.957 87.742,92.194L87.742,93.194L90.387,93.194L92.484,84.406L92.573,84.145L91.629,84.814L92.576,84.136L92.813,83.534C92.916,83.297 92.979,83.101 93.014,82.951L93.315,82.119C93.442,81.777 93.569,81.48 93.696,81.231L93.876,80.799C93.876,80.799 94.75,79.858 94.75,79.858C94.75,79.858 98.786,77.018 98.786,77.018C98.786,77.018 99.59,76.581 99.59,76.581C99.746,76.524 99.898,76.421 100.033,76.255C100.139,76.126 100.327,75.765 100.327,75.12L100.327,74.017L98.204,74.225C97.52,74.236 96.95,74.477 96.489,74.929C96.207,75.206 95.911,75.463 95.662,75.669L96.692,72.338L96.692,72.266L96.746,72.09C96.809,71.904 96.888,71.703 96.982,71.487C97.07,71.286 97.129,71.115 97.166,70.975L97.221,70.866C97.221,70.866 97.333,69.446 97.333,69.446L97.333,70.406C97.333,70.377 97.352,70.348 97.366,70.313L97.599,69.813C97.733,69.549 97.845,69.264 97.935,68.957C97.984,68.788 98.03,68.653 98.079,68.556L98.118,68.472C98.679,67.066 99.073,66.188 99.385,65.883L99.385,65.883C99.895,65.384 100.244,64.953 100.448,64.604C100.487,64.536 100.522,64.469 100.553,64.405C100.553,64.405 101.824,64.031 101.824,64.031L101.824,63.921C102.132,63.828 102.378,63.731 102.567,63.643C103.169,63.589 103.646,63.322 104,62.853C103.998,62.855 105.949,61.548 105.949,61.548L107.292,60.232L107.859,59.23C108.226,58.742 108.453,58.04 108.453,57.103C108.453,56.295 108.076,55.665 107.25,55.262L107.142,55.209L105.957,54.95L105.849,54.95C105.747,54.95 105.487,54.983 105.077,55.084L105.198,56.084ZM96.205,65.352L95.325,67.249C95.243,67.415 95.118,67.731 94.959,68.198L94.959,68.198C94.828,68.583 94.698,68.919 94.567,69.207C94.441,69.487 94.363,69.715 94.319,69.885L94.323,69.858L91.213,78.493C89.354,79.952 86.948,81.534 83.997,83.244C83.994,83.246 81.056,84.685 81.056,84.685C79.623,85.295 78.702,85.642 78.264,85.642L77.949,85.642L77.691,85.823C77.306,86.092 76.634,86.166 75.698,86.166C75.698,86.166 74.736,86.166 74.736,86.166C74.606,86.166 74.058,86.097 73.092,85.971C72.631,85.866 72.215,85.694 71.848,85.45C71.845,85.447 71.009,84.628 71.009,84.628C71.009,84.628 70.715,83.765 70.715,83.765L70.715,83.763C70.731,83.451 70.792,83.097 70.894,82.699L71.108,81.862C71.305,81.089 71.499,80.476 71.696,80.025C71.794,79.801 71.968,79.538 71.991,79.504L72.191,79.373L72.312,79.136C72.376,79.012 72.52,78.781 72.741,78.44L72.741,78.44C72.97,78.089 73.247,77.722 73.573,77.339C73.734,77.149 73.895,76.964 74.057,76.782L74.057,76.865L75.814,74.831C76.558,73.969 77.912,72.853 79.864,71.465C83.005,69.69 86.486,68.157 90.312,66.86C90.318,66.858 95.137,65.541 95.137,65.541L95.158,65.52C95.329,65.486 95.672,65.423 96.038,65.374L96.205,65.352ZM91.344,84.877L91.339,84.896L91.522,85.128L91.344,84.877ZM91.426,84.531L91.426,84.533L91.629,84.814L91.426,84.531Z" style="fill:rgb(247,245,239);fill-rule:nonzero;"/>
    <path d="M147.449,66.721L147.381,66.721L147.204,66.791C138.62,70.189 129.933,74.859 121.147,80.805C112.381,86.737 104.446,92.993 97.343,99.573C90.262,106.131 83.257,112.989 76.327,120.144C69.406,127.29 63.011,133.989 57.143,140.243C51.297,146.472 45.701,152.033 40.355,156.928C35.064,161.771 29.975,165.468 25.08,168.012C20.386,170.451 16.145,171.388 12.345,170.756C9.631,169.749 7.649,167.822 6.378,164.993C5.051,162.04 4.682,158.781 5.25,155.22L5.25,155.22C5.835,151.553 7.031,147.985 8.834,144.512C10.612,141.089 13.382,138.197 17.129,135.819C20.886,133.436 25.127,132.202 29.847,132.106L29.849,132.106C33.186,132.023 35.252,131.858 36.053,131.644C36.592,131.499 36.86,131.236 36.972,131.069L37.047,130.958L37.09,130.831C37.257,130.336 37.175,129.839 36.591,129.443C36.278,129.23 35.51,129.007 34.258,128.918L34.253,128.918C27.58,128.512 21.013,129.677 14.549,132.417C7.899,135.216 3.552,139.224 1.456,144.382C-0.624,149.503 -0.486,155.796 1.959,163.259L1.959,163.261C3.712,168.548 6.379,171.942 9.858,173.523C14.978,175.851 22.043,174.247 30.974,168.398C39.44,162.913 51.087,152.153 65.9,136.099C67.99,133.835 69.433,132.307 70.229,131.52L70.241,131.509C83.756,117.245 97.334,104.526 110.988,93.343L110.988,93.343C122.306,84.072 131.449,77.835 138.435,74.658C117.111,98.464 99.476,121.267 85.526,143.066L85.51,143.092L82.963,147.66L82.963,147.92C82.963,148.053 82.986,148.235 83.094,148.448C83.182,148.621 83.423,148.942 83.861,149.375L83.861,149.375C84.37,149.878 84.766,150.176 85.02,150.303L85.231,150.408L85.466,150.408C86.788,150.408 87.417,149.884 87.606,149.256C87.605,149.258 91.816,144.373 91.816,144.373L96.663,137.629C97.799,135.944 99.014,134.638 100.329,133.709L100.396,133.661L100.454,133.604C100.56,133.499 100.825,133.212 101.248,132.741C101.584,132.368 101.808,132.122 101.921,132.005C102.931,131.204 104.448,129.973 106.476,128.308C108.535,126.619 110.419,125.054 112.126,123.613L112.126,123.613C113.715,122.272 114.62,121.499 114.845,121.296C121.901,115.497 129.959,110.233 139.012,105.509L139.012,105.509C148.113,100.758 158.364,95.984 169.764,91.185C181.167,86.385 189.133,82.89 193.663,80.702C194.081,80.565 194.449,80.453 194.768,80.368C192.429,82.973 188.608,87.11 183.307,92.779L183.307,92.779C177.739,98.737 173.348,103.503 170.137,107.078C166.919,110.659 163.249,114.987 159.127,120.06C154.997,125.143 151.623,129.728 149.002,133.816C139.753,146.195 135.143,158.887 135.143,171.875C135.143,178.387 137.189,183.914 141.263,188.463L141.263,188.463C145.277,192.943 150.365,196.21 156.535,198.252C158.635,199.173 161.763,199.635 165.93,199.583C170.221,199.53 173.318,198.704 175.25,197.219L175.64,196.919L175.64,194.682L174.64,194.682C174.409,194.682 173.615,194.873 172.283,195.331L172.283,195.332C171.299,195.671 170.686,195.872 170.429,195.872L170.307,195.872L170.189,195.901C164.415,197.329 158.597,196.359 152.727,193.026C146.867,189.699 143.001,185.393 141.164,180.076C140.584,177.867 140.246,175.667 140.15,173.468C140.054,171.265 140.223,169.064 140.658,166.861C141.104,164.604 141.601,162.469 142.146,160.457C142.685,158.467 143.471,156.308 144.502,153.978C145.547,151.616 146.491,149.598 147.337,147.924C148.185,146.245 149.258,144.171 150.554,141.702C155.943,132.132 165.921,119.759 180.474,104.57C195.158,89.245 204.962,78.146 209.888,71.28L210.029,71.082L210.384,68.656L209.227,68.656C208.353,68.656 207.793,68.717 207.54,68.794C207.507,68.804 207.475,68.815 207.445,68.826C206.725,68.931 205.767,69.453 204.66,70.535C204.663,70.532 199.181,74.638 199.181,74.638C198.876,74.831 198.052,75.216 196.716,75.809L196.715,75.809C195.263,76.454 193.636,77.172 191.831,77.965L191.831,77.965C190.044,78.751 188.903,79.242 188.407,79.439L188.396,79.443C187.683,79.746 181.541,82.375 169.961,87.335C158.358,92.305 147.685,97.3 137.941,102.319C128.132,107.372 120.501,112.255 115.039,116.957L115.027,116.968C113.986,117.925 111.018,120.356 106.119,124.267C110.222,119.206 115.886,111.866 123.109,102.246L123.109,102.246C133.491,88.417 142.122,78.24 149.011,71.721L149.092,71.645L149.154,71.553C149.34,71.276 150.195,70.511 151.685,69.222L151.685,69.221C153.402,67.736 154.349,66.816 154.565,66.498L155.088,65.728L153.717,64.645C153.683,64.608 153.641,64.57 153.595,64.533C153.459,64.425 153.222,64.284 152.84,64.306C152.645,64.317 152.189,64.432 151.489,64.708L151.489,64.708C150.704,65.019 150.102,65.279 149.685,65.486L149.605,65.526L149.003,65.972L147.881,66.527C147.719,66.607 147.533,66.687 147.449,66.721Z" style="fill:rgb(247,245,239);fill-rule:nonzero;"/>
</svg>
