<svg width="385" height="305" viewBox="0 0 385 305" fill="none" xmlns="http://www.w3.org/2000/svg">
<path d="M189.335 123.87C191.598 123.636 192.712 123.62 194.959 122.775C196.098 122.346 199.669 119.913 199.949 119.971C201.191 120.228 199.609 123.838 199.241 124.456C199.071 124.743 195.381 128.936 194.991 129.309C192.266 131.925 190.018 129.665 189.771 129.936L189.749 131.208C188.729 131.544 187.514 130.708 186.619 130.89C184.975 131.222 182.024 135.034 181.706 135.11C181.066 135.26 179.738 133.6 177.307 134.6C175.475 135.354 174.971 137.773 174.297 138.213C173.308 138.86 171.845 137.683 170.7 138.828C170.047 139.482 169.779 141.455 168.984 142.198C168.498 142.651 167.688 142.573 167.404 142.916C167.082 143.306 167.744 144.288 167.498 145.12C167.195 146.147 166.048 146.275 165.778 146.938C165.358 147.969 165.603 149.202 165.29 150.319C164.927 151.614 163.532 152.533 163.334 153.565C163.099 154.787 162.985 158.571 162.934 160.103C162.894 161.329 163.681 162.408 163.238 163.866C162.927 164.89 160.966 165.841 160.406 167.106C159.656 168.802 159.903 171.256 159.197 173.264C156.924 179.73 153.535 187.651 149.654 193.204C149.244 193.791 148.477 193.904 148.138 194.394C147.344 195.544 146.41 197.871 146.416 199.278C145.446 199.156 144.883 198.469 144.036 199.267C143.02 200.223 141.083 206.403 140.372 206.88C138.688 208.013 138.932 206.01 137.752 206.212C138.226 209.756 134.762 211.722 132.308 213.586C131.792 214.412 132.89 215.386 132.341 216.596C132.193 216.924 129.754 219.279 129.285 219.634C123.117 224.32 110.385 225.272 103.067 228.527C102.052 228.978 101.316 230.102 100.925 230.245C100.355 230.453 99.242 229.818 98.177 230.122C97.78 230.235 94.975 232.726 93.935 233.266C93.34 233.575 92.623 233.416 92.13 233.628C91.086 234.075 90.765 234.863 89.203 235.078C86.037 235.516 87.088 231.784 86.189 231.096C85.655 230.556 82.484 232.125 82.356 232.309C82.062 232.735 82.265 233.882 81.606 234.809C81.454 235.023 78.166 238.385 77.929 238.499C77.17 238.866 76.147 238.627 75.301 238.905C74.279 239.242 73.718 240.372 72.402 240.775C68.452 241.985 62.259 241.182 58.782 243.193C58.052 243.616 54.214 246.935 53.643 247.589C52.613 248.771 51.993 251.065 51.047 252.362C49.737 254.158 44.464 258.426 42.379 258.913C40.94 259.25 39.902 258.132 40.552 256.606C41.708 253.893 46.064 252.368 48.205 249.087C48.925 247.986 50.179 245.597 49.96 244.341C48.328 245.16 46.097 245.051 44.543 245.488C42.653 246.019 43.516 246.063 40.936 246.243C35.876 246.595 37.072 248.775 34.126 250.18C33.45 250.502 29.815 251.708 28.941 251.942C28.339 252.103 27.536 251.625 27.187 251.889L26.769 253.449C24.955 253.639 26.013 250.272 26.774 249.552C23.819 249.142 23.478 251.705 22.25 253.054C21.856 253.487 21.129 253.681 20.856 254.032C19.633 255.602 18.163 258.964 16.691 259.618C14.633 260.532 13.584 259.452 15.421 258.341C15.644 258.206 16.18 258.311 16.309 258.159C16.556 257.871 16.239 256.849 16.393 256.301C18.335 249.355 21.386 248.789 26.737 245.394C27.664 244.806 28.277 243.62 29.214 243.103C31.111 242.055 34.765 241.535 36.96 241.311C39.91 241.011 45.215 241.634 47.76 241.297C49.332 241.089 50.339 239.673 51.46 239.34C52.461 239.044 53.823 239.357 54.526 238.938C55.013 238.648 59.796 230.544 60.504 229.313C62.926 225.11 62.22 224.03 66.196 220.713C68.878 218.476 73.797 214.01 76.656 212.523C78.217 211.71 81.138 211.219 82.819 210.451C84.056 209.886 85.666 208.081 87.451 207.701C88.455 207.488 90.639 208.393 91.578 207.072C91.81 206.745 93.83 199.905 93.861 199.385C93.927 198.26 93.291 197.022 93.534 195.807L89.199 195.809C90.111 193.323 87.06 192.001 86.685 190.737C86.341 189.581 86.408 181.942 86.583 180.411C86.663 179.715 87.838 174.308 87.991 174.019C88.403 173.243 89.455 173.089 89.567 172.591C89.668 172.143 89.051 171.366 89.253 170.553C89.43 169.841 90.553 169.347 90.938 168.731C91.794 167.365 94.12 163.045 94.33 161.678C94.484 160.681 93.673 159.81 94.374 159.186C94.898 158.72 95.92 158.726 96.532 158.289C96.946 157.993 97.107 157.302 97.467 157.056C98.032 156.666 100.929 154.659 101.333 155.075C101.758 157.756 99.834 157.188 98.343 158.352C99.609 160.958 97.788 160.66 97.226 161.582C96.856 162.191 97.071 163.115 96.788 163.744C95.914 165.684 94.211 167.604 95.026 169.831C96.267 171.649 101.89 167.147 103.096 166.138C104.466 164.991 106.251 162.806 107.611 161.563C114.012 155.713 117.509 148.697 122.048 141.327C124.609 137.169 127.283 136.818 130.795 134.47C132.333 133.442 134.428 131.276 135.861 130.433C139.872 128.071 144.986 127.307 148.475 123.759C148.91 123.318 148.824 122.557 149.733 121.765C152.256 119.567 157.172 119.747 154.835 123.837C152.003 128.793 153.915 127.364 153.255 131.78C152.561 136.412 148.812 144.823 146.681 149.05C144.428 153.522 141.516 158.494 138.869 162.91C137.363 165.423 136.791 168.223 133.816 169.993C132.393 170.84 126.026 172.415 128.461 174.551L135.911 172.087L140.326 166.967C146.583 164.28 148.324 158.332 153.632 154.691C154.168 154.323 155.099 154.371 155.42 154.107C155.977 153.648 155.676 151.99 156.39 151.389C156.82 151.029 157.88 151.003 158.552 150.518C159.286 149.988 159.584 148.938 160.268 148.332C161.012 147.672 162.519 147.229 162.928 146.658C163.424 145.966 163.962 141.175 164.343 139.8C164.91 137.755 166.061 135.028 167.939 133.902C168.678 133.459 170.234 133.252 170.599 132.875C171.055 132.405 170.987 131.112 171.375 130.399C171.539 130.098 174.717 126.117 175.029 125.819C176.031 124.865 182.382 120.824 182.392 119.753C181.656 119.046 180.582 118.011 179.56 117.823C178.83 117.69 174.206 117.366 173.48 117.403C172.394 117.46 172.11 118.83 171.26 119.036C170.43 119.238 166.27 118.332 164.898 118.371C163.765 118.403 162.742 119.851 161.573 118.471C159.851 116.437 163.763 116.88 164.332 116.796C168.05 116.249 170.917 114.978 174.86 114.728C181.277 114.322 189.87 114.798 195.386 111.068C196.637 110.221 196.991 109.126 196.699 107.633C196.251 105.343 192.034 105.859 190.226 104.561C189.47 104.018 189.334 102.991 188.603 102.717C187.166 102.177 183.369 101.942 182.156 103.042C181.425 103.705 181.638 105.215 180.518 105.182C178.957 105.136 179.2 102.757 178.436 101.612C177.322 99.94 176.519 100.695 174.912 100.372C172.039 99.794 165.664 99.225 162.772 100.131C162.052 100.356 160.895 101.624 159.827 101.955C157.624 102.638 155.945 102.498 153.811 104.175C152.842 104.935 152.557 105.937 151.846 106.544C149.93 108.178 147.126 108.034 146.854 111.734C148.209 112.223 149.509 110.951 150.512 110.921C151.265 110.899 152.04 111.428 153.1 111.301C158.975 110.596 167.566 105.64 173.549 104.839C174.412 104.723 177.029 104.613 177.644 105.005C178.869 107.782 174.326 106.703 172.736 107.059C171.609 107.31 170.943 108.453 169.828 108.919C167.724 109.801 164.444 108.747 164.612 111.294C161.224 110.607 157.374 113.081 154.019 113.482C151.581 113.774 147.609 112.819 145.877 113.106C145.577 113.156 140.448 115.101 140.187 115.256C138.57 116.214 139.415 117.409 138.652 118.488C138.208 119.117 136.319 119.702 135.352 120.824C132.865 123.71 130.526 127.906 126.596 129.188C125.468 130.237 119.456 137.537 118.852 137.716C117.822 138.021 116.111 136.077 116.512 135.571C118.546 136.581 118.892 134.491 120.189 133.397C121.394 132.379 122.511 133.07 122.188 130.832L123.445 130.802C123.625 130.397 123.065 129.507 122.793 129.512C122.547 129.517 119.966 132.129 118.979 132.62C117.076 133.567 116.332 132.86 115.189 133.156C114.269 133.395 113.588 134.584 112.761 135.073C110.164 136.609 106.816 135.098 103.939 136.003C103.819 133.286 106.126 133.743 107.71 133.06C112.574 130.96 118.904 129.93 123.165 127.275C124.299 126.568 124.949 125.254 126.166 124.642C127.286 124.079 129.547 124.342 129.51 122.572L127.347 122.568C127.287 122.085 127.337 121.712 127.564 121.272C128.658 119.16 137.331 114.4 139.711 112.613C144.122 109.301 147.661 103.208 152.938 100.701C155.295 99.581 155.79 98.92 157.574 97.968C162.613 95.281 164.35 96.54 169.077 96.042C169.667 95.98 170.274 95.213 170.85 95.325C171.34 95.421 171.718 96.357 172.295 96.505C172.86 96.651 174.118 96.1 175.175 96.166C177.428 96.306 178.266 97.546 179.233 97.801C179.91 97.981 181.64 97.236 183.024 97.452C184.461 97.678 185.399 99.264 187.167 98.736C187.967 96.112 184.587 93.977 182.547 92.736C180.34 91.394 178.415 91.093 176.349 90.265C174.971 89.712 166.984 84.279 165.341 83.068C162.23 80.775 154.341 73.308 152.042 70.361C151.112 69.169 151.297 67.85 150.524 66.678C149.897 65.728 148.724 65.353 147.961 64.473C147.101 63.478 144.305 59.205 143.629 57.97C140.951 53.072 137.557 41.474 133.833 38.294C130.331 35.304 119.046 33.066 114.584 33.756C113.397 33.94 112.327 34.902 111.057 35.002C110.371 35.056 109.715 34.534 109.019 34.675C108.519 34.775 108.028 35.505 107.414 35.692C106.144 36.08 103.162 36.47 102.202 36.978C101.319 37.446 101.559 38.598 101.048 38.972C100.398 39.452 99.384 38.934 98.724 39.128C98.141 39.3 94.271 41.499 93.752 41.966C91.953 43.583 91.632 46.147 90.514 47.396C89.81 48.181 88.408 48.366 87.87 49.086C87.354 49.779 87.335 51.043 86.844 51.959C85.127 55.159 79.484 57.737 79.238 61.732C79.18 62.676 79.898 63.827 79.469 64.493C79.238 64.852 78.476 65.013 78.132 65.374C76.214 67.392 76.134 66.433 74.899 67.324C73.176 68.566 74.086 70.853 74.016 72.064C73.95 73.23 72.758 75.513 72.726 77.284C72.612 83.837 73.965 96.555 77.307 102.17C77.961 103.269 81.562 106.632 81.763 107.684C81.909 108.45 80.67 109.114 81.153 109.991L86.36 116.089C86.41 119.248 87.561 118.717 88.981 119.969C90.298 121.13 92.248 123.709 93.714 124.339C97.093 125.793 100.787 125.009 104.371 125.172C104.555 127.728 99.918 127.853 98.115 128.232C95.793 128.72 96.389 129.628 93.395 128.125C87.778 125.305 85.355 119.904 81.641 115.605C80.944 114.799 79.811 114.495 79.035 113.445C78.225 112.35 78.182 110.984 77.276 110.011C76.336 110.718 76.529 111.743 76.726 112.717C77.408 116.107 80.837 120.205 81.299 123.321C81.689 125.956 80.774 124.463 82.458 127.373C82.745 127.869 82.568 128.74 82.774 128.989C83.001 129.264 84.544 129.115 85.092 129.949C85.332 130.314 84.979 131.032 85.202 131.538C85.909 133.138 87.018 134.508 87.439 136.264L89.864 136.417L90.067 139.036C92.49 138.168 92.458 139.316 93.991 140.54C94.461 140.916 95.295 141 95.596 141.309C96.032 141.754 95.856 142.822 96.418 142.959C96.911 143.081 103.588 143.283 104.375 143.199C105.432 143.086 110.376 141.841 111.31 141.425C112.63 140.837 113.176 139.735 114.336 139.038C115.016 140.583 111.975 142.683 110.856 143.138C110.323 143.354 104.907 145.124 104.576 145.138C103.167 145.196 102.504 144.337 101.514 144.239C100.052 144.095 99.037 144.913 96.974 144.479C96.158 144.307 88.462 140.689 88.104 140.342C87.694 139.946 87.742 139.06 87.34 138.721C84.14 136.022 82.892 131.151 80.418 128.747C79.99 128.331 79.029 128.415 78.588 127.759C78.178 127.151 78.238 125.877 77.832 125.049C76.499 122.334 74.027 119.083 73.348 115.662C72.973 113.768 73.38 112.012 73.134 110.242C72.699 107.114 71.473 103.642 71.007 100.665C69.313 89.851 66.155 78.58 67.511 67.304C67.733 65.456 69.175 62.67 69.59 60.714C69.87 59.384 69.445 57.972 69.877 56.667C70.229 55.6 71.407 55.45 71.456 55.113C71.56 54.399 70.665 53.299 71.039 52.22C71.289 51.503 72.519 51.416 72.656 50.812C72.742 50.432 72.272 49.737 72.338 49.164C73.68 37.452 76.728 37.071 82.448 28.499C83.268 27.271 83.297 25.873 83.804 25.086C84.181 24.501 85.528 24.023 86.167 23.116C87.211 21.633 88.096 18.936 89.273 17.12C89.917 16.125 94.04 9.95002 94.4 9.67802C95.527 8.82702 96.545 9.26802 97.55 8.92602C98.499 8.60202 99.334 7.24802 100.784 6.95902C102.89 6.53902 105.67 6.85302 107.949 6.32002C109.385 5.98502 112.799 3.86702 113.262 3.82002C115.341 3.61202 122.099 5.38002 123.842 6.67802C126.214 8.44402 127.104 11.876 128.65 13.573C130.884 16.026 131.953 17.207 133.787 20.139C135.266 22.503 136.375 23.453 137.688 25.336C139.131 27.406 139.84 31.172 141.023 32.839C142.077 34.326 142.285 34.571 143.286 36.21C145.068 39.127 146.884 41.316 146.246 45.235C146.168 45.717 145.485 45.956 145.328 46.312C144.658 47.831 147.013 51.062 147.74 52.559C148.356 53.825 149.31 57.021 150.51 58.024C150.983 58.418 151.986 58.409 152.282 58.853C152.63 59.375 152.382 60.36 152.706 61.03C152.896 61.424 154.966 62.794 155.702 63.668C158.038 66.444 161.225 72.95 163.435 74.572C168.492 78.283 174.445 81.951 180.098 84.783C181.921 85.697 183.393 87.299 185.433 87.029C184.497 85.377 185.318 83.361 184.99 81.626C184.738 80.297 183.216 79.921 182.922 78.927C182.482 77.446 183.056 75.207 182.734 73.481C181.262 65.583 174.701 60.712 172.546 54.197C172.243 53.279 172.551 52.277 172.102 51.173C171.569 49.863 169.952 49.478 169.613 48.894C168.901 47.671 169.075 44.502 167.251 42.708C166.544 42.014 165.744 42.193 165.088 41.718C164.448 41.255 164.109 39.926 163.314 39.566C162.147 39.038 161.305 39.956 160.573 39.754C160.063 39.613 159.415 38.054 158.52 37.449C156.803 36.289 154.843 36.549 153.027 35.987C152.792 35.914 149.487 33.511 149.249 33.282C148.558 32.617 147.754 30.051 147.179 29.503C146.383 28.743 144.399 29.089 143.433 27.397C143.009 26.655 143.097 25.687 142.708 25.087C140.338 21.427 137.475 17.893 135.074 14.085C134.754 13.577 132.396 10.882 134.064 11.191C135.154 11.394 135.807 13.959 136.69 15.069C138.673 17.563 140.65 19.979 142.589 22.626C145.181 26.166 145.779 26.62 149.224 29.408C150.104 30.121 151.81 32.338 152.497 32.636C153.641 33.134 155.804 33.212 157.336 33.866C160.932 35.401 170.191 41.665 171.762 45.012C172.071 45.669 171.898 46.515 172.238 47.137C178.868 59.257 185.278 64.822 188.137 79.347C188.617 81.784 190.4 83.114 188.467 85.94C189.055 86.84 190.183 86.436 191.054 86.831C194.867 88.561 195.253 96.688 199.319 98.504C200.015 98.815 200.977 98.609 201.483 98.941C202.008 99.285 202.017 101.081 203.047 101.275C204.238 101.208 205.563 99.995 205.202 98.72C205.116 98.417 202.284 93.993 201.844 93.38C201.414 92.78 200.434 92.523 200.24 91.95C199.852 90.798 200.096 88.456 199.53 86.593C198.944 84.668 197.15 82.461 196.806 80.647C195.876 75.745 195.8 72.532 192.992 67.992C191.325 65.296 188.162 62.209 186.711 59.537C185.213 56.78 184.511 55.544 182.891 52.954C180.151 48.568 178.257 42.444 175.487 38.688C173.926 36.57 171.947 34.694 170.253 32.653C169.151 31.325 167.388 27.336 166.162 26.343C165.535 25.835 164.534 25.786 163.786 25.251C159.917 22.481 156.639 19.013 153.597 15.501C152.957 14.761 152.077 12.556 151.618 12.279C151.426 12.164 147.728 10.92 147.408 10.855C146.194 10.608 144.613 11.023 143.668 10.695C142.948 10.445 142.869 9.25902 142.331 9.16402C141.66 9.04402 139.798 9.70202 138.416 9.43902C137.366 9.23902 136.548 7.96902 135.396 8.12702C135.034 8.17702 135.358 9.56102 134.281 9.02302C134.622 8.25102 134.787 7.79602 134.438 6.97502C134.289 6.62502 131.405 4.67102 134.038 5.14802C136.698 5.63102 139.786 7.88402 142.421 8.47102C146.486 9.37702 149.625 8.24302 153.559 11.206C155.993 13.038 158.876 16.349 161.386 18.549C168.093 24.426 171.729 27.718 176.846 35.164C181.259 41.588 184.901 48.291 188.809 54.84C189.529 56.046 191.085 57.83 191.613 58.971C191.999 59.806 191.755 60.881 192.037 61.366C192.165 61.586 193.209 61.888 193.686 62.531C195.901 65.521 196.962 68.93 198.426 72.094C199.1 73.547 201.726 77.883 201.816 79.088C201.886 79.984 200.779 80.484 201.209 81.844C201.512 82.804 205.444 89.579 206.238 90.721C210.733 97.179 213.178 89.955 218.258 88.864C223.209 87.8 220.886 91.617 222.903 93.561C223.909 94.531 224.845 94.195 225.74 95.051C221.687 99.629 221.86 94.336 218.915 93.621C217.031 93.165 211.695 96.203 212.308 98.731C214.663 98.121 215.434 101.084 215.302 102.878C215.252 103.552 214.492 103.998 214.476 104.588C214.46 105.221 216.166 107.06 216.209 108.538C216.241 109.63 215.131 110.162 215.346 111.296C219.017 113.414 220.564 109.47 224.013 108.483L220.113 108.267C219.923 103.884 226.043 104.449 228.652 102.501C229.195 102.096 229.488 100.841 230.552 100.285C231.859 99.602 235.488 99.518 236.362 98.293C236.704 97.813 236.611 96.886 236.929 96.26C237.305 95.522 238.045 94.939 238.231 94.095C238.498 92.89 237.958 91.198 238.712 90.242C239.101 89.749 240.279 89.572 240.94 89.002C243.7 86.624 245.857 83.465 248.946 81.405C250.542 79.052 246.621 78.013 245.266 78.57C245.053 78.658 242.113 81.273 241.791 81.619C239.247 84.347 238.125 89.672 233.987 89.631C233.73 89.4 235.66 85.904 235.983 85.347C238.175 81.574 242.172 74.209 245.67 71.629C249.915 68.499 251.02 67.267 254.77 63.825C255.528 63.128 258.45 61.562 258.895 61.03C259.972 59.743 261.082 57.003 262.797 55.381C264.487 53.782 265 53.803 266.921 51.704C267.896 50.638 269.346 50.194 270.153 49.301C270.664 48.735 270.853 47.544 271.444 47.126C272.326 46.503 273.538 46.902 273.817 46.681C273.996 46.54 273.979 44.724 274.747 43.925C277.314 41.251 284.36 40.368 287.847 41.203C288.622 41.388 289.1 42.378 290.049 42.303C290.989 42.227 292.012 40.982 292.828 40.767C293.83 40.503 294.923 40.772 296.003 40.474C298.811 39.697 300.403 37.956 302.696 36.331L302.494 38.674L303.16 39.321C303.868 39.195 304.528 38.863 305.274 38.907C311.76 39.291 319.938 36.863 326.569 35.91C328.432 35.642 329.79 36.758 330.807 36.654C331.558 36.578 332.432 35.661 333.499 35.489C338.425 34.693 342.357 35.913 346.57 37.969C348.42 38.873 348.397 40.856 349.294 41.313C349.87 41.607 350.724 41.475 351.442 41.765C352.126 42.042 352.329 43.314 353.633 42.633C355.898 41.451 353.557 38.598 353.291 37.318C352.738 34.647 352.747 31.681 351.783 28.858C351.082 26.806 350.344 24.718 348.243 23.73C347.573 23.415 345.016 22.608 344.286 22.485C338.066 21.44 335.186 22.255 329.132 22.889C327.07 23.105 324.925 23.205 322.854 23.326C322.488 22.43 324.941 21.495 325.439 21.362C334.36 18.997 351.455 17.319 355.127 28.549C356.645 33.193 358.494 42.872 358.413 47.791C358.403 48.371 357.928 50.591 357.559 50.875C356.026 52.059 355.499 49.256 354.904 48.706C353.76 47.648 351.453 47.381 350.354 46.754C349.124 46.052 348.768 44.14 347.722 43.318C346.612 42.446 342.144 39.914 340.865 39.851C339.43 39.779 336.855 40.221 335.313 40.131C334.459 40.079 333.4 39.356 332.584 39.401C331.712 39.451 331.235 40.425 330.388 40.543C327.085 41.004 322.595 40.263 319.191 40.686C317.888 40.848 314.636 42.302 313.455 42.309C312.812 42.313 312.425 41.571 311.8 41.541C311.163 41.511 310.418 42.274 309.609 42.377C305.591 42.888 301.129 43.208 297.159 43.815C294.963 44.151 295.292 45.605 294.381 45.833C293.47 46.062 293.111 44.92 292.076 45.163C290.813 45.461 284.826 49.649 283.261 50.705C281.005 52.225 277.055 55.834 274.719 56.9C273.969 57.242 272.944 56.958 272.335 57.55C271.855 58.013 271.594 59.71 271.029 60.578C269.439 63.022 266.605 65.038 265.003 67.122C263.785 68.707 262.398 72.632 261.495 73.582C260.719 74.397 259.625 74.248 259.125 74.68C258.674 75.07 258.655 76.252 258.073 77.095C256.914 78.774 253.668 80.955 251.863 81.935C250.843 84.892 247.635 87.095 245.375 89.318C243.445 94.717 250.105 91.135 252.769 91.505C253.632 91.625 255.645 92.916 256.843 93.007C258.487 93.132 260.753 92.447 262.816 92.664C278.419 94.31 288.245 91.444 302.837 86.743C303.883 86.405 305.519 85.09 306.271 84.959C309.572 84.383 311.897 83.351 315.366 82.366C322.207 80.425 329.156 77.726 336.132 76.769C341.106 76.088 346.505 75.008 351.672 75.339C358.197 75.758 363.865 77.874 370.3 78.816C371.052 78.926 371.574 79.83 372.398 79.626C374.058 79.212 373.113 77.75 373.183 76.901C373.641 71.371 371.151 70.266 370.204 65.481C370.097 64.942 369.597 61.106 369.634 60.877C369.674 60.639 372.971 58.935 369.671 57.349C370.101 56.823 370.404 56.517 371.141 56.737C373.135 57.332 372.236 65.288 372.771 66.815C373.001 67.476 373.94 67.53 374.211 67.975C374.569 68.561 374.449 69.645 374.781 70.456C376.066 73.611 378.933 77.12 379.203 80.752C379.251 81.395 378.747 82.101 378.848 82.829C378.99 83.849 380.188 84.412 380.419 85.176C380.631 85.879 380.333 87.07 380.561 87.412C380.745 87.688 381.873 87.602 382.151 87.994C382.686 88.746 384.105 96.929 384.014 98.087C383.776 101.106 381.742 99.389 380.788 99.643C380.1 99.826 379.902 101.224 379.21 101.56C378.491 101.908 377.635 101.503 376.998 102.05C374.957 103.8 377.232 105.299 377.356 106.366C377.812 110.315 374.51 118.85 370.955 121.038C370.016 121.615 368.377 121.685 367.89 122.308C367.266 123.104 367.789 124.151 366.657 125.409C363.307 129.135 356.125 131.095 351.315 130.221C348.795 129.763 348.288 127.76 344.74 127.734C340.73 127.704 341.389 128.312 337.284 126.56C335.465 125.785 334.385 125.556 332.834 124.941C331.981 124.603 328.832 121.922 328.185 121.769C327.527 121.613 326.716 122.209 325.778 122.069C324.709 121.909 323.4 120.495 322.18 120.42C318.991 120.225 315.713 122.324 311.82 121.681C310.67 121.491 310.139 120.6 309.179 120.421C307.999 120.201 306.589 120.532 305.371 120.42C304.439 119.31 304.295 118.807 305.733 118.241C309.09 116.921 311.269 119.683 314.389 120.405C316.039 118.838 314.512 118.229 312.874 118.029C312.241 117.586 312.393 112.801 313.526 112.696L317.866 116.084C319.899 116.101 319.236 111.624 321.546 111.736C321.61 112.344 321.831 112.976 322.209 113.458C323.496 115.099 329.306 116.709 331.288 116.497C331.956 116.425 332.406 115.73 333.073 115.63C334.345 115.44 336.999 116.27 339.073 116.034C341.393 115.769 344.808 114.16 346.509 113.913C348.213 113.665 349.782 114.583 351.648 114.311C352.911 114.127 355.722 112.393 357.421 111.842C358.301 111.557 359.298 111.814 360.448 111.401C361.511 111.019 368.471 107.377 369.208 106.724C369.88 106.129 374.09 100.718 371.192 101.336C370.181 101.552 369.233 105.423 367.933 104.587C366.336 103.56 369.899 101.477 368.903 98.858C367.885 96.179 366.393 96.178 365.093 94.859C364.513 94.272 364.536 93.337 364.02 92.897C362.47 91.573 358.872 91.25 356.887 91.375C350.843 91.755 345.651 93.649 340.096 95.388C337.703 96.138 334.436 96.167 332.283 97.111C329.378 98.385 330.446 98.342 326.633 99.264C325.353 99.574 321.664 100.92 320.133 101.434C318.779 101.887 315.233 103.091 315.469 104.589C315.486 104.696 317.647 105.562 315.632 106.056C315.011 106.209 314.209 105.633 313.526 105.659C311.617 105.731 310.451 106.923 307.99 106.005C306.687 105.519 306.865 103.497 305.08 103.937L305.098 106.334C303.088 106.556 301.25 106.819 299.88 108.491L302.252 111.328C303.747 111.118 305.572 115.34 304.642 116.066C303.767 115.946 302.436 114.906 301.846 114.307C298.593 111.014 296.976 107.359 292.656 103.987C291.815 103.33 290.826 103.977 291.206 102.202L292.508 102.2C291.694 98.302 287.999 98.647 285.455 97.767C284.594 97.469 284.23 96.375 283.536 96.201C282.738 96.001 276.476 97.711 277.77 98.732C279.663 98.099 280.677 99.612 281.99 99.932C284.586 100.563 287.362 100.492 289.915 101.542L290.132 102.641C289.071 104.666 284.772 101.981 283.061 101.855C281.953 101.774 281.155 102.261 280.174 102.217C277.244 102.086 275.514 100.259 272.419 100.631C271.816 100.703 271.272 101.212 270.593 101.314C268.739 101.594 267.103 101.115 265.199 102.199C265.296 101.329 264.917 99.862 265.399 99.153C265.799 98.565 268.686 97.973 269.096 97.005C264.486 97.203 260.417 97.068 255.872 96.531C253.625 96.265 250.896 95.446 249.239 95.363C248.147 95.309 247.391 95.678 246.359 95.722C244.904 95.783 244.998 94.63 243.285 96.115C241.849 97.36 241.11 99.173 243.408 99.933C247.449 101.269 249.321 99.547 252.388 100.057C253.797 100.291 256.256 102.36 257.238 102.517C258.038 102.643 258.879 102.07 260.432 102.409C263.547 103.09 263.072 104.136 264.444 105.555C265.352 106.495 273.531 110.012 275.044 110.342C276.552 110.671 278.997 110.345 280.466 110.884C280.836 111.019 282.311 112.892 283.741 113.348C289.161 115.076 291.847 114.602 296.811 118.915C297.528 119.538 297.749 120.677 298.265 121.151C298.725 121.573 299.493 121.419 299.911 121.994C300.107 122.264 300.849 124.639 300.741 124.734C298.375 125.046 297.261 122.356 295.511 121.083C294.598 120.418 288.709 117.246 287.846 117.028C286.603 116.714 285.839 117.328 284.975 117.245C284.75 117.223 280.08 115.405 280.806 117.147C282.927 118.223 283.118 121.109 284.253 122.369C285.661 123.932 288.769 126.156 290.103 128.224C291.123 129.805 291.5 131.947 292.754 133.805C294 135.651 296.106 137.256 297.458 139.072C299.966 142.442 302.634 147.616 305.558 150.476C309.556 154.388 307.875 152.831 310.379 157.357C312.406 161.021 316.549 165.334 319.394 168.714C323.701 173.832 326.719 179.004 330.904 184.077C331.714 185.06 332.996 185.355 333.591 186.59C334.186 187.825 333.894 189.138 334.35 190.165C335.122 191.904 335.536 192.012 336.422 194.594C337.655 198.184 339.266 201.871 340.411 205.341C341.636 209.058 341.627 213.07 340.521 216.724C340.436 217.004 337.792 221.395 337.578 221.581C337.098 221.998 335.128 222.801 334.551 222.491C333.357 220.48 329.481 219.347 330.654 216.614L328.25 216.199C327.885 211.37 326.636 213.511 324.57 212.961C322.264 212.347 321.666 210.259 320.808 209.771C318.776 208.616 315.474 208.67 313.868 208.058C313.061 207.75 312.58 206.688 312.006 206.435C311.253 206.105 307.634 205.253 307.021 205.77C306.856 206.02 306.351 208.63 306.388 209.014C306.472 209.894 307.472 210.451 307.601 211.282C307.669 211.714 308.073 215.74 308.064 215.98C307.967 218.526 307.563 217.46 308.084 220.757C308.301 222.121 308.816 228.582 309.191 229.184C309.455 229.607 309.804 229.688 310.278 229.612C310.12 225.302 315.938 226.388 318.621 226.072C319.656 225.949 321.172 224.256 322.416 225.935C322.568 226.653 321.882 226.872 321.312 226.99C320.238 227.213 317.466 227.703 316.68 227.951C315.9 228.197 311.233 229.887 310.97 230.086C309.16 231.458 309.351 234.079 308.956 235.873C308.811 236.533 308.278 236.994 308.138 237.654C307.495 240.674 309.108 239.829 309.657 240.873C309.837 241.216 309.743 243.773 309.637 244.356C309.302 246.19 307.498 247.572 309.877 248.487C309.787 249.139 309.185 249.684 309.074 250.291C308.839 251.587 309.251 257.269 309.449 258.829C309.981 263.023 314.186 267.699 316.522 271.26C318.348 274.045 320.335 276.423 321.438 279.78C323.406 285.766 325.381 289.841 327.721 295.612C327.996 296.29 327.523 297.03 327.931 297.957C328.009 298.134 329.491 300.542 329.595 300.661C330.951 302.213 335.312 301.737 337.287 301.625C339.798 303.458 337.401 302.83 336.717 303.119C335.664 303.564 336.069 304.251 333.927 304.161C325.255 303.797 322.701 299.807 316.156 295.895C314.107 294.67 313.497 294.317 311.416 294.06C309.802 293.86 308.717 291.526 307.697 290.483C303.189 285.875 301.043 282.424 300.314 275.762C298.998 263.719 298.761 254.062 301.007 242.266C301.517 239.584 303.55 236.089 303.735 233.229C303.853 231.399 303.186 229.936 303.337 228.097C303.464 226.538 304.567 224.801 304.567 223.328C304.567 221.946 303.553 220.328 303.381 218.958C303.171 217.296 303.598 215.386 303.32 213.819C303.114 212.659 301.746 210.911 301.386 209.685C299.74 204.068 301.239 203.318 296.395 198.652C294.875 197.189 293.207 195.976 291.65 194.302C290.537 193.105 289.977 191.251 287.74 191.477C287.849 193.537 287.561 195.694 287.776 197.744C288.522 204.879 291.359 212.587 292.446 219.924C292.756 222.024 292.462 224.839 292.68 226.385C292.765 226.987 293.887 227.375 294.15 228.188C295.046 230.966 294.657 233.121 291.644 233.946C293.187 230.256 290.222 226.291 289.942 222.836C289.348 215.507 288.665 213.136 286.741 206.125C285.552 201.797 286.221 200.192 285.963 196.436C285.917 195.775 285.219 195.364 285.143 194.71C285.012 193.563 286.148 191.353 285.821 190.154C283.817 187.154 280.929 184.884 278.88 181.914C276.986 179.167 275.574 175.959 273.797 173.127C272.364 170.841 267.967 165.455 267.166 163.288C266.843 162.414 267.095 161.356 266.711 160.71C266.491 160.34 265.643 160.156 265.254 159.565C263.911 157.523 263.997 154.831 260.864 154.641C261.294 156.334 262.568 158.101 262.855 159.82C263.071 161.11 262.658 161.75 262.717 162.602C262.764 163.275 264.383 165.624 262.308 166.295C259.639 167.159 260.342 164.227 260.184 163.263C259.05 156.312 257.1 153.093 253.272 147.266C250.526 143.086 247.117 138.47 243.958 134.486C240.813 130.519 237.754 126.58 234.886 122.319L232.686 121.705C232.415 122.98 233.31 123.869 233.524 124.981C234.941 132.346 236.922 140.061 237.863 147.512C238.086 149.283 237.592 151.456 237.905 153.104C238.094 154.097 239.088 154.682 239.189 155.758C239.359 157.574 239.189 158.351 239.518 160.594C240.008 163.944 239.443 167.835 240.254 170.692C240.856 172.812 242.672 175.419 243.24 177.238C243.996 179.664 244.89 183.608 246.376 185.806C247.549 187.54 251.569 189.226 249.807 191.034C247.564 189.756 246.385 187.661 244.137 186.734C245.358 184.418 243.094 183.648 243.054 183.396C242.949 182.745 243.795 181.511 243.519 180.643C240.273 182.024 239.834 176.53 238.893 174.683C238.562 174.032 237.863 174.06 237.551 173.41C235.422 168.968 235.599 160.597 234.826 155.75C233.034 144.524 229.882 133.171 227.958 121.878C227.344 118.273 227.103 114.495 226.614 110.866C223.448 110.412 223.854 113.056 222.508 114.348C221.031 115.767 218.919 115.63 217.528 116.302C216.577 116.761 215.795 118.707 213.903 119.612C212.373 120.342 211.454 120.187 210.178 120.655C209.05 121.069 206.798 123.195 205.853 122.52C205.51 121.141 202.687 118.106 201.457 117.605C198.324 116.331 190.201 120.623 189.335 123.87C188.65 123.94 188.032 123.774 187.612 124.532L187.605 125.382C189.463 127.136 189.051 124.933 189.335 123.87ZM77.929 55.829C81.452 55.611 80.378 51.331 82.467 49.753C82.956 49.383 83.967 49.302 84.227 48.913C84.634 48.304 84.308 46.927 84.745 45.962C85.155 45.055 86.562 44.642 87.232 43.682C87.897 42.729 88.086 40.798 88.945 40.194C89.985 39.462 92.249 39.893 93.695 38.876C95.151 37.853 97.088 35.213 98.855 34.5C101.067 33.608 104.181 32.33 106.426 31.668C107.372 31.389 108.432 31.718 109.472 31.246C110.475 30.79 110.641 29.346 111.602 29.044C112.246 28.841 115.992 29.05 116.949 29.174C119.729 29.532 121.989 30.728 124.935 30.287L134.582 34.057C139.254 32.572 134.77 27.996 133.524 25.601C132.284 23.219 132.579 22.521 130.554 19.903C128.299 16.989 124.734 11.691 122.16 9.22602C119.453 6.63402 115.987 6.83602 112.512 7.84902C108.307 9.07302 109.287 11.495 107.213 12.953C106.546 13.422 105.682 13.251 105.028 13.802C102.908 15.59 102.446 20.206 100.914 22.257C100.315 23.058 99.218 23.331 98.72 23.964C98.17 24.663 98.147 25.901 97.663 26.374C97.072 26.953 95.871 26.656 95.463 27.208C94.939 27.916 94.897 31.86 94.18 32.859C93.662 33.582 91.986 33.377 91.159 34.173C90.408 34.894 90.159 36.864 89.346 37.653C86.992 38.223 86.812 36.026 86.299 35.885C84.066 35.272 84.831 37.583 84.192 38.91C83.878 39.562 82.915 39.974 82.514 40.699C81.537 42.467 81.353 44.153 80.745 45.864C79.583 49.135 78.22 52.271 77.929 55.829ZM99.169 12.925C100.608 13.179 101.367 12.43 102.187 11.41L101.119 10.335L99.169 12.925ZM86.702 26.02C85.95 27.254 87.476 28.737 87.462 29.622C87.454 30.108 84.454 33.223 87.662 32.876C90.437 32.575 89.849 28.29 90.403 26.481C91.119 24.147 93.112 22.829 94.147 21.124C94.893 19.896 95.401 18.069 96.205 16.68C96.685 15.848 99.422 13.697 97.889 12.69C96.046 11.48 96.113 13.42 95.471 14.205C92.314 18.067 90.161 21.121 87.635 25.469C87.462 25.767 86.812 25.839 86.702 26.02ZM264.332 62.33C265.084 62.526 265.199 62.018 265.633 61.685C267.708 60.095 269.633 57.362 271.694 55.61C275.451 52.416 279.899 50.398 283.876 47.42C285.238 46.4 290.861 43.945 286.461 42.593C285.186 42.201 277.559 43.628 276.894 44.34C276.376 44.894 276.524 45.865 276.052 46.532C275.24 47.682 268.51 54.895 267.593 55.44C266.621 56.017 265.698 55.285 265.399 55.804L264.332 62.33ZM262.594 61.901H261.731V63.631H262.594V61.901ZM261.726 67.101C260.97 66.905 260.684 67.704 260.106 67.861C259.381 68.06 258.361 67.812 257.809 68.163C257.227 68.533 257.332 69.83 256.996 70.303C256.728 70.68 256.072 70.48 255.824 70.705C254.143 72.227 253.177 73.548 252.264 75.639L253.059 76.876C254.535 76.884 254.91 75.083 255.918 74.51C256.722 74.053 257.839 74.191 258.478 73.6C259.632 72.533 260.094 69.328 260.649 68.385C260.943 67.887 262.097 68.305 261.726 67.101ZM378.88 97.097C379.099 96.737 380.114 96.837 380.295 95.318C380.32 95.113 379.645 91.554 379.543 91.248C379.259 90.405 378.207 90.088 377.991 89.333C377.698 88.31 378.154 87.194 377.687 86.171C377.437 85.621 376.373 85.22 376.27 84.602C376.08 83.472 377.37 82.237 375.107 80.94C373.684 80.124 373.299 80.946 372.05 80.965C366.71 81.045 362.144 79.372 357.241 79.072C344.459 78.292 331.853 81.182 319.797 84.629C312.892 86.602 306.343 89.163 299.537 91.243C298.003 91.713 291.988 92.423 291.725 93.805C291.375 95.646 293.493 96.385 294.112 97.128C295.006 98.201 296.702 101.464 298.324 101.345C299.09 101.289 299.747 100.485 300.456 100.555C304.206 100.921 303.603 100.371 307.223 99.361C311.64 98.128 316.447 97.554 320.764 95.563C323.622 94.244 326.294 91.543 328.962 90.324C331.673 89.084 335.598 87.976 338.468 86.826C341.633 85.558 349.131 84.172 352.54 84.402C354.228 84.516 355.926 86.294 357.777 86.572C363.168 87.382 364.816 85.495 370.077 89.443C372.675 91.393 373.646 93.631 375.213 96.012C376.115 97.382 376.923 98.889 378.13 100.03C379.342 100.511 378.457 97.796 378.88 97.097ZM187.825 87.902C186.295 88.187 188.09 90.189 188.685 90.492C189.957 89.968 188.752 87.73 187.825 87.902ZM191.501 90.502H190.639V92.232H191.501V90.502ZM190.201 97.436H188.905V99.166L189.546 99.163C190.226 98.708 190.302 98.235 190.201 97.436ZM240.92 99.17H240.057V100.466H240.92V99.17ZM232.25 105.233C232.406 102.611 229.656 103.151 231.608 105.231L232.25 105.233ZM247.421 106.532C247.975 106.105 248.025 103.908 246.345 104.372C244.761 104.81 246.729 107.066 247.421 106.532ZM206.674 106.099L206.461 104.804L205.813 105.458L205.811 106.099H206.674ZM244.552 108.133C244.002 106.902 244.379 105.446 242.222 105.673L244.398 109.565C246.646 109.472 244.595 108.231 244.552 108.133ZM263.895 106.537H262.599V107.399H263.895V106.537ZM252.191 107.404C250.263 107.603 247.853 106.661 246.566 108.485L250.643 108.659C251.443 108.412 252.488 108.567 252.191 107.404ZM244.091 119.404C241.669 116.545 241.103 114.989 237.888 111.952C236.225 110.38 235.881 108.741 232.699 108.702C231.904 110.575 231.799 113.176 232.577 115.094C233.02 116.184 234.915 117.42 235.711 118.462C238.978 122.742 241.827 126.362 245.477 130.368C246.079 131.029 247.17 131.36 247.859 132.316C248.548 133.27 248.819 135.389 248.976 135.585C249.496 136.232 250.58 136.211 250.801 136.533C252.071 138.385 253.227 142.773 255.028 144.654C255.622 145.274 256.515 145.314 256.964 145.77C257.431 146.243 257.447 147.98 258.879 147.688C259.46 147.57 259.962 145.366 259.97 144.83C259.987 143.718 259.24 143.147 259.13 142.25C258.988 141.11 259.683 140.132 259.388 139.034C258.71 136.513 257.299 137.254 256.604 136.809C256.308 136.619 254.345 131.522 253.65 130.43C252.49 128.606 249.37 124.14 248.058 122.586C247.137 121.494 244.919 120.38 244.091 119.404ZM374.438 108.704C373.836 108.058 370.106 111.377 370.541 112.6C371.363 113.36 375.199 109.521 374.438 108.704ZM204.508 109.137L203.211 109.133V111.3C204.537 111.419 204.624 110.208 204.508 109.137ZM257.828 111.307L255.663 111.304V112.166C256.489 112.23 257.565 112.286 257.828 111.307ZM265.203 114.336C264.996 110.747 262.155 113.462 260.552 113.803C256.395 114.686 250.473 112.058 246.292 111.778C245.791 111.745 244.9 111.508 245.261 112.378C245.488 112.928 247.815 114.845 248.481 115.662C250.271 117.854 251.501 119.479 253.518 121.46C255.293 123.204 257.725 125.69 259.138 127.664C260.869 130.079 262.602 134.356 264.335 136.215C265.272 137.221 266.333 137.365 266.819 137.85C267.459 138.488 268.27 140.681 269.307 141.646C270.567 142.819 272.214 142.261 271.727 145.08C274.535 144.76 274.622 147.588 276.225 149.031C279.621 152.088 282.689 155.073 285.793 158.534C286.279 159.075 288.913 162.681 289.033 163.097C289.301 164.022 288.65 163.749 288.117 163.58C284.944 162.57 280.723 155.433 277.289 153.168C274.38 151.249 271.946 149.298 269.315 146.838C267.313 144.967 265.607 142.679 263.254 141.206C261.26 141.612 264.684 148.179 265.01 149.409C265.34 150.66 265.006 152.069 265.483 153.242C265.835 154.109 267.483 154.054 268.186 155.335C268.692 156.259 268.473 157.125 268.753 157.801C269.051 158.519 269.916 158.519 270.309 159.279C271.773 162.107 271.657 162.615 273.619 165.494C275.079 167.637 277.606 172.108 279.256 173.737C279.951 174.424 281.253 174.654 281.493 174.995C281.781 175.403 281.198 176.135 281.442 176.728C281.577 177.056 285.625 181.857 285.987 182.176C286.834 182.923 287.979 182.696 288.394 183.236C289.049 184.089 289.291 186.81 290.526 188.037C291.537 189.041 292.325 188.626 292.842 188.971C293.052 189.111 293.678 191.024 294.236 191.699C295.235 192.908 302.998 198.947 304.221 199.484C305.098 199.868 306.143 199.625 307.134 200.038C310.261 201.339 313.26 205.08 316.721 203.546C317.769 201.897 313.301 195.803 312.034 194.39C311.644 193.955 310.916 194.054 310.533 193.625C308.441 191.287 307.137 188.631 304.301 187.248C303.936 187.07 303.355 187.191 302.93 187.126C302.768 186.518 303.142 185.519 302.846 185.036C302.657 184.73 299.87 183.726 299.443 183.395C299.026 183.072 298.776 182.404 298.359 181.938C298.051 181.593 297.301 181.464 297.061 181.074C296.031 179.402 297.574 178.758 299.131 178.967C300.221 180.463 302.694 181.525 303.759 182.611C304.229 183.09 304.203 183.981 304.649 184.321C305.262 184.787 306.76 184.592 307.651 185.22C309.429 186.472 312.259 192.231 313.934 193.24C314.819 193.774 316.108 193.467 316.58 194.062C317.047 194.65 316.908 196.525 317.292 197.254C317.762 198.145 318.677 197.746 318.966 198.277C319.734 199.692 320.774 203.595 321.789 204.89C322.139 205.337 324.783 206.821 325.353 206.959C332.237 208.623 330.965 197.109 330.004 193.209C327.296 182.212 318.737 174.406 312.002 166.115C309.63 163.195 307.933 159.528 305.812 156.937C303.873 154.569 303.752 154.507 301.992 151.874C300.213 149.214 297.248 146.636 295.875 143.687C295.481 142.84 295.721 141.787 295.441 141.303C295.329 141.109 294.237 140.703 293.786 140.147C289.246 134.556 285.916 126.234 281.236 121.054C280.491 120.23 274.401 115.684 273.534 115.208C272.339 114.551 270.544 115.026 269.402 114.683C267.901 114.233 268.118 112.643 265.202 114.336M213.175 116.933C213.707 114.463 211.837 113.963 210.267 112.65C208.827 112.273 206.016 115.496 207.337 115.638L213.175 116.933ZM321.55 115.2L320.253 115.205C320.186 116.065 320.146 116.841 320.908 117.365L321.549 117.367L321.55 115.2ZM373.135 115.638C372.37 115.519 371.792 115.71 371.095 115.978C367.602 117.322 362.631 120.263 359.886 122.54C359.258 123.061 358.853 124.222 358.383 124.505C356.783 125.465 352.397 124.415 352.331 127.546C352.511 128.229 355.914 128.216 356.244 128C356.554 127.796 356.53 126.921 356.94 126.866C357.554 126.782 358.16 127.516 359.235 127.128C359.562 127.01 364.872 123.682 365.111 123.43C365.975 122.518 365.561 120.604 366.657 119.775C367.556 119.094 370.027 118.415 371.367 117.549C372.072 117.094 373.262 116.676 373.135 115.638ZM357.529 117.373C354.554 116.516 351.957 119.091 349.486 119.511C347.203 119.9 343.059 120.047 340.743 120.081C340.223 120.088 339.349 120.797 339.333 121.054C339.28 121.947 341.055 121.294 341.477 121.478C341.833 121.633 342.115 122.328 342.67 122.502C344.305 123.014 345.248 121.708 346.574 121.368C349.746 120.556 353.879 120.672 356.522 118.744C357.057 118.354 357.731 118.297 357.529 117.373ZM331.953 120.402L331.532 118.877L330.223 118.673L330.225 119.314L331.953 120.402ZM338.027 120.406C336.2 120.691 334.374 118.427 332.831 120.187C333.751 121.571 335.679 121.143 337.375 121.262C338.248 121.322 338.05 121.199 338.027 120.406ZM351.894 124.74L351.252 124.742L350.605 125.387L351.032 126.468H351.894V124.74ZM149.018 127.773C147.386 127.327 147.335 128.898 146.725 129.373C146.2 129.783 145.483 129.863 144.888 130.354C144.416 130.744 144.195 131.679 143.816 131.916C143.215 132.291 142.063 131.294 140.791 131.883C140.095 132.205 137.943 135.423 137.316 135.79C136.639 136.186 135.679 135.852 135.042 136.116C131.572 137.552 126.962 140.096 124.42 142.61C122.593 144.418 123.525 147.598 123.253 148.14C122.954 148.735 121.621 149.136 121.065 149.879C120.308 150.893 119.772 152.892 118.862 154.177C116.914 156.927 115.051 159.487 113.197 162.381C112.587 163.333 111.887 165.563 111.297 166.117C110.567 166.802 109.073 166.714 108.109 167.262C107.379 167.677 102.049 171.309 101.859 171.64C101.606 172.085 101.835 172.756 101.763 173.267C99.979 173.143 98.308 173.542 97.809 175.409L95.702 175.011C95.124 175.554 98.379 179.773 100.033 178.712C100.346 178.512 101.877 175.542 103.067 176.744C104.118 177.806 101.531 180.148 101.091 181.048C99.776 183.74 99.018 187.413 99.143 190.381C99.198 191.687 99.945 193.421 101.093 191.866C102.281 190.256 103.273 189.881 104.54 187.963C107.627 183.293 109.628 181.442 114.368 178.286C118.706 175.398 122.742 172.894 126.865 169.979C128.835 168.587 129.455 166.893 130.402 166.147C131.217 165.506 134.467 164.823 134.93 164.173C135.268 163.697 135.22 162.607 135.634 161.843C136.362 160.503 138.934 158.586 139.586 157.127C140.256 155.629 140.465 151.419 141.695 150.547C143.888 148.992 143.597 147.359 144.585 144.79C145.407 142.655 146.865 140.03 147.601 137.837C148.101 136.34 149.745 132.115 148.958 130.867C148.723 130.492 147.209 130.747 147.288 129.944C148.423 129.793 149.244 129.014 149.018 127.773ZM259.99 150.74C260.095 149.941 260.018 149.466 259.337 149.01L258.696 149.009L258.697 149.65L259.99 150.74ZM159.854 152.475H158.558C158.457 153.275 158.532 153.747 159.213 154.202L159.854 154.205V152.475ZM158.659 157.775C158.971 157.268 161.21 156.943 160.079 155.067C159.339 153.937 156.929 156.747 156.389 157.457C155.223 158.991 154.057 160.662 152.915 162.217C152.375 162.953 152.341 164.107 151.957 164.53C151.528 165 150.347 164.52 150.098 165.006C149.714 165.756 150.053 166.739 149.496 167.468C149.095 167.993 147.996 168.055 147.493 168.5C146.126 169.71 145.935 170.81 143.966 171.908C143.199 172.336 142.112 172.294 141.652 172.628C141.215 172.946 141.151 173.964 140.581 174.591C137.948 177.486 133.761 177.521 130.687 179.434C129.179 180.374 126.648 182.455 124.771 183.054C122.836 183.67 121.334 182.707 119.773 184.991C119.155 185.896 119.201 187.078 118.24 187.792C117.245 188.532 116.133 188.234 115.234 188.687C113.63 189.496 111.679 191.454 109.864 192.419C106.511 194.2 102.336 195.356 98.711 196.467C96.641 203.232 94.671 210.023 94.295 217.159C93.975 220.175 90.987 219.824 90.932 222.677C92.779 223.143 93.971 220.487 94.73 220.084C96.378 219.209 100.072 219.81 99.615 216.628C102.707 217.539 104.702 214.78 106.864 214.122C108.468 213.635 111.202 214.124 111.934 213.955C112.417 213.842 112.437 212.975 112.701 212.815C113.153 212.539 114.086 212.82 114.75 212.48C117.537 211.052 121.461 208.997 124.633 208.475C127.376 208.025 127.427 209.688 128.427 209.698C129.73 209.712 130.205 207.483 130.936 206.764C131.743 205.969 133.896 204.709 134.885 203.566C137.392 200.668 139.932 196.275 142.278 193.622C143.212 192.565 147.074 189.8 147.492 188.867C148.069 187.58 147.416 186.106 147.799 184.84C148.119 183.782 150.679 183.028 151.095 181.635C151.32 180.882 151.061 179.978 151.289 179.229C152.751 174.426 155.349 169.873 156.956 164.959C157.361 163.721 158.446 158.12 158.659 157.775ZM96.029 179.438C94.404 178.188 93.453 176.229 91.522 175.042C90.962 174.941 90.297 175.683 90.152 176.182C89.927 176.96 89.127 184.008 89.197 184.721C89.26 185.349 90.687 189.724 91.039 190.284C92.016 191.834 93.579 192.076 94.289 190.284C94.715 189.207 95.945 185.336 96.084 184.277C96.193 183.441 96.312 179.914 96.029 179.437M90.926 209.679C88.043 209.457 85.35 213.203 83.666 213.894C81.082 214.954 78.94 213.604 75.952 216.589C75.276 217.265 75.345 218.218 74.448 218.986C73.618 219.696 72.188 219.778 71.457 220.328C70.691 220.904 70.407 222.247 69.655 222.893C68.967 223.485 68.138 223.087 67.505 223.706C66.728 224.466 66.674 225.536 66.029 226.172C65.468 226.726 64.529 226.699 64.029 227.319C63.252 228.285 63.293 230.087 62.861 231.234C62.616 231.884 61.682 232.339 61.565 232.918C61.371 233.881 62.372 234.373 61.025 235.906C60.573 236.421 58.528 237.183 59.286 238.274C59.916 239.18 61.876 237.949 62.559 237.865C66.765 237.35 69.543 237.095 73.584 235.88C74.141 235.712 74.719 236.119 75.3 235.89C75.98 235.624 79.45 232.453 79.846 231.749C82.573 226.908 85.885 223.9 88.422 219.087C89.881 216.318 92.072 212.757 90.926 209.679ZM85.731 229.61C86.392 230.31 90.046 227.379 89.192 225.712C88.754 226.592 84.883 228.713 85.731 229.61ZM305.728 247.823L305.08 248.891L305.728 249.539L306.376 248.47L305.728 247.823ZM305.081 251.28C304.242 253.36 304.728 255.218 303.775 257.122C307.355 259.169 305.917 256.325 305.901 254.529C305.889 253.144 307.089 251.299 305.081 251.28ZM308.698 268.897C307.345 267.315 307.642 266.453 308.086 264.548C304.969 263.391 306.55 262.232 305.723 260.387C305.056 258.899 303.9 259.407 303.743 261.022C303.483 263.705 304.239 271.178 304.663 274.014C305.046 276.574 306.593 283.914 307.65 286.196C307.778 286.472 310.526 290.314 310.728 290.486C310.924 290.654 315.117 292.718 315.368 292.782C316.325 293.022 317.951 292.647 318.547 293.07C319.298 293.603 318.477 296.407 320.669 297.027C321.231 297.185 321.852 296.75 322.403 296.997C323.167 297.337 323.609 298.947 325.016 298.516C325.298 295.262 322.29 292.579 321.126 289.616C320.486 289.087 318.738 292.226 317.267 289.581C316.869 288.864 315.619 283.888 315.577 282.999C315.482 281.022 315.928 278.587 315.163 276.536C314.11 273.716 310.441 270.933 308.698 268.896" fill="#547092"/>
<path d="M287.747 253.884L288.607 254.099C287.602 259.559 291.307 263.884 292.267 269.075C292.677 269.697 293.899 269.207 294.29 269.743C295.662 271.623 295.077 275.913 299.014 275.771C297.183 278.076 298.711 279.246 299.023 281.386C299.095 281.88 299.429 284.916 298.365 284.646C298.018 284.476 295.578 279.758 295.302 279.039C294.612 277.247 295.358 277.869 294.07 275.959C292.683 273.903 292.155 271.591 290.949 269.957C290.151 268.877 288.431 268.037 288.055 267.217C287.398 265.783 287.827 263.27 287.065 261.704C286.632 260.812 284.805 259.828 284.467 259.071C284.177 258.421 284.85 257.705 284.649 257.426C281.362 252.846 280.614 245.79 277.439 240.993C269.524 229.038 268.901 218.69 265.072 205.251C264.478 203.165 262.952 196.427 261.189 195.701C260.162 195.278 259.392 195.554 258.572 195.361C258.18 195.267 258.218 194.403 257.434 194.255C256.46 194.072 255.256 194.841 254.182 194.119L253.989 192.402C255.149 190.542 262.932 194.403 264.083 195.84C264.952 196.926 267.717 204.308 268.207 206.018C270.315 213.383 270.257 222.219 273.247 229.148C273.647 230.075 274.645 230.984 275.121 232.042C277.456 237.243 279.435 242.746 281.898 247.787C282.349 248.711 284.142 249.956 284.53 251.274C284.8 252.191 284.334 252.984 284.509 253.47C284.95 254.698 287.66 256.285 287.747 253.884ZM26.0069 231.214C25.8839 231.132 25.9069 230.725 25.8679 230.526L25.2619 230.481C23.8219 233.521 20.1819 232.628 17.8559 234.795C17.1469 235.456 17.5419 236.595 16.1609 235.785L15.7079 236.11C15.7379 236.975 15.3199 239.323 14.9519 239.897C14.7619 240.194 13.9189 240.307 13.5639 240.883C11.6459 243.987 6.74891 250.058 6.49291 253.306C6.42791 254.122 7.37391 254.597 7.09791 255.626C6.80791 256.708 4.80791 257.814 4.80991 258.866L5.96391 261.246L3.36691 259.949C3.23891 260.659 3.42291 262.473 3.10091 262.996C2.31791 264.267 0.521912 263.741 0.549912 265.58C-0.694088 264.7 0.488912 261.973 1.00991 260.844C2.11991 258.436 1.91691 259.479 2.59491 256.361C4.10791 249.397 4.48291 249.305 8.56491 244.128C10.7689 241.333 10.2389 240.454 11.3899 238.285C11.4869 238.101 13.3649 235.735 13.8339 235.095C15.4769 232.855 19.8749 228.902 22.6779 228.76C23.4119 228.723 24.1019 229.2 24.8229 229.185C28.6589 229.105 32.6109 229.823 36.0909 229.647C37.6079 229.57 39.2659 227.71 40.6369 229.396C40.6269 230.276 36.4309 231.644 35.5429 231.694C34.4989 231.754 33.9129 231.039 33.5019 231.069C33.1819 231.091 32.7469 231.715 32.1819 231.772C31.7849 231.812 26.2649 231.385 26.0069 231.214ZM132.442 6.964C132.854 7.373 133.367 9.927 132.33 10.318C131.909 8.798 127.729 7.603 127.533 7.323C127.053 6.637 127.593 5.201 127.293 4.746C127.108 4.466 125.346 4.368 124.753 4.024C124.114 3.654 124.078 2.9 123.762 2.648C122.985 2.028 121.132 2.318 121.278 0.795C124.395 1.549 125.348 2.351 128.065 0L131.26 0.996C132.376 2.708 129.143 3.372 128.84 3.803C127.16 6.196 131.82 6.346 132.442 6.963M110.436 145.974C110.796 148.686 108.3 149.114 106.526 150.944C105.214 152.3 102.871 157.279 101.537 153.769C103.362 152.324 105.147 150.677 106.773 149.024C107.843 147.935 108.467 145.734 110.436 145.974ZM332.387 292.015C331.093 292.13 327.698 291.339 328.053 289.645C328.441 287.792 333.113 291.366 332.387 292.015ZM290.343 241.312C289.895 240.077 289.959 238.806 290.99 237.855C292.95 239.16 293.16 241.207 290.343 241.312ZM160.289 117.372C159.792 118.962 158.523 121.178 156.827 119.312C157.449 117.913 158.727 116.996 160.289 117.372ZM318.948 24.63C319.393 26.44 317.632 26.3 316.349 26.357L318.948 24.63ZM45.4099 226.145C45.9829 226.752 43.6849 228.945 42.8219 227.229L45.4099 226.145ZM321.55 23.763C322.237 24.451 320.94 25.746 320.253 25.059C319.566 24.372 320.863 23.076 321.55 23.763ZM294.677 233.948H295.539V235.244H294.677V233.948ZM291.211 245.214L291.421 243.482L292.071 244.557L291.211 245.214ZM308.544 31.564L308.542 32.205L307.684 32.862L307.682 31.564H308.544Z" fill="#547092"/>
</svg>
