<svg width="34" height="34" viewBox="0 0 34 34" fill="none" xmlns="http://www.w3.org/2000/svg">
<path d="M17.511 23.4205C17.502 23.3483 17.493 23.2761 17.4632 23.1344C17.4033 23.0005 17.3652 22.9353 17.3271 22.8701C17.3392 22.8064 17.3504 22.7436 17.4219 22.6905C17.7509 23.1639 18.0205 23.6267 18.2891 24.0903C18.3397 24.2131 18.3912 24.3369 18.408 24.5359C18.0372 25.9489 17.7003 27.2856 17.3625 28.6232C17.3854 28.6316 17.4074 28.641 17.4303 28.6513C17.5839 28.4258 17.7375 28.2002 17.9255 27.9495C17.9905 27.8809 18.0228 27.8356 18.0986 27.7543C18.3912 27.4746 18.6377 27.2318 18.9141 26.972C18.9566 26.9387 18.971 26.9206 19.0253 26.8774C19.1337 26.7819 19.2023 26.7132 19.271 26.6446C19.3359 26.5778 19.4009 26.511 19.5487 26.4259C19.8363 26.273 20.042 26.1374 20.2467 26.001C20.2911 25.9695 20.3354 25.938 20.4627 25.892C20.9342 25.6251 21.3248 25.373 21.7153 25.1189C21.9586 25.0066 22.1962 24.8723 22.4527 24.7966C22.5163 24.7772 22.6395 24.9437 22.7288 25.1034C22.6759 25.2798 22.6305 25.3788 22.5859 25.4768C22.5563 25.5231 22.5267 25.5693 22.4504 25.688C22.2066 26.1808 22.049 26.6262 21.8032 27.014C21.491 27.5088 21.197 28.0869 20.7369 28.4013C19.7342 29.0848 18.6464 29.6561 17.5593 30.2083C17.0775 30.454 16.9248 30.7672 17.0063 31.3055C17.0093 31.7489 17.0218 32.1496 17.0202 32.5921C16.9933 33.0598 16.9805 33.4876 16.9678 33.9154C16.7492 33.6968 16.5306 33.4782 16.2892 33.1791C16.3057 32.2459 16.3458 31.3942 16.3843 30.5588C15.8466 30.3623 15.1664 30.2382 14.6353 29.8876C13.8257 29.3525 13.1184 28.6597 12.3681 28.0339C12.463 27.9464 12.5569 27.8598 12.73 27.7477C12.9527 27.6689 13.0972 27.6166 13.2408 27.5634C13.2408 27.5634 13.2508 27.5589 13.2911 27.5812C13.4279 27.5699 13.5251 27.5354 13.6224 27.5009C13.712 27.5201 13.8007 27.5402 13.9626 27.5775C15.2561 27.6361 16.0057 28.4453 16.809 29.4959C16.9997 28.6521 17.1504 27.9923 17.3003 27.3333C17.3003 27.3333 17.3319 27.2999 17.376 27.2484C17.5185 26.6705 17.6169 26.1442 17.717 25.6179C17.717 25.6179 17.7025 25.6196 17.724 25.5815C17.7199 25.1152 17.6934 24.6898 17.6678 24.2634C17.6678 24.2634 17.6659 24.2506 17.6864 24.2098C17.6431 23.9192 17.5766 23.6703 17.511 23.4205ZM18.1596 29.1026C18.3796 29.0228 18.5967 28.9312 18.8213 28.867C20.465 28.402 21.3489 27.1916 21.9922 25.6757C20.2447 26.4973 18.6626 27.4319 17.7316 29.3443C17.9347 29.2279 18.0054 29.1867 18.1596 29.1026ZM15.8656 28.9949C15.1862 28.1764 14.3256 27.9874 13.2976 28.1799C14.4993 29.3743 15.5323 29.9018 16.4751 29.7596C16.2827 29.5112 16.1143 29.2941 15.8656 28.9949Z" fill="#FDFCF9"/>
<path d="M26.8776 15.275C27.1736 14.9679 27.4953 14.6812 27.7508 14.3427C27.8326 14.2332 27.7995 13.9546 27.7159 13.8132C27.1825 12.9133 27.229 12.7377 28.1768 12.299C28.2276 12.2758 28.2617 12.2178 28.4503 12.0291C27.6859 11.9616 27.0577 11.8299 26.4432 11.867C25.2405 11.9408 24.1287 12.3184 23.2935 13.22C23.1104 13.4179 22.9929 13.7715 23.0104 14.0473C23.1609 16.4165 22.0363 18.0632 19.8272 18.638C19.7271 18.6643 19.6223 18.6713 19.3882 18.7062C19.5257 18.5116 19.5865 18.3972 19.6722 18.3078C19.7597 18.2185 19.8647 18.1356 19.9772 18.0803C20.8449 17.6608 21.4778 17.0316 21.7156 16.0725C21.9141 15.2727 22.1902 14.4727 22.2298 13.6584C22.2672 12.8906 21.7563 12.302 21.0677 11.9023C20.9483 11.8335 20.8934 11.6486 20.8099 11.5163C20.9019 11.5 20.9948 11.4827 21.1755 11.4902C21.6742 11.8769 22.0724 12.2534 22.5021 12.5911C22.6374 12.6975 22.9514 12.7966 23.0155 12.7326C23.7845 11.9635 24.7775 11.6457 25.7778 11.3334C25.8126 11.3521 25.8492 11.3543 25.9503 11.3399C26.4481 11.3051 26.881 11.2668 27.3131 11.2277C27.4081 11.2397 27.5031 11.2516 27.6704 11.2799C28.2816 11.5228 28.8709 11.6824 29.104 12.3199C29.0193 12.4157 28.9336 12.5106 28.7625 12.6319C28.5937 12.7195 28.5179 12.8008 28.4252 12.8345C27.9117 13.0215 27.9083 13.2943 28.2862 13.6505C28.3618 13.7207 28.4175 13.8125 28.4832 13.8944C28.476 14.0768 28.4679 14.2601 28.4105 14.5186C28.0474 14.8596 27.7346 15.1245 27.4968 15.3272C27.6325 15.6471 27.7579 15.9404 27.8383 16.2032C27.489 15.8737 27.1837 15.5739 26.8776 15.275Z" fill="#FDFCF9"/>
<path d="M12.0233 18.1982C12.1556 18.2873 12.287 18.3754 12.5014 18.4543C12.8796 17.9876 13.0796 18.6804 13.3479 18.5227C13.3479 18.5227 13.3426 18.5354 13.3694 18.5658C13.5043 18.6394 13.6124 18.6825 13.7214 18.7247C13.7214 18.7247 13.7525 18.7324 13.7896 18.7857C13.9135 18.8554 13.9995 18.8728 14.0873 18.8901C14.1798 18.9267 14.2733 18.9642 14.4049 19.0706C14.3483 19.2342 14.2544 19.3281 14.1596 19.4228C14.1596 19.4228 14.1777 19.4103 14.1436 19.3761C13.9798 19.3297 13.8483 19.3173 13.7167 19.3049C13.2284 19.2897 12.7411 19.2753 12.2747 19.2602C12.3285 19.3466 12.4232 19.4972 12.6423 19.8463C10.5956 19.2404 8.89712 19.3581 7.71265 21.2933C8.61497 21.1196 9.39962 20.6946 10.2764 21.1995C9.44586 21.4305 8.61622 21.6607 7.75598 21.9288C7.59344 22.0009 7.46151 22.0351 7.26611 22.022C7.13122 21.7806 7.06163 21.5883 6.99112 21.395C7.00289 21.3021 7.01468 21.2091 7.03938 21.0461C7.0907 20.8121 7.12725 20.6483 7.16381 20.4845C7.16381 20.4845 7.19888 20.4365 7.21413 20.412C7.73257 19.6667 8.44141 19.2345 9.3361 18.9449C9.4651 18.8934 9.52221 18.8584 9.62321 18.833C10.0499 18.8084 10.4337 18.777 10.8431 18.7494C10.8687 18.7534 10.9103 18.7228 10.9497 18.7332C11.2177 18.7954 11.4454 18.848 11.7784 18.9246C11.4292 18.4455 11.1532 18.0648 10.8859 17.6422C10.6033 16.8089 10.3126 16.0199 10.0214 15.2305C10.0214 15.2305 10.0148 15.2275 10.0533 15.1902C10.1858 15.0573 10.2788 14.9626 10.3745 14.8669C10.3763 14.8668 10.3795 14.8665 10.4129 14.8999C10.4925 14.9758 10.5387 15.0184 10.5849 15.061C10.6005 15.25 10.617 15.4379 10.6158 15.7003C10.6316 15.8678 10.6653 15.9611 10.6983 16.0554C10.6983 16.0554 10.6827 16.0543 10.6731 16.0934C10.9295 16.6062 11.1974 17.0817 11.4653 17.5554C11.4653 17.5554 11.4904 17.6022 11.4873 17.6551C11.5421 17.7442 11.6018 17.7786 11.6615 17.813C11.7075 17.8518 11.7536 17.8906 11.804 17.997C11.8809 18.1082 11.9516 18.1537 12.0233 18.1982Z" fill="#FDFCF9"/>
<path d="M5.86544 13.1326C7.08713 12.7674 8.10919 13.0132 8.90811 14.1858C8.69927 14.1701 8.47559 14.1992 8.28291 14.1329C6.42937 13.4872 5.67365 13.7605 4.67897 15.501C5.37827 15.6063 6.19977 14.951 6.78222 15.8909C6.15655 16.0488 5.57339 16.1968 4.95513 16.3729C4.91922 16.402 4.91566 16.4111 4.8864 16.4053C4.84144 16.4488 4.82392 16.4999 4.80821 16.5491C4.80821 16.5491 4.7717 16.5903 4.71624 16.6341C4.58947 16.7402 4.51986 16.8006 4.44926 16.8618C4.2141 16.7909 3.97895 16.7201 3.72658 16.6013C3.72109 16.1842 3.73282 15.815 3.74454 15.4457C3.74454 15.4457 3.77284 15.4055 3.82027 15.3951C3.89542 15.333 3.92215 15.2822 3.94898 15.2313C3.94898 15.2313 3.98022 15.2012 4.00416 15.1529C4.02141 15.0601 4.01463 15.0154 4.00705 14.9717C4.07684 14.9115 4.14663 14.8513 4.25929 14.722C4.29464 14.6075 4.28713 14.5621 4.28052 14.5158C4.28052 14.5158 4.31382 14.4732 4.37127 14.4115C4.85385 13.9878 5.27905 13.6259 5.70426 13.2639C5.74758 13.2278 5.79008 13.1927 5.86544 13.1326Z" fill="#FDFCF9"/>
<path d="M26.8399 15.2499C27.1837 15.5739 27.489 15.8737 27.8301 16.2077C27.8661 16.2436 27.8478 16.238 27.8308 16.2679C27.8216 16.3435 27.8293 16.3874 27.8413 16.4824C27.48 16.7422 27.1305 16.9921 26.7436 17.1503C26.4256 17.2801 26.0609 17.3018 25.7168 17.3711C25.6236 17.3646 25.5323 17.3581 25.4083 17.3659C24.9699 17.1495 24.7471 17.3871 24.6813 17.7221C24.4074 19.1434 23.2974 19.4362 22.1201 19.6581C21.9744 19.6857 21.8286 19.7097 21.6679 19.7819C21.652 19.8273 21.6574 19.8255 21.6574 19.8255C21.4562 19.6911 21.2549 19.5584 20.9664 19.3656C21.6802 19.1369 22.2996 18.9584 22.903 18.7368C23.4156 18.5488 23.8178 18.2831 23.8645 17.6203C23.9159 16.8845 24.506 16.6929 25.1495 16.6323C25.7958 16.5726 26.4428 16.503 27.0899 16.4369C27.1046 16.3632 27.1184 16.2885 27.1322 16.2138C26.8934 16.0635 26.6447 15.9267 26.4202 15.7582C26.2638 15.6397 26.1389 15.4787 25.9996 15.3376C26.2062 15.2842 26.4099 15.2243 26.6166 15.1819C26.673 15.1697 26.74 15.2096 26.8399 15.2499Z" fill="#FDFCF9"/>
<path d="M11.4512 22.4411C11.9787 21.8583 12.4609 21.223 13.0531 20.7138C13.3487 20.4588 13.8448 20.4349 14.3181 20.419C13.4612 21.2501 12.3523 21.8112 11.9997 23.1359C13.2485 22.1767 13.407 22.1492 13.796 22.7765C14.0703 22.7402 14.3418 22.7048 14.6725 22.6619C14.3011 23.5867 13.6214 23.7628 13.0488 23.1973C12.6163 23.5412 12.1857 23.8851 11.684 24.2337C11.5735 24.2225 11.5352 24.2239 11.497 24.2417C11.4502 24.2093 11.4042 24.1778 11.2947 24.0881C11.2323 23.7207 11.2326 23.4104 11.2599 23.0659C11.3414 22.8332 11.3968 22.6376 11.4512 22.4411Z" fill="#FDFCF9"/>
<path d="M9.21181 12.4584C9.16601 12.6798 9.11941 12.9022 9.03379 13.3149C8.73795 12.9541 8.53178 12.7028 8.2736 12.3832C8.2355 12.2169 8.24941 12.1189 8.29141 11.9858C8.38767 11.6975 8.45484 11.4451 8.52202 11.1927C8.90651 10.3117 9.44775 10.0748 10.6602 10.2853C11.08 10.5949 11.473 10.876 11.8205 11.2054C11.9161 11.2974 11.8764 11.5322 11.8982 11.702C11.7486 11.6716 11.5841 11.6714 11.4504 11.6063C11.11 11.4392 10.7994 11.1935 10.4464 11.0716C9.98412 10.9108 9.50184 10.8619 9.30409 11.5794C9.25508 11.9258 9.23304 12.1926 9.21181 12.4584Z" fill="#FDFCF9"/>
<path d="M22.8219 8.89933C21.9096 9.33933 21.5563 10.1631 21.3249 11.1268C20.7317 10.9452 21.0995 10.5313 21.1273 10.2287C21.1516 9.95161 21.3569 9.6947 21.4731 9.38299C21.4967 9.29292 21.5309 9.24767 21.6301 9.13743C21.7871 8.97123 21.88 8.87095 21.9729 8.76885C22.0163 8.73282 22.0587 8.69587 22.1719 8.61223C22.3704 8.49302 22.4983 8.42049 22.6262 8.34796C22.6262 8.34796 22.6243 8.33881 22.6527 8.35645C22.7203 8.36083 22.7603 8.34849 22.7994 8.33522C22.8401 8.30007 22.8817 8.26585 22.9952 8.21507C23.3505 8.08112 23.6311 7.96279 23.9477 7.87495C24.1353 8.17988 24.287 8.45432 24.4386 8.72875C24.5097 9.06163 24.5817 9.39543 24.6469 9.77113C24.5924 10.2204 24.5439 10.6268 24.4569 11.103C24.3222 10.9665 24.2251 10.7593 24.127 10.5511C24.1379 10.4554 24.1478 10.3588 24.1587 10.1837C24.0704 9.52496 23.9838 8.94376 23.8866 8.29947C23.4758 8.53137 23.1493 8.71581 22.8219 8.89933Z" fill="#FDFCF9"/>
<path d="M12.6686 10.0712C12.176 9.78989 12.4565 9.3211 12.3613 8.89737C12.3519 8.85365 12.3856 8.81689 12.4195 8.7678C12.4511 8.66942 12.4471 8.62202 12.4439 8.57372C12.4787 8.53988 12.5143 8.50514 12.5854 8.41193C12.6143 8.30905 12.6059 8.26635 12.5974 8.22356C12.7493 8.07209 12.9002 7.92152 13.0949 7.73894C13.9908 7.45771 14.7857 7.51242 15.3512 8.31083C15.5249 8.55494 15.5489 8.90383 15.5508 9.23797C14.9454 8.90883 14.8399 7.98544 13.9044 8.19637C13.8617 8.21689 13.8642 8.22294 13.8157 8.2142C12.8475 8.47541 12.8542 9.24938 12.7919 10.0049C12.7298 10.0277 12.698 10.0482 12.6686 10.0712Z" fill="#FDFCF9"/>
<path d="M17.1021 20.9535C18.0284 20.3814 18.6134 20.3904 19.1483 21.0084C18.4247 21.2543 17.7201 21.4939 16.9767 21.7615C16.6545 21.748 16.3703 21.7057 16.0707 21.5939C16.0488 21.4276 16.0441 21.3308 16.0404 21.2332C16.0765 21.2007 16.1145 21.1683 16.2189 21.1211C16.4986 21.0885 16.7092 21.0679 16.9207 21.0501C16.9697 21.0251 17.0187 21.0001 17.1021 20.9535Z" fill="#FDFCF9"/>
<path d="M7.41125 18.2423C7.09972 17.7719 7.07199 17.356 7.52484 16.9946C7.74187 16.8217 7.93038 16.4415 8.237 16.786C8.33784 16.8977 8.18165 17.238 8.11682 17.6317C8.13137 17.6445 8.29438 17.7696 8.43202 17.918C8.54632 18.0432 8.63098 18.1946 8.72737 18.3343C8.541 18.3971 8.35344 18.5183 8.16992 18.5063C7.97078 18.4931 7.77625 18.3563 7.53421 18.2822C7.48815 18.2921 7.43751 18.2577 7.41125 18.2423Z" fill="#FDFCF9"/>
<path d="M7.4705 12.0098C7.26818 11.9717 7.05495 11.9625 6.86574 11.8888C6.66601 11.8119 6.48862 11.6742 6.14868 11.4715C6.21338 11.9731 6.25889 12.3201 6.32577 12.8293C6.06999 12.6475 5.96601 12.5742 5.82405 12.4738C5.76828 12.3783 5.75039 12.3099 5.73085 12.164C5.58461 11.6223 5.62665 11.213 6.05651 10.9189C6.3577 11.0468 6.65526 11.1855 6.96221 11.2975C7.15696 11.3694 7.36588 11.4014 7.5972 11.4974C7.61905 11.6546 7.61258 11.7655 7.60677 11.8788C7.60753 11.8814 7.60749 11.8868 7.57799 11.8753C7.52805 11.8723 7.49416 11.8763 7.49145 11.8881C7.48283 11.9264 7.48664 11.9663 7.4816 12.0064C7.47714 12.0074 7.4705 12.0098 7.4705 12.0098Z" fill="#FDFCF9"/>
<path d="M16.6757 9.25436C16.8659 9.46808 17.0227 9.66457 17.2241 9.90031C17.2448 10.042 17.2195 10.1429 17.195 10.2449C17.269 10.2502 17.3438 10.2547 17.4178 10.26C17.3977 10.0901 17.3767 9.9211 17.3557 9.75026C17.6914 9.73744 18.0252 9.72461 18.3569 9.77653C18.2828 9.92263 18.2125 10.0022 18.1412 10.0826C17.7878 10.2239 17.4363 10.3652 17.0729 10.5109C16.8887 10.269 16.6365 9.97884 16.4399 9.65584C16.3706 9.54141 16.4406 9.34426 16.4894 9.16011C16.5697 9.16819 16.606 9.2027 16.6757 9.25436Z" fill="#FDFCF9"/>
<path d="M10.6077 15.0188C10.5387 15.0184 10.4925 14.9758 10.4416 14.869C10.4575 14.7133 10.4761 14.6236 10.4957 14.533C10.4561 14.535 10.3834 14.5328 10.3823 14.5389C10.374 14.6479 10.3748 14.757 10.3729 14.867C10.2788 14.9626 10.1858 15.0573 10.0565 15.1897C9.93215 14.2602 10.2941 13.965 11.8389 13.7676C11.8899 12.5945 12.343 11.5943 13.2988 10.9036C13.6759 10.6308 14.1541 10.4789 14.6088 10.3432C14.7339 10.3059 14.9402 10.5248 15.1174 10.6785C15.1242 10.7322 15.1246 10.7309 15.1246 10.7309C15.0668 11.0504 15.0099 11.3691 14.9532 11.6879C14.8828 11.6753 14.8141 11.6625 14.7443 11.6504C14.716 11.4271 14.6877 11.2039 14.6484 10.8883C13.7563 11.1824 13.1353 11.7078 12.8375 12.5384C12.5646 13.2981 12.0805 14.0976 13.117 14.8615C13.0289 14.9071 12.9409 14.9509 12.8538 14.9955C12.5201 14.846 12.1899 14.6891 11.8538 14.5462C11.1979 14.2676 10.9396 14.3614 10.6077 15.0188Z" fill="#FDFCF9"/>
<path d="M18.189 10.1086C18.2124 10.0021 18.2828 9.92259 18.391 9.80514C20.1174 10.6686 21.059 12.1951 20.9063 14.2829C20.8004 15.7224 20.2041 16.861 18.9729 17.596C18.9242 17.5635 18.8746 17.532 18.825 17.4986C18.9615 17.303 19.0908 17.1 19.2374 16.9109C19.9277 16.0232 20.4585 15.07 20.4485 13.8884C20.4334 12.2212 19.7508 10.9393 18.189 10.1086Z" fill="#FDFCF9"/>
<path d="M14.1186 16.9681C13.9999 16.8728 13.9206 16.8008 13.8773 16.7611C13.7768 16.9151 13.6799 17.0637 13.5829 17.2123C13.4364 17.0748 13.1795 16.9461 13.1633 16.7963C13.1206 16.3907 13.1672 15.9752 13.2204 15.5697C13.2237 15.5388 13.6547 15.4841 13.7139 15.565C14.0102 15.9697 14.2495 16.4147 14.5078 16.8463C14.3906 16.8953 14.2744 16.9433 14.1186 16.9681Z" fill="#FDFCF9"/>
<path d="M17.7068 19.2384C17.7528 19.102 17.7856 19.012 17.8689 18.7867C17.4533 18.992 17.1686 19.1623 16.8614 19.2722C16.7342 19.3182 16.5581 19.2324 16.4036 19.2079C16.4506 19.0798 16.4577 18.8919 16.5483 18.8345C16.9199 18.6013 17.2966 18.3353 17.7124 18.233C17.9063 18.1849 18.3131 18.4329 18.4038 18.6391C18.4964 18.8509 18.3929 19.2293 18.2418 19.4357C18.1015 19.6295 17.7532 19.8137 17.7068 19.2384Z" fill="#FDFCF9"/>
<path d="M13.3138 18.4831C13.0796 18.6804 12.8796 17.9876 12.5479 18.4466C11.8069 17.4167 11.6883 15.8899 12.3506 15.1224C12.5587 16.3108 12.2147 17.5863 13.3138 18.4831Z" fill="#FDFCF9"/>
<path d="M17.322 17.2178C17.1954 17.3278 17.0556 17.3938 16.9158 17.458C16.7787 17.0915 16.5183 16.7174 16.5363 16.3618C16.5557 15.9587 16.8216 15.571 16.9935 15.1833C16.9998 15.1697 17.1426 15.2187 17.0841 15.2034C17.1647 15.9105 17.2372 16.5427 17.322 17.2178Z" fill="#FDFCF9"/>
<path d="M9.50526 16.5341C9.50079 16.6109 9.46776 16.6447 9.4045 16.7006C8.72029 16.3612 8.06532 16.0005 7.325 15.5924C7.41265 15.5302 7.5846 15.4078 7.82609 15.2792C7.9629 15.2824 8.03096 15.2909 8.09903 15.2994C8.74593 15.4787 9.19151 15.8918 9.50526 16.5341Z" fill="#FDFCF9"/>
<path d="M10.1642 12.6905C10.5049 12.7388 10.8777 12.7486 10.8476 13.2367C10.4884 13.374 10.1487 13.5145 9.79976 13.6313C9.6363 13.6863 9.45656 13.6943 9.28479 13.723C9.2976 13.5318 9.28982 13.3344 9.33275 13.1517C9.3545 13.0615 9.47232 12.997 9.60381 12.8703C9.6612 12.8194 9.7009 12.7869 9.73669 12.7974C9.81503 12.7945 9.85858 12.7803 9.9357 12.7563C10.0338 12.728 10.0986 12.7098 10.1642 12.6905Z" fill="#FDFCF9"/>
<path d="M21.6492 19.8264C21.7207 20.0224 21.9048 20.3474 21.8515 20.3915C21.5911 20.6095 21.285 20.8233 20.9591 20.8965C20.7552 20.9417 20.4903 20.7381 20.1394 20.6021C20.7293 20.3165 21.1587 20.1085 21.6223 19.8626C21.6574 19.8255 21.652 19.8273 21.6492 19.8264Z" fill="#FDFCF9"/>
<path d="M18.4929 15.1264C18.6081 15.061 18.777 14.9899 18.8066 15.0285C19.1608 15.4712 18.7938 16.7236 18.1705 17.0445C18.2793 16.3896 18.3813 15.7803 18.4929 15.1264Z" fill="#FDFCF9"/>
<path d="M15.1643 10.7777C15.1246 10.7309 15.1242 10.7323 15.1235 10.7333C15.2747 10.5633 15.3982 10.3401 15.5883 10.2341C15.7747 10.1299 16.0522 10.068 16.2464 10.1304C16.4234 10.1882 16.5429 10.4377 16.6445 10.5537C16.2405 10.7437 15.9595 10.9122 15.6548 10.9993C15.5329 11.0344 15.3558 10.888 15.1643 10.7777Z" fill="#FDFCF9"/>
<path d="M15.6495 17.4681C14.9812 17.345 14.5339 16.562 14.791 16.0337C14.8375 15.9393 14.9682 15.875 15.0735 15.8324C15.1053 15.8209 15.2196 15.9225 15.2422 15.9884C15.397 16.4682 15.5381 16.9505 15.6495 17.4681Z" fill="#FDFCF9"/>
<path d="M15.0998 14.288C14.9771 14.4974 14.8648 14.6613 14.7354 14.8497C14.4779 14.4893 14.5223 13.6075 14.7781 13.4716C14.8479 13.4349 15.0872 13.5388 15.0998 13.6055C15.1412 13.8112 15.1107 14.0299 15.0998 14.288Z" fill="#FDFCF9"/>
<path d="M15.2652 18.4649C15.1232 18.5865 14.8997 18.7584 14.8225 18.7065C14.4807 18.4802 14.2273 18.1709 14.4135 17.5771C14.7344 17.8981 14.9927 18.1563 15.2652 18.4649Z" fill="#FDFCF9"/>
<path d="M11.7346 21.3019C11.4533 21.1903 11.0042 21.1727 11.1408 20.7261C11.2105 20.5033 11.4615 20.3409 11.6301 20.1502C11.7044 20.1902 11.7787 20.2284 11.8539 20.2676C11.8219 20.6003 11.7899 20.9329 11.7346 21.3019Z" fill="#FDFCF9"/>
<path d="M18.2932 12.5887C18.1408 12.5843 18.005 12.5984 17.9386 12.5375C17.7322 12.3455 17.5519 12.1255 17.3626 11.9163C17.5025 11.8612 17.7017 11.7192 17.7725 11.7683C18.0492 11.9602 18.5772 12.017 18.2932 12.5887Z" fill="#FDFCF9"/>
<path d="M10.673 17.5214C10.6369 17.4781 10.599 17.4348 10.5467 17.3211C10.4815 17.1908 10.4343 17.131 10.3862 17.0703C10.3862 17.0703 10.3601 17.0207 10.3549 16.965C10.3347 16.8672 10.3197 16.825 10.3046 16.7829C10.2677 16.7405 10.2316 16.6973 10.1688 16.62C10.0835 16.1574 10.0238 15.7294 9.99316 15.2654C10.3126 16.02 10.6033 16.8089 10.851 17.6163C10.7632 17.5953 10.7181 17.5593 10.673 17.5214Z" fill="#FDFCF9"/>
<path d="M17.8419 13.2189C17.9234 13.2463 17.9839 13.2688 17.9869 13.2953C18.0101 13.5875 18.0251 13.8806 18.0429 14.1727C17.9478 14.1553 17.7715 14.1379 17.7713 14.1196C17.7654 13.8194 17.7822 13.5185 17.8419 13.2189Z" fill="#FDFCF9"/>
<path d="M14.1955 19.4515C14.2544 19.328 14.3483 19.2342 14.4326 19.0982C14.6586 19.1563 14.8941 19.2565 15.1288 19.3575C15.1123 19.4367 15.0949 19.515 15.0784 19.5942C14.7952 19.5565 14.5137 19.5188 14.1955 19.4515Z" fill="#FDFCF9"/>
<path d="M11.4618 17.5054C11.1979 17.0812 10.9298 16.6059 10.6786 16.088C10.9488 16.515 11.2041 16.9847 11.4618 17.5054Z" fill="#FDFCF9"/>
<path d="M17.3286 9.77368C17.3768 9.92099 17.398 10.0899 17.4182 10.2596C17.3443 10.2542 17.2695 10.2497 17.1956 10.2442C17.2199 10.1425 17.2452 10.0416 17.27 9.9006C17.2811 9.83966 17.2918 9.81791 17.3286 9.77368Z" fill="#FDFCF9"/>
<path d="M13.7485 19.3303C13.848 19.3176 13.9796 19.3298 14.1345 19.3797C14.0324 19.397 13.9061 19.3757 13.7485 19.3303Z" fill="#FDFCF9"/>
<path d="M12.0019 18.1606C11.9513 18.154 11.8804 18.1087 11.8277 18.036C11.8912 18.0463 11.9364 18.0841 12.0019 18.1606Z" fill="#FDFCF9"/>
<path d="M13.6883 18.6933C13.6125 18.6824 13.5045 18.6391 13.3669 18.559C13.4435 18.5691 13.5489 18.6151 13.6883 18.6933Z" fill="#FDFCF9"/>
<path d="M10.7101 16.0196C10.6656 15.9607 10.6319 15.8676 10.6205 15.7411C10.6691 15.8005 10.6967 15.8928 10.7101 16.0196Z" fill="#FDFCF9"/>
<path d="M11.6383 17.7808C11.6016 17.7788 11.5417 17.7446 11.4845 17.6819C11.5286 17.6857 11.5719 17.7162 11.6383 17.7808Z" fill="#FDFCF9"/>
<path d="M14.0496 18.8651C13.9996 18.8727 13.9138 18.8552 13.7947 18.8009C13.8465 18.7897 13.9287 18.8144 14.0496 18.8651Z" fill="#FDFCF9"/>
<path d="M27.8308 16.2679C27.8537 16.2818 27.8615 16.3257 27.8523 16.4014C27.8293 16.3874 27.8215 16.3435 27.8308 16.2679Z" fill="#FDFCF9"/>
<path d="M23.1505 10.6957C23.2135 10.9573 23.2343 11.193 23.25 11.4687C23.079 11.5125 22.8435 11.5875 22.7651 11.5073C22.6248 11.3652 22.4581 11.0487 22.5209 10.9508C22.6214 10.795 22.9039 10.7579 23.1505 10.6957Z" fill="#FDFCF9"/>
<path d="M10.3745 14.867C10.3748 14.7571 10.374 14.648 10.3823 14.5389C10.3834 14.5328 10.4561 14.535 10.4957 14.5331C10.4761 14.6237 10.4574 14.7134 10.4091 14.8348C10.3795 14.8666 10.3762 14.8669 10.3745 14.867Z" fill="#FDFCF9"/>
</svg>
